<svg xmlns="http://www.w3.org/2000/svg" viewBox="0 0 1500 720" role="img" aria-labelledby="title desc"><title id="title">Year 11 Design and Technology course map</title><desc id="desc">Fifteen two-week modules arranged across Terms 1, 2 and 3, ending in a bridge to the Year 12 HSC course.</desc><rect width="1500" height="720" rx="36" fill="#f8f2e7"/><text x="35" y="90" font-family="Arial" font-size="22" font-weight="700" fill="#b9654a">TERM 1</text><text x="35" y="295" font-family="Arial" font-size="22" font-weight="700" fill="#d6a85b">TERM 2</text><text x="35" y="500" font-family="Arial" font-size="22" font-weight="700" fill="#547d69">TERM 3</text><path d="M320 177.5H335" stroke="#93a49a" stroke-width="5" stroke-linecap="round"/><rect x="60" y="120" width="260" height="115" rx="20" fill="#fff" stroke="#b9654a" stroke-width="4"/><circle cx="92" cy="152" r="20" fill="#b9654a"/><text x="92" y="160" text-anchor="middle" font-family="Arial" font-size="21" font-weight="700" fill="#fff">1</text><text x="122" y="151" font-family="Arial" font-size="19" font-weight="700" fill="#173a32">Design and Technology</text><text x="122" y="176" font-family="Arial" font-size="19" font-weight="700" fill="#173a32">foundations</text><path d="M610 177.5H625" stroke="#93a49a" stroke-width="5" stroke-linecap="round"/><rect x="350" y="120" width="260" height="115" rx="20" fill="#fff" stroke="#b9654a" stroke-width="4"/><circle cx="382" cy="152" r="20" fill="#b9654a"/><text x="382" y="160" text-anchor="middle" font-family="Arial" font-size="21" font-weight="700" fill="#fff">2</text><text x="412" y="151" font-family="Arial" font-size="19" font-weight="700" fill="#173a32">Factors affecting design</text><path d="M900 177.5H915" stroke="#93a49a" stroke-width="5" stroke-linecap="round"/><rect x="640" y="120" width="260" height="115" rx="20" fill="#fff" stroke="#b9654a" stroke-width="4"/><circle cx="672" cy="152" r="20" fill="#b9654a"/><text x="672" y="160" text-anchor="middle" font-family="Arial" font-size="21" font-weight="700" fill="#fff">3</text><text x="702" y="151" font-family="Arial" font-size="19" font-weight="700" fill="#173a32">Research that informs</text><text x="702" y="176" font-family="Arial" font-size="19" font-weight="700" fill="#173a32">design</text><path d="M1190 177.5H1205" stroke="#93a49a" stroke-width="5" stroke-linecap="round"/><rect x="930" y="120" width="260" height="115" rx="20" fill="#fff" stroke="#b9654a" stroke-width="4"/><circle cx="962" cy="152" r="20" fill="#b9654a"/><text x="962" y="160" text-anchor="middle" font-family="Arial" font-size="21" font-weight="700" fill="#fff">4</text><text x="992" y="151" font-family="Arial" font-size="19" font-weight="700" fill="#173a32">Design and production</text><text x="992" y="176" font-family="Arial" font-size="19" font-weight="700" fill="#173a32">settings</text><path d="M1350.0 235V305" stroke="#93a49a" stroke-width="5" stroke-linecap="round"/><rect x="1220" y="120" width="260" height="115" rx="20" fill="#fff" stroke="#b9654a" stroke-width="4"/><circle cx="1252" cy="152" r="20" fill="#b9654a"/><text x="1252" y="160" text-anchor="middle" font-family="Arial" font-size="21" font-weight="700" fill="#fff">5</text><text x="1282" y="151" font-family="Arial" font-size="19" font-weight="700" fill="#173a32">Communicating research</text><text x="1282" y="176" font-family="Arial" font-size="19" font-weight="700" fill="#173a32">and design knowledge</text><path d="M320 382.5H335" stroke="#93a49a" stroke-width="5" stroke-linecap="round"/><rect x="60" y="325" width="260" height="115" rx="20" fill="#fff" stroke="#d6a85b" stroke-width="4"/><circle cx="92" cy="357" r="20" fill="#d6a85b"/><text x="92" y="365" text-anchor="middle" font-family="Arial" font-size="21" font-weight="700" fill="#fff">6</text><text x="122" y="356" font-family="Arial" font-size="19" font-weight="700" fill="#173a32">Creativity and</text><text x="122" y="381" font-family="Arial" font-size="19" font-weight="700" fill="#173a32">collaborative design</text><path d="M610 382.5H625" stroke="#93a49a" stroke-width="5" stroke-linecap="round"/><rect x="350" y="325" width="260" height="115" rx="20" fill="#fff" stroke="#d6a85b" stroke-width="4"/><circle cx="382" cy="357" r="20" fill="#d6a85b"/><text x="382" y="365" text-anchor="middle" font-family="Arial" font-size="21" font-weight="700" fill="#fff">7</text><text x="412" y="356" font-family="Arial" font-size="19" font-weight="700" fill="#173a32">Briefs, users and</text><text x="412" y="381" font-family="Arial" font-size="19" font-weight="700" fill="#173a32">criteria</text><path d="M900 382.5H915" stroke="#93a49a" stroke-width="5" stroke-linecap="round"/><rect x="640" y="325" width="260" height="115" rx="20" fill="#fff" stroke="#d6a85b" stroke-width="4"/><circle cx="672" cy="357" r="20" fill="#d6a85b"/><text x="672" y="365" text-anchor="middle" font-family="Arial" font-size="21" font-weight="700" fill="#fff">8</text><text x="702" y="356" font-family="Arial" font-size="19" font-weight="700" fill="#173a32">Graphical and design</text><text x="702" y="381" font-family="Arial" font-size="19" font-weight="700" fill="#173a32">communication</text><path d="M1190 382.5H1205" stroke="#93a49a" stroke-width="5" stroke-linecap="round"/><rect x="930" y="325" width="260" height="115" rx="20" fill="#fff" stroke="#d6a85b" stroke-width="4"/><circle cx="962" cy="357" r="20" fill="#d6a85b"/><text x="962" y="365" text-anchor="middle" font-family="Arial" font-size="21" font-weight="700" fill="#fff">9</text><text x="992" y="356" font-family="Arial" font-size="19" font-weight="700" fill="#173a32">CAD and rapid prototyping</text><path d="M1350.0 440V510" stroke="#93a49a" stroke-width="5" stroke-linecap="round"/><rect x="1220" y="325" width="260" height="115" rx="20" fill="#fff" stroke="#d6a85b" stroke-width="4"/><circle cx="1252" cy="357" r="20" fill="#d6a85b"/><text x="1252" y="365" text-anchor="middle" font-family="Arial" font-size="21" font-weight="700" fill="#fff">10</text><text x="1282" y="356" font-family="Arial" font-size="19" font-weight="700" fill="#173a32">Testing, materials and</text><text x="1282" y="381" font-family="Arial" font-size="19" font-weight="700" fill="#173a32">evaluation</text><path d="M320 587.5H335" stroke="#93a49a" stroke-width="5" stroke-linecap="round"/><rect x="60" y="530" width="260" height="115" rx="20" fill="#fff" stroke="#547d69" stroke-width="4"/><circle cx="92" cy="562" r="20" fill="#547d69"/><text x="92" y="570" text-anchor="middle" font-family="Arial" font-size="21" font-weight="700" fill="#fff">11</text><text x="122" y="561" font-family="Arial" font-size="19" font-weight="700" fill="#173a32">Camping design project</text><path d="M610 587.5H625" stroke="#93a49a" stroke-width="5" stroke-linecap="round"/><rect x="350" y="530" width="260" height="115" rx="20" fill="#fff" stroke="#547d69" stroke-width="4"/><circle cx="382" cy="562" r="20" fill="#547d69"/><text x="382" y="570" text-anchor="middle" font-family="Arial" font-size="21" font-weight="700" fill="#fff">12</text><text x="412" y="561" font-family="Arial" font-size="19" font-weight="700" fill="#173a32">Project management and</text><text x="412" y="586" font-family="Arial" font-size="19" font-weight="700" fill="#173a32">safe production</text><path d="M900 587.5H915" stroke="#93a49a" stroke-width="5" stroke-linecap="round"/><rect x="640" y="530" width="260" height="115" rx="20" fill="#fff" stroke="#547d69" stroke-width="4"/><circle cx="672" cy="562" r="20" fill="#547d69"/><text x="672" y="570" text-anchor="middle" font-family="Arial" font-size="21" font-weight="700" fill="#fff">13</text><text x="702" y="561" font-family="Arial" font-size="19" font-weight="700" fill="#173a32">Manufacturing, quality</text><text x="702" y="586" font-family="Arial" font-size="19" font-weight="700" fill="#173a32">and production evidence</text><path d="M1190 587.5H1205" stroke="#93a49a" stroke-width="5" stroke-linecap="round"/><rect x="930" y="530" width="260" height="115" rx="20" fill="#fff" stroke="#547d69" stroke-width="4"/><circle cx="962" cy="562" r="20" fill="#547d69"/><text x="962" y="570" text-anchor="middle" font-family="Arial" font-size="21" font-weight="700" fill="#fff">14</text><text x="992" y="561" font-family="Arial" font-size="19" font-weight="700" fill="#173a32">Marketing, sustainability</text><text x="992" y="586" font-family="Arial" font-size="19" font-weight="700" fill="#173a32">and final evaluation</text><rect x="1220" y="530" width="260" height="115" rx="20" fill="#fff" stroke="#547d69" stroke-width="4"/><circle cx="1252" cy="562" r="20" fill="#547d69"/><text x="1252" y="570" text-anchor="middle" font-family="Arial" font-size="21" font-weight="700" fill="#fff">15</text><text x="1282" y="561" font-family="Arial" font-size="19" font-weight="700" fill="#173a32">Preliminary synthesis and</text><text x="1282" y="586" font-family="Arial" font-size="19" font-weight="700" fill="#173a32">Year 12 bridge</text><path d="M1375 645h70" stroke="#173a32" stroke-width="8" stroke-linecap="round"/><path d="M1428 626l19 19-19 19" fill="none" stroke="#173a32" stroke-width="8" stroke-linecap="round" stroke-linejoin="round"/><text x="1080" y="685" font-family="Arial" font-size="22" font-weight="700" fill="#173a32">Year 12 HSC course: innovation + Major Design Project</text></svg>