  0
SECTION
  2
HEADER
  9
$ACADVER
  1
AC1015
  9
$ACADMAINTVER
 70
6
  9
$DWGCODEPAGE
  3
ANSI_1252
  9
$INSBASE
 10
0.0
 20
0.0
 30
0.0
  9
$EXTMIN
 10
1e+20
 20
1e+20
 30
1e+20
  9
$EXTMAX
 10
-1e+20
 20
-1e+20
 30
-1e+20
  9
$LIMMIN
 10
0.0
 20
0.0
  9
$LIMMAX
 10
420.0
 20
297.0
  9
$ORTHOMODE
 70
0
  9
$REGENMODE
 70
1
  9
$FILLMODE
 70
1
  9
$QTEXTMODE
 70
0
  9
$MIRRTEXT
 70
1
  9
$LTSCALE
 40
1.0
  9
$ATTMODE
 70
1
  9
$TEXTSIZE
 40
2.5
  9
$TRACEWID
 40
1.0
  9
$TEXTSTYLE
  7
Standard
  9
$CLAYER
  8
0
  9
$CELTYPE
  6
ByLayer
  9
$CECOLOR
 62
256
  9
$CELTSCALE
 40
1.0
  9
$DISPSILH
 70
0
  9
$DIMSCALE
 40
1.0
  9
$DIMASZ
 40
2.5
  9
$DIMEXO
 40
0.625
  9
$DIMDLI
 40
3.75
  9
$DIMRND
 40
0.0
  9
$DIMDLE
 40
0.0
  9
$DIMEXE
 40
1.25
  9
$DIMTP
 40
0.0
  9
$DIMTM
 40
0.0
  9
$DIMTXT
 40
2.5
  9
$DIMCEN
 40
2.5
  9
$DIMTSZ
 40
0.0
  9
$DIMTOL
 70
0
  9
$DIMLIM
 70
0
  9
$DIMTIH
 70
0
  9
$DIMTOH
 70
0
  9
$DIMSE1
 70
0
  9
$DIMSE2
 70
0
  9
$DIMTAD
 70
1
  9
$DIMZIN
 70
8
  9
$DIMBLK
  1

  9
$DIMASO
 70
1
  9
$DIMSHO
 70
1
  9
$DIMPOST
  1

  9
$DIMAPOST
  1

  9
$DIMALT
 70
0
  9
$DIMALTD
 70
3
  9
$DIMALTF
 40
0.03937007874
  9
$DIMLFAC
 40
1.0
  9
$DIMTOFL
 70
1
  9
$DIMTVP
 40
0.0
  9
$DIMTIX
 70
0
  9
$DIMSOXD
 70
0
  9
$DIMSAH
 70
0
  9
$DIMBLK1
  1

  9
$DIMBLK2
  1

  9
$DIMSTYLE
  2
ISO-25
  9
$DIMCLRD
 70
0
  9
$DIMCLRE
 70
0
  9
$DIMCLRT
 70
0
  9
$DIMTFAC
 40
1.0
  9
$DIMGAP
 40
0.625
  9
$DIMJUST
 70
0
  9
$DIMSD1
 70
0
  9
$DIMSD2
 70
0
  9
$DIMTOLJ
 70
0
  9
$DIMTZIN
 70
8
  9
$DIMALTZ
 70
0
  9
$DIMALTTZ
 70
0
  9
$DIMUPT
 70
0
  9
$DIMDEC
 70
2
  9
$DIMTDEC
 70
2
  9
$DIMALTU
 70
2
  9
$DIMALTTD
 70
3
  9
$DIMTXSTY
  7
Standard
  9
$DIMAUNIT
 70
0
  9
$DIMADEC
 70
0
  9
$DIMALTRND
 40
0.0
  9
$DIMAZIN
 70
0
  9
$DIMDSEP
 70
44
  9
$DIMATFIT
 70
3
  9
$DIMFRAC
 70
0
  9
$DIMLDRBLK
  1

  9
$DIMLUNIT
 70
2
  9
$DIMLWD
 70
-2
  9
$DIMLWE
 70
-2
  9
$DIMTMOVE
 70
0
  9
$LUNITS
 70
2
  9
$LUPREC
 70
4
  9
$SKETCHINC
 40
1.0
  9
$FILLETRAD
 40
10.0
  9
$AUNITS
 70
0
  9
$AUPREC
 70
2
  9
$MENU
  1
.
  9
$ELEVATION
 40
0.0
  9
$PELEVATION
 40
0.0
  9
$THICKNESS
 40
0.0
  9
$LIMCHECK
 70
0
  9
$CHAMFERA
 40
0.0
  9
$CHAMFERB
 40
0.0
  9
$CHAMFERC
 40
0.0
  9
$CHAMFERD
 40
0.0
  9
$SKPOLY
 70
0
  9
$TDCREATE
 40
2461293.5221990743
  9
$TDUCREATE
 40
2458532.153996898
  9
$TDUPDATE
 40
2461293.5221990743
  9
$TDUUPDATE
 40
2458532.1544311
  9
$TDINDWG
 40
0.0
  9
$TDUSRTIMER
 40
0.0
  9
$USRTIMER
 70
1
  9
$ANGBASE
 50
0.0
  9
$ANGDIR
 70
0
  9
$PDMODE
 70
0
  9
$PDSIZE
 40
0.0
  9
$PLINEWID
 40
0.0
  9
$SPLFRAME
 70
0
  9
$SPLINETYPE
 70
6
  9
$SPLINESEGS
 70
8
  9
$HANDSEED
  5
59
  9
$SURFTAB1
 70
6
  9
$SURFTAB2
 70
6
  9
$SURFTYPE
 70
6
  9
$SURFU
 70
6
  9
$SURFV
 70
6
  9
$UCSBASE
  2

  9
$UCSNAME
  2

  9
$UCSORG
 10
0.0
 20
0.0
 30
0.0
  9
$UCSXDIR
 10
1.0
 20
0.0
 30
0.0
  9
$UCSYDIR
 10
0.0
 20
1.0
 30
0.0
  9
$UCSORTHOREF
  2

  9
$UCSORTHOVIEW
 70
0
  9
$UCSORGTOP
 10
0.0
 20
0.0
 30
0.0
  9
$UCSORGBOTTOM
 10
0.0
 20
0.0
 30
0.0
  9
$UCSORGLEFT
 10
0.0
 20
0.0
 30
0.0
  9
$UCSORGRIGHT
 10
0.0
 20
0.0
 30
0.0
  9
$UCSORGFRONT
 10
0.0
 20
0.0
 30
0.0
  9
$UCSORGBACK
 10
0.0
 20
0.0
 30
0.0
  9
$PUCSBASE
  2

  9
$PUCSNAME
  2

  9
$PUCSORG
 10
0.0
 20
0.0
 30
0.0
  9
$PUCSXDIR
 10
1.0
 20
0.0
 30
0.0
  9
$PUCSYDIR
 10
0.0
 20
1.0
 30
0.0
  9
$PUCSORTHOREF
  2

  9
$PUCSORTHOVIEW
 70
0
  9
$PUCSORGTOP
 10
0.0
 20
0.0
 30
0.0
  9
$PUCSORGBOTTOM
 10
0.0
 20
0.0
 30
0.0
  9
$PUCSORGLEFT
 10
0.0
 20
0.0
 30
0.0
  9
$PUCSORGRIGHT
 10
0.0
 20
0.0
 30
0.0
  9
$PUCSORGFRONT
 10
0.0
 20
0.0
 30
0.0
  9
$PUCSORGBACK
 10
0.0
 20
0.0
 30
0.0
  9
$USERI1
 70
0
  9
$USERI2
 70
0
  9
$USERI3
 70
0
  9
$USERI4
 70
0
  9
$USERI5
 70
0
  9
$USERR1
 40
0.0
  9
$USERR2
 40
0.0
  9
$USERR3
 40
0.0
  9
$USERR4
 40
0.0
  9
$USERR5
 40
0.0
  9
$WORLDVIEW
 70
1
  9
$SHADEDGE
 70
3
  9
$SHADEDIF
 70
70
  9
$TILEMODE
 70
1
  9
$MAXACTVP
 70
64
  9
$PINSBASE
 10
0.0
 20
0.0
 30
0.0
  9
$PLIMCHECK
 70
0
  9
$PEXTMIN
 10
1e+20
 20
1e+20
 30
1e+20
  9
$PEXTMAX
 10
-1e+20
 20
-1e+20
 30
-1e+20
  9
$PLIMMIN
 10
0.0
 20
0.0
  9
$PLIMMAX
 10
420.0
 20
297.0
  9
$UNITMODE
 70
0
  9
$VISRETAIN
 70
1
  9
$PLINEGEN
 70
0
  9
$PSLTSCALE
 70
1
  9
$TREEDEPTH
 70
3020
  9
$CMLSTYLE
  2
Standard
  9
$CMLJUST
 70
0
  9
$CMLSCALE
 40
20.0
  9
$PROXYGRAPHICS
 70
1
  9
$MEASUREMENT
 70
1
  9
$CELWEIGHT
370
-1
  9
$ENDCAPS
280
0
  9
$JOINSTYLE
280
0
  9
$LWDISPLAY
290
0
  9
$INSUNITS
 70
4
  9
$HYPERLINKBASE
  1

  9
$STYLESHEET
  1

  9
$XEDIT
290
1
  9
$CEPSNTYPE
380
0
  9
$PSTYLEMODE
290
1
  9
$FINGERPRINTGUID
  2
{EE8DE767-B318-4DA0-A0A1-CC3729FF2E73}
  9
$VERSIONGUID
  2
{55619EAD-E6B0-4303-9223-CCC4E5AE55AE}
  9
$EXTNAMES
290
1
  9
$PSVPSCALE
 40
0.0
  9
$OLESTARTUP
290
0
  0
ENDSEC
  0
SECTION
  2
CLASSES
  0
CLASS
  1
ACDBDICTIONARYWDFLT
  2
AcDbDictionaryWithDefault
  3
ObjectDBX Classes
 90
0
280
0
281
0
  0
CLASS
  1
SUN
  2
AcDbSun
  3
SCENEOE
 90
1153
280
0
281
0
  0
CLASS
  1
VISUALSTYLE
  2
AcDbVisualStyle
  3
ObjectDBX Classes
 90
4095
280
0
281
0
  0
CLASS
  1
MATERIAL
  2
AcDbMaterial
  3
ObjectDBX Classes
 90
1153
280
0
281
0
  0
CLASS
  1
SCALE
  2
AcDbScale
  3
ObjectDBX Classes
 90
1153
280
0
281
0
  0
CLASS
  1
TABLESTYLE
  2
AcDbTableStyle
  3
ObjectDBX Classes
 90
4095
280
0
281
0
  0
CLASS
  1
MLEADERSTYLE
  2
AcDbMLeaderStyle
  3
ACDB_MLEADERSTYLE_CLASS
 90
4095
280
0
281
0
  0
CLASS
  1
DICTIONARYVAR
  2
AcDbDictionaryVar
  3
ObjectDBX Classes
 90
0
280
0
281
0
  0
CLASS
  1
CELLSTYLEMAP
  2
AcDbCellStyleMap
  3
ObjectDBX Classes
 90
1152
280
0
281
0
  0
CLASS
  1
MENTALRAYRENDERSETTINGS
  2
AcDbMentalRayRenderSettings
  3
SCENEOE
 90
1024
280
0
281
0
  0
CLASS
  1
ACDBDETAILVIEWSTYLE
  2
AcDbDetailViewStyle
  3
ObjectDBX Classes
 90
1025
280
0
281
0
  0
CLASS
  1
ACDBSECTIONVIEWSTYLE
  2
AcDbSectionViewStyle
  3
ObjectDBX Classes
 90
1025
280
0
281
0
  0
CLASS
  1
RASTERVARIABLES
  2
AcDbRasterVariables
  3
ISM
 90
0
280
0
281
0
  0
CLASS
  1
ACDBPLACEHOLDER
  2
AcDbPlaceHolder
  3
ObjectDBX Classes
 90
0
280
0
281
0
  0
CLASS
  1
LAYOUT
  2
AcDbLayout
  3
ObjectDBX Classes
 90
0
280
0
281
0
  0
ENDSEC
  0
SECTION
  2
TABLES
  0
TABLE
  2
VPORT
  5
8
330
0
100
AcDbSymbolTable
 70
1
  0
VPORT
  5
23
330
8
100
AcDbSymbolTableRecord
100
AcDbViewportTableRecord
  2
*Active
 70
0
 10
0.0
 20
0.0
 11
1.0
 21
1.0
 12
0.0
 22
0.0
 13
0.0
 23
0.0
 14
0.5
 24
0.5
 15
0.5
 25
0.5
 16
0.0
 26
0.0
 36
1.0
 17
0.0
 27
0.0
 37
0.0
 40
1000.0
 41
1.34
 42
50.0
 43
0.0
 44
0.0
 50
0.0
 51
0.0
 71
0
 72
1000
 73
1
 74
3
 75
0
 76
0
 77
0
 78
0
281
0
 65
0
146
0.0
  0
ENDTAB
  0
TABLE
  2
LTYPE
  5
2
330
0
100
AcDbSymbolTable
 70
3
  0
LTYPE
  5
24
330
2
100
AcDbSymbolTableRecord
100
AcDbLinetypeTableRecord
  2
ByBlock
 70
0
  3

 72
65
 73
0
 40
0.0
  0
LTYPE
  5
25
330
2
100
AcDbSymbolTableRecord
100
AcDbLinetypeTableRecord
  2
ByLayer
 70
0
  3

 72
65
 73
0
 40
0.0
  0
LTYPE
  5
26
330
2
100
AcDbSymbolTableRecord
100
AcDbLinetypeTableRecord
  2
Continuous
 70
0
  3

 72
65
 73
0
 40
0.0
  0
ENDTAB
  0
TABLE
  2
LAYER
  5
1
330
0
100
AcDbSymbolTable
 70
3
  0
LAYER
  5
27
330
1
100
AcDbSymbolTableRecord
100
AcDbLayerTableRecord
  2
0
 70
0
 62
7
  6
Continuous
370
-3
390
13
  0
LAYER
  5
28
330
1
100
AcDbSymbolTableRecord
100
AcDbLayerTableRecord
  2
Defpoints
 70
0
 62
7
  6
Continuous
290
0
370
-3
390
13
  0
LAYER
  5
2F
330
1
100
AcDbSymbolTableRecord
100
AcDbLayerTableRecord
  2
CUT
 70
0
 62
7
  6
Continuous
370
-3
390
13
  0
ENDTAB
  0
TABLE
  2
STYLE
  5
5
330
0
100
AcDbSymbolTable
 70
1
  0
STYLE
  5
29
330
5
100
AcDbSymbolTableRecord
100
AcDbTextStyleTableRecord
  2
Standard
 70
0
 40
0.0
 41
1.0
 50
0.0
 71
0
 42
2.5
  3
txt
  4

  0
ENDTAB
  0
TABLE
  2
VIEW
  5
7
330
0
100
AcDbSymbolTable
 70
0
  0
ENDTAB
  0
TABLE
  2
UCS
  5
6
330
0
100
AcDbSymbolTable
 70
0
  0
ENDTAB
  0
TABLE
  2
APPID
  5
3
330
0
100
AcDbSymbolTable
 70
3
  0
APPID
  5
2A
330
3
100
AcDbSymbolTableRecord
100
AcDbRegAppTableRecord
  2
ACAD
 70
0
  0
APPID
  5
56
330
3
100
AcDbSymbolTableRecord
100
AcDbRegAppTableRecord
  2
HATCHBACKGROUNDCOLOR
 70
0
  0
APPID
  5
57
330
3
100
AcDbSymbolTableRecord
100
AcDbRegAppTableRecord
  2
EZDXF
 70
0
  0
ENDTAB
  0
TABLE
  2
DIMSTYLE
  5
4
330
0
100
AcDbSymbolTable
 70
1
100
AcDbDimStyleTable
  0
DIMSTYLE
105
2B
330
4
100
AcDbSymbolTableRecord
100
AcDbDimStyleTableRecord
  2
Standard
 70
0
  3

  4

 40
1.0
 41
2.5
 42
0.625
 43
3.75
 44
1.25
 45
0.0
 46
0.0
 47
0.0
 48
0.0
140
2.5
141
2.5
142
0.0
143
0.03937007874
144
1.0
145
0.0
146
1.0
147
0.625
148
0.0
 71
0
 72
0
 73
0
 74
0
 75
0
 76
0
 77
1
 78
8
 79
3
170
0
171
3
172
1
173
0
174
0
175
0
176
0
177
0
178
0
179
2
271
2
272
2
273
2
274
3
275
0
276
0
277
2
278
44
279
0
280
0
281
0
282
0
283
0
284
8
285
0
286
0
288
0
289
3
371
-2
372
-2
  0
ENDTAB
  0
TABLE
  2
BLOCK_RECORD
  5
9
330
0
100
AcDbSymbolTable
 70
2
  0
BLOCK_RECORD
  5
17
330
9
100
AcDbSymbolTableRecord
100
AcDbBlockTableRecord
  2
*Model_Space
340
1A
  0
BLOCK_RECORD
  5
1B
330
9
100
AcDbSymbolTableRecord
100
AcDbBlockTableRecord
  2
*Paper_Space
340
1E
  0
ENDTAB
  0
ENDSEC
  0
SECTION
  2
BLOCKS
  0
BLOCK
  5
18
330
17
100
AcDbEntity
  8
0
100
AcDbBlockBegin
  2
*Model_Space
 70
0
 10
0.0
 20
0.0
 30
0.0
  3
*Model_Space
  1

  0
ENDBLK
  5
19
330
17
100
AcDbEntity
  8
0
100
AcDbBlockEnd
  0
BLOCK
  5
1C
330
1B
100
AcDbEntity
  8
0
100
AcDbBlockBegin
  2
*Paper_Space
 70
0
 10
0.0
 20
0.0
 30
0.0
  3
*Paper_Space
  1

  0
ENDBLK
  5
1D
330
1B
100
AcDbEntity
  8
0
100
AcDbBlockEnd
  0
ENDSEC
  0
SECTION
  2
ENTITIES
  0
CIRCLE
  5
30
330
17
100
AcDbEntity
  8
CUT
100
AcDbCircle
 10
0.0
 20
0.0
 30
0.0
 40
200.0
  0
LWPOLYLINE
  5
31
330
17
100
AcDbEntity
  8
CUT
100
AcDbPolyline
 90
39
 70
1
 10
-72.75240116284071
 20
-108.52227287403026
 10
-68.35344751472545
 20
-108.08633889529249
 10
-60.49250205982108
 20
-108.06184571990518
 10
-52.41357452275339
 20
-108.97397349200973
 10
-40.63252941898875
 20
-111.69435957136027
 10
-32.67817917284101
 20
-114.36203752819527
 10
-20.418892515782865
 20
-119.32161677962901
 10
-7.893649188532102
 20
-123.65036986998156
 10
1.1719343438778962
 20
-125.47693668560498
 10
9.965495958243624
 20
-126.39278790590737
 10
22.14041703844498
 20
-126.37601921834684
 10
35.05896137417882
 20
-124.26506335831772
 10
35.70266211429485
 20
-124.40617012056293
 10
35.98712901947312
 20
-124.98719421587556
 10
35.51925831537778
 20
-125.68818465883409
 10
31.76352706540588
 20
-127.20999693059684
 10
21.52446512383097
 20
-130.304188203867
 10
13.343415025644758
 20
-131.6549504760716
 10
9.235116047741604
 20
-131.7074108431671
 10
7.2153860071284095
 20
-132.11141282677235
 10
-0.627579291637192
 20
-132.1123045997832
 10
-2.646785471227188
 20
-131.7109012441303
 10
-6.167338436548238
 20
-131.63006028805898
 10
-17.77422774143446
 20
-129.3855686349132
 10
-28.79660254599152
 20
-125.85436788276046
 10
-44.05752684550875
 20
-119.58423370573797
 10
-50.51562325065451
 20
-117.44307759838955
 10
-57.82390486852763
 20
-115.60142789291469
 10
-63.74547345037182
 20
-114.68315886602988
 10
-68.84676020373382
 20
-114.21055240473827
 10
-77.20274984640045
 20
-114.21446506290202
 10
-81.95744890200355
 20
-114.66889628126475
 10
-92.40950872825663
 20
-116.47905449406423
 10
-98.59024456086584
 20
-118.32198122862489
 10
-99.39925026562653
 20
-118.0155918522384
 10
-99.3128497334657
 20
-117.06860238087442
 10
-94.97349778840312
 20
-114.85120305373334
 10
-90.13777527522954
 20
-112.92764640809222
 10
-81.86814076503573
 20
-110.32663995997403
  0
LWPOLYLINE
  5
32
330
17
100
AcDbEntity
  8
CUT
100
AcDbPolyline
 90
35
 70
1
 10
-2.637526255665817
 20
-101.38282822267064
 10
10.74631519392574
 20
-104.50769186474548
 10
20.7664903986055
 20
-105.86263330509799
 10
34.02993647198848
 20
-105.87127781600933
 10
42.44565505916118
 20
-104.9594554942368
 10
55.05797277155805
 20
-102.57322843496976
 10
55.73646919295429
 20
-102.74202891277257
 10
55.980249762125545
 20
-103.3790109882358
 10
55.58760449039231
 20
-103.96144557407206
 10
53.598919501039184
 20
-104.93552288688021
 10
46.29570743952317
 20
-107.5028643164418
 10
41.28516228353405
 20
-108.88090858682484
 10
32.35428620670543
 20
-110.67010745465505
 10
23.128942168822718
 20
-111.58223810704398
 10
11.131963727033312
 20
-111.56496964820624
 10
-2.5960235856483154
 20
-109.80489492891964
 10
-11.764253416848806
 20
-107.52401956021438
 10
-37.608997896798044
 20
-99.03791269653527
 10
-45.631736162111466
 20
-97.25293946169462
 10
-55.56869197309
 20
-95.8942162877109
 10
-68.14825884358996
 20
-95.87669506324748
 10
-72.92230200798946
 20
-96.34172568169626
 10
-81.47331435686358
 20
-97.69636266584855
 10
-96.24605174506249
 20
-101.8817144494364
 10
-97.05134100045113
 20
-101.65215746765254
 10
-96.9737829116156
 20
-100.61070362856603
 10
-91.79802783059499
 20
-97.97992926611
 10
-85.857301376502
 20
-95.48111803076206
 10
-73.72927980054477
 20
-92.01840183614391
 10
-63.336832925015855
 20
-90.19785372494205
 10
-59.130186476911454
 20
-90.13753754830626
 10
-57.11101132333092
 20
-89.72548783173946
 10
-47.54093940230544
 20
-89.72933219797858
 10
-32.262099911860155
 20
-91.94693651311185
 10
-21.8644921073751
 20
-94.65833345450865
  0
LWPOLYLINE
  5
33
330
17
100
AcDbEntity
  8
CUT
100
AcDbPolyline
 90
35
 70
1
 10
-58.754189088456314
 20
-59.381910890948205
 10
-60.63068045519008
 20
-59.765322673442824
 10
-61.54927265844619
 20
-60.44241161193713
 10
-64.0047736157968
 20
-60.48569403363977
 10
-64.3766077898048
 20
-60.77326461558161
 10
-64.52140822671824
 20
-65.02774753384868
 10
-64.26976053712455
 20
-65.92381607134327
 10
-63.70796348102551
 20
-66.35744974870723
 10
-62.36861233934222
 20
-66.38645932469186
 10
-61.44710783057033
 20
-65.78864777512932
 10
-58.412608284343385
 20
-67.70414030391476
 10
-61.12092162839588
 20
-69.72268015079256
 10
-61.943026536875486
 20
-69.15997906384497
 10
-64.21823404930063
 20
-69.3982226513897
 10
-64.4854663040284
 20
-75.13713100694424
 10
-64.08488394776971
 20
-75.6767926461677
 10
-61.83998473357137
 20
-75.67573346256546
 10
-60.7894279930238
 20
-76.39753577828935
 10
-58.894239373289686
 20
-76.67409416274435
 10
-57.114678691409274
 20
-75.96600643944493
 10
-54.421622932733804
 20
-73.95883826199315
 10
-55.4381131742515
 20
-77.99831313079017
 10
-57.54678072624673
 20
-78.9388257637941
 10
-70.39639384258734
 20
-78.63713727524062
 10
-70.72043709603878
 20
-78.4881583676414
 10
-71.01423576088608
 20
-76.93739393112035
 10
-69.59302270348688
 20
-75.01902535635303
 10
-69.56613455097445
 20
-62.02909181123137
 10
-69.75475083286962
 20
-60.45630586999035
 10
-70.94006819119146
 20
-58.84164391804561
 10
-70.82906601338445
 20
-57.76846705867914
 10
-57.37120044610463
 20
-57.330092884189206
 10
-56.073633817983485
 20
-58.599282836280445
 10
-56.001568434345614
 20
-60.60639627180431
 10
-57.80588758584519
 20
-59.565418755495756
  0
LWPOLYLINE
  5
34
330
17
100
AcDbEntity
  8
CUT
100
AcDbPolyline
 90
37
 70
1
 10
-89.48636783012765
 20
-69.16416975305013
 10
-85.99796143279004
 20
-73.96895384878772
 10
-82.96972762714255
 20
-77.11614826064562
 10
-82.84725885521043
 20
-78.04233546115799
 10
-83.11549779782509
 20
-78.38737196623146
 10
-86.70477585499921
 20
-78.93202270014925
 10
-88.56756134694436
 20
-78.40194509253293
 10
-90.18599187566002
 20
-76.73475572128497
 10
-94.37390196652703
 20
-70.4008050087891
 10
-95.19016229962574
 20
-69.9932709702275
 10
-95.39035792351322
 20
-70.26828718474947
 10
-95.42342901347725
 20
-74.76772328847937
 10
-93.99587597462839
 20
-77.72636854821654
 10
-94.01454367311125
 20
-78.15219086268286
 10
-96.32862406200724
 20
-78.94569793095202
 10
-101.29319488791141
 20
-78.64888720337538
 10
-101.67516999960718
 20
-78.38772494330321
 10
-101.87040134255257
 20
-76.82909065018364
 10
-100.54840598030442
 20
-75.25874744778632
 10
-100.49196173538465
 20
-61.211087144517926
 10
-101.78379401851737
 20
-58.248512287351154
 10
-101.78138753389516
 20
-57.883358261313525
 10
-101.38585155284908
 20
-57.618880997533225
 10
-91.29069747351443
 20
-57.30319346904967
 10
-87.9717211397742
 20
-58.73532759123988
 10
-86.45029582626822
 20
-60.430321753461776
 10
-86.28012951745029
 20
-60.93795050148091
 10
-92.51326275840428
 20
-60.93795050148091
 10
-92.78926222564014
 20
-60.661123751751425
 10
-95.07742603635842
 20
-60.06513435239732
 10
-95.4222242108621
 20
-60.831276071501655
 10
-95.26146801309386
 20
-66.80710517665229
 10
-94.71177437229065
 20
-67.05480941309533
 10
-93.35786505543217
 20
-66.67595335517176
 10
-93.35786505543217
 20
-67.43795050148091
 10
-87.81142420292831
 20
-67.43795050148091
 10
-89.3395025865431
 20
-68.69025869305686
  0
LWPOLYLINE
  5
35
330
17
100
AcDbEntity
  8
CUT
100
AcDbPolyline
 90
36
 70
1
 10
-3.4786152604855496
 20
-59.94700944931651
 10
-3.4786152604855496
 20
-60.551347462752254
 10
-5.102953467474446
 20
-60.092589276311735
 10
-5.766217403714316
 20
-60.901856327590515
 10
-5.649615993892159
 20
-66.80795571353612
 10
-5.103742787872523
 20
-67.05460506563348
 10
-3.0696584712214765
 20
-66.44700944931651
 10
2.816753866382
 20
-66.44700944931651
 10
2.2604463950852955
 20
-67.18260487371042
 10
0.31412602864387706
 20
-68.69824979875811
 10
0.2684042546297542
 20
-69.01638559575814
 10
4.338681264718473
 20
-74.71463857466873
 10
6.639021365065338
 20
-77.1379133574727
 10
6.670054444824721
 20
-78.26587562092882
 10
3.324293110124573
 20
-78.91677160152987
 10
0.6427688499907432
 20
-77.90966543941656
 10
-4.455194769038699
 20
-70.62188005486398
 10
-5.4573887270475785
 20
-70.00948447094797
 10
-5.817855495429917
 20
-70.68796156693477
 10
-5.789593769135378
 20
-75.1865011435092
 10
-5.121352852564739
 20
-77.35564256990826
 10
-5.233573275324778
 20
-77.8066892779562
 10
-7.121514348067825
 20
-78.86907512262098
 10
-11.461570135215453
 20
-78.7023759920304
 10
-11.817281884564908
 20
-78.5018770638332
 10
-12.351698876580766
 20
-77.46827236396506
 10
-11.209715713952832
 20
-76.01504529627626
 10
-10.872585751966424
 20
-74.97247704835458
 10
-10.856544424491632
 20
-62.381163081021604
 10
-11.110046071222012
 20
-60.374140244892736
 10
-12.316188513231477
 20
-58.93722163162318
 10
-12.247030355717976
 20
-57.99336706089158
 10
-10.524188282025822
 20
-57.24796667251433
 10
-2.158564322662114
 20
-57.25728416089385
 10
1.4487470581657689
 20
-58.413776060264496
 10
2.632101416921476
 20
-59.94700944931651
  0
LWPOLYLINE
  5
36
330
17
100
AcDbEntity
  8
CUT
100
AcDbPolyline
 90
29
 70
1
 10
-24.66037350564056
 20
-58.296486835063234
 10
-24.476204426844227
 20
-58.680063956996214
 10
-24.65787945144095
 20
-62.385097822822885
 10
-25.686133400010082
 20
-63.05994157284892
 10
-26.04851199725585
 20
-63.08061949602776
 10
-27.816624575002113
 20
-60.90830499199213
 10
-28.642174722636977
 20
-60.4730605165424
 10
-31.307989611700517
 20
-60.51719886533177
 10
-31.614448016770403
 20
-60.782743729196056
 10
-31.685885728598684
 20
-72.57821817469423
 10
-30.939004452795178
 20
-75.76342173173009
 10
-29.23128837358608
 20
-77.68064136891458
 10
-29.216359554045507
 20
-78.26160475505327
 10
-30.073762433435665
 20
-78.78101876122618
 10
-37.97995628384813
 20
-78.51936193721137
 10
-38.27684055496783
 20
-77.50077916404841
 10
-36.865712585489575
 20
-75.27256322870379
 10
-36.318096091193986
 20
-70.06064874897889
 10
-36.59753578561602
 20
-68.48896532268535
 10
-36.21725622587399
 20
-66.45348370739659
 10
-36.25927627653557
 20
-60.936291177898205
 10
-36.68182348253515
 20
-60.482685125727016
 10
-39.41646431814815
 20
-60.50379768852916
 10
-42.13126542280053
 20
-63.05263890101119
 10
-42.65835506775143
 20
-63.11764268747416
 10
-43.5959178703185
 20
-60.479368883581586
 10
-42.8879739705203
 20
-58.225459298230014
 10
-40.598864152370176
 20
-57.24161524037293
 10
-26.064992062378963
 20
-57.29807007547298
  0
LWPOLYLINE
  5
37
330
17
100
AcDbEntity
  8
CUT
100
AcDbPolyline
 90
32
 70
1
 10
-85.8299202575561
 20
-45.052818381932454
 10
-91.42579587643868
 20
-44.63695029639282
 10
-91.81142368057104
 20
-43.9301199407085
 10
-91.50453838700402
 20
-42.76531816391298
 10
-89.62833336705117
 20
-41.430519992448
 10
-88.85341105762538
 20
-39.95979886077768
 10
-84.07494579945883
 20
-27.755491163731776
 10
-84.07494579945883
 20
-32.511742599470885
 10
-82.2765737608796
 20
-32.511742599470885
 10
-82.71396345009354
 20
-33.82122460748169
 10
-82.42662821933908
 20
-33.95164290234291
 10
-78.96921059184714
 20
-33.70740783727812
 10
-79.40375116158239
 20
-32.511742599470885
 10
-77.57494579945883
 20
-32.511742599470885
 10
-77.57494579945883
 20
-21.965146244122533
 10
-70.55066980946367
 20
-40.353851776161726
 10
-69.80760682603817
 20
-41.73540629356191
 10
-67.77987134316393
 20
-42.91994100595622
 10
-67.67853520530264
 20
-44.335375196546806
 10
-69.40324141765495
 20
-45.024930261706565
 10
-76.70724703955041
 20
-44.82341134256004
 10
-77.01261725176957
 20
-44.53142798150849
 10
-77.4225776924656
 20
-42.93151801648537
 10
-75.85226312227043
 20
-41.97097901476905
 10
-76.95119165615048
 20
-38.4862353719966
 10
-77.55235350614774
 20
-37.47275415162362
 10
-78.30629618124279
 20
-37.201425496403985
 10
-83.2102297082449
 20
-37.19490622838473
 10
-84.18635056156357
 20
-37.431505440482766
 10
-85.79918916783286
 20
-41.718026795397634
 10
-83.92127068873039
 20
-42.88496869600109
 10
-83.95712074465526
 20
-44.50500729510218
  0
LWPOLYLINE
  5
38
330
17
100
AcDbEntity
  8
CUT
100
AcDbPolyline
 90
37
 70
1
 10
-123.38396450139474
 20
-44.76694945954987
 10
-130.24338681807188
 20
-24.465260717229405
 10
-130.92266875965467
 20
-23.339528660325
 10
-132.480728692552
 20
-21.986016394914817
 10
-132.63076663332478
 20
-21.580439230498737
 10
-132.0885041783222
 20
-20.44311178172215
 10
-130.9116997044173
 20
-20.05650696861459
 10
-125.20880110309264
 20
-20.160076208143913
 10
-124.95446020299711
 20
-24.312012369389812
 10
-124.55333233169631
 20
-25.190674595203006
 10
-123.60589751159353
 20
-26.172460724935657
 10
-120.62018488640892
 20
-35.427131367153336
 10
-117.31409249114337
 20
-26.541962565480297
 10
-117.95457533127066
 20
-24.442291171330776
 10
-117.71918486399834
 20
-23.09634798615289
 10
-117.81408845868421
 20
-20.428985811644104
 10
-114.78548247233161
 20
-20.43510201587614
 10
-112.48517075282012
 20
-20.10654222218842
 10
-112.51729442779185
 20
-23.936980474261084
 10
-109.39176084430514
 20
-33.86306920167348
 10
-108.67512769221318
 20
-35.511874922262685
 10
-107.55923968153819
 20
-32.82873986390249
 10
-104.67410178417589
 20
-23.65869956399612
 10
-105.1229319121454
 20
-23.16657841058603
 10
-105.08432474265176
 20
-20.08538198007307
 10
-98.9868077162483
 20
-20.566986037017767
 10
-98.6197879870211
 20
-20.83600435651915
 10
-98.80165606318707
 20
-22.237923936655033
 10
-100.66696026714438
 20
-23.508701084878478
 10
-101.59938384080371
 20
-25.24396982792858
 10
-108.98159045641316
 20
-45.06115362370427
 10
-110.60519737708846
 20
-45.12949574773246
 10
-111.72777770717524
 20
-43.794981595985725
 10
-114.97510984408406
 20
-34.00872049650609
 10
-115.87687063625202
 20
-32.13944586653726
 10
-120.39911182509046
 20
-44.30813225336928
 10
-121.75411560583512
 20
-45.34113339410398
  0
LWPOLYLINE
  5
39
330
17
100
AcDbEntity
  8
CUT
100
AcDbPolyline
 90
35
 70
1
 10
-44.10011936710093
 20
-42.97816970016244
 10
-44.1031180192483
 20
-44.04867375671016
 10
-45.02672081837002
 20
-44.9347110564103
 10
-52.80227165388656
 20
-45.0468249343715
 10
-54.26393497245703
 20
-44.34036203692901
 10
-54.503894063710035
 20
-43.9665478261772
 10
-54.227390827450655
 20
-42.78624522030577
 10
-52.509216640121224
 20
-41.91588328711175
 10
-52.09023657755439
 20
-41.235951270802424
 10
-52.22660688620846
 20
-23.89653102559182
 10
-55.85246830390214
 20
-23.785302660580633
 10
-56.97645806932772
 20
-24.779946102751314
 10
-58.045276901624035
 20
-26.89981217636482
 10
-59.024469614767874
 20
-27.354005498742268
 10
-59.431607782918
 20
-27.319573705612033
 10
-60.2441639780188
 20
-26.433158572006427
 10
-60.30301239388918
 20
-22.722122645884433
 10
-59.289686092168836
 20
-20.396424181283283
 10
-58.917212375279874
 20
-20.222494343024074
 10
-53.11624397345695
 20
-20.44001644479834
 10
-51.15656323518518
 20
-20.058126238335284
 10
-45.9956629583339
 20
-20.447195097995376
 10
-42.30658707896418
 20
-20.438337878441207
 10
-40.17069966550202
 20
-20.065247861698186
 10
-39.175404286254036
 20
-20.526417505040293
 10
-38.45174262667937
 20
-21.902379595906165
 10
-38.3720567413179
 20
-25.5860730594949
 10
-38.662392609513475
 20
-26.664113654191308
 10
-39.54396734094584
 20
-27.36132897135574
 10
-40.490083432480645
 20
-27.123135667501472
 10
-41.96719219595281
 20
-24.56695762403082
 10
-42.84178517126224
 20
-23.77938082882182
 10
-46.56477479043476
 20
-23.813448112946094
 10
-46.603139439278195
 20
-41.18817990303572
 10
-45.974911461444364
 20
-42.09346744837897
  0
LWPOLYLINE
  5
3A
330
17
100
AcDbEntity
  8
CUT
100
AcDbPolyline
 90
48
 70
1
 10
-17.260334331194127
 20
-41.82417598134986
 10
-15.466032036059117
 20
-41.574621636515744
 10
-14.56251306155848
 20
-41.95554520032372
 10
-12.647257146571894
 20
-41.959929774529265
 10
-10.986404582342331
 20
-41.006098969682746
 10
-9.005556335292727
 20
-39.0342994754366
 10
-8.765972711580222
 20
-39.626729971734655
 10
-9.720472982966143
 20
-43.78079559121091
 10
-10.536959987412109
 20
-44.73505313008393
 10
-10.873988402152575
 20
-44.89246961796614
 10
-25.740467670574617
 20
-45.05413714862055
 10
-27.61139329093343
 20
-44.4459261329541
 10
-27.81313456855971
 20
-44.041256873154936
 10
-27.676072780821666
 20
-42.906166248949
 10
-25.955399615602918
 20
-41.44954001871279
 10
-25.413931418614663
 20
-36.23856316815369
 10
-25.834221743219004
 20
-33.23278957458891
 10
-25.89888180893504
 20
-23.77222524773537
 10
-27.707135258435684
 20
-21.563066166082297
 10
-27.738970520714382
 20
-21.037088467057107
 10
-25.988593135272495
 20
-20.03272934204286
 10
-23.609150619892883
 20
-20.363110754205636
 10
-21.682934558618168
 20
-20.089565370254032
 10
-20.100618506535167
 20
-20.416207372311412
 10
-17.778005584936498
 20
-20.079059556775054
 10
-12.030436166743465
 20
-20.46260762844246
 10
-10.998923389844183
 20
-20.77530110344774
 10
-10.2718549253755
 20
-21.761396964084362
 10
-10.004695350911094
 20
-25.093855070394667
 10
-11.518171333952761
 20
-23.955856589564924
 10
-13.310949781410292
 20
-23.28193531618513
 10
-15.045009788601128
 20
-23.54745441519742
 10
-15.499524432745975
 20
-23.34790683759653
 10
-19.85223452348526
 20
-23.278991060168682
 10
-20.294665070685873
 20
-23.59957865601069
 10
-20.444334648475532
 20
-24.441684582590216
 10
-20.300170712537945
 20
-30.280832184618156
 10
-16.294918032508967
 20
-30.421653457957788
 10
-15.793221975660083
 20
-29.99618546676072
 10
-14.559956445218074
 20
-30.879171711899236
 10
-13.239254901012474
 20
-31.443222617539583
 10
-13.141665686363034
 20
-32.92189760056081
 10
-15.599322705044132
 20
-35.15664010672601
 10
-16.334252032225493
 20
-34.221059284016626
 10
-20.26900944369539
 20
-34.16956940042831
 10
-20.428313346911043
 20
-34.50634322781173
 10
-20.33481901469952
 20
-41.27910894244984
 10
-19.617445919779307
 20
-41.751542279025834
  0
LWPOLYLINE
  5
3B
330
17
100
AcDbEntity
  8
CUT
100
AcDbPolyline
 90
132
 70
1
 10
-68.41930971852922
 20
62.97395826446098
 10
-67.96673588387695
 20
66.66094094148963
 10
-68.01873851791083
 20
75.23165345199047
 10
-68.8871722986084
 20
79.53250461976971
 10
-70.4476146446274
 20
83.14418835051818
 10
-69.37663190884248
 20
84.0605763903178
 10
-66.52331560923858
 20
83.8694066475156
 10
-64.30560569668485
 20
82.70564224666643
 10
-62.639145772705284
 20
80.77145493152648
 10
-61.04686391205446
 20
77.0460040886804
 10
-60.4405295276615
 20
73.32550068628913
 10
-60.45327874969927
 20
68.725740403053
 10
-61.81402338277046
 20
60.43253126550159
 10
-64.47353208396622
 20
50.66222938699975
 10
-69.821172592397
 20
36.355687996891774
 10
-71.2868944388739
 20
33.21581200166297
 10
-72.51527897080015
 20
32.19905666201559
 10
-73.19025519762569
 20
30.695101049897943
 10
-74.07516652013878
 20
29.42879121768426
 10
-74.3269327460188
 20
28.429801128528084
 10
-75.1255501606595
 20
27.239169022418153
 10
-75.3782956357904
 20
26.225238476825634
 10
-75.97581784677985
 20
25.45397861449756
 10
-76.45144194211431
 20
23.83316649651501
 10
-77.02267937750608
 20
22.89986393127448
 10
-77.26929282785429
 20
21.979490004745095
 10
-77.24327595782978
 20
20.895853163403007
 10
-84.78190184992673
 20
7.788497008255769
 10
-90.8564542085216
 20
-0.9975323970000354
 10
-95.08312982091458
 20
-5.534201711316697
 10
-96.73634434280395
 20
-6.8294067563946665
 10
-99.75464733516749
 20
-8.374817421599388
 10
-102.19201039774687
 20
-8.951722944716762
 10
-105.15639021150373
 20
-8.329512889892031
 10
-108.24085906700587
 20
-6.673590464865805
 10
-110.8614337091627
 20
-2.7344178075569388
 10
-112.02400200655116
 20
2.263549502706833
 10
-112.07494732165611
 20
5.438627432123525
 10
-112.48568092164045
 20
7.496656859787963
 10
-112.04342682437108
 20
18.509716956007736
 10
-109.46460437187979
 20
34.60799659382207
 10
-109.38610457058263
 20
36.78408696910117
 10
-108.59648928074536
 20
40.23015483570191
 10
-131.00555600105042
 20
0.46061825560259023
 10
-135.84887587850022
 20
-7.023570280888812
 10
-138.68344550379237
 20
-10.807103050590248
 10
-141.937413896695
 20
-14.072390462318378
 10
-145.5542428057202
 20
-15.893258549746447
 10
-148.55261464478812
 20
-15.846119134428156
 10
-152.4075352306951
 20
-14.022092578938906
 10
-154.3808374497853
 20
-10.908679209383104
 10
-155.18331321842172
 20
-8.257289175173765
 10
-155.25767865523633
 20
-1.3913034241385769
 10
-153.44362989846277
 20
9.543430503174994
 10
-147.52744422798918
 20
31.192016548272502
 10
-144.83113712734158
 20
41.997184487135144
 10
-143.52217617354435
 20
49.049950080857435
 10
-143.08217022585978
 20
56.11649241821679
 10
-144.03756398241586
 20
61.78791229203538
 10
-144.82912631499713
 20
63.79749838293332
 10
-146.07848464248374
 20
65.37301582638678
 10
-148.01418653605472
 20
66.46582664269228
 10
-150.81874428217284
 20
66.5270595904399
 10
-152.9724221199935
 20
66.03008982483193
 10
-157.95772755888964
 20
64.00566239349925
 10
-163.09795162672216
 20
60.74631431566292
 10
-165.68384177951611
 20
58.65350022112934
 10
-170.5566133036381
 20
53.76468641141427
 10
-175.53226834895534
 20
46.262630499830706
 10
-177.36342103051726
 20
41.200936274224304
 10
-177.42460365868956
 20
36.364289892292646
 10
-176.64983344808616
 20
34.1998344226154
 10
-174.6718031871505
 20
32.15648161924373
 10
-171.9089525972804
 20
31.50391808039685
 10
-171.37482362060044
 20
31.044341259194297
 10
-171.29943215131715
 20
30.299624465959845
 10
-172.6809175005849
 20
29.18829242374658
 10
-175.879377603637
 20
29.041405859721202
 10
-179.29589438746711
 20
30.47371873477235
 10
-181.5255597017934
 20
32.60689123622364
 10
-183.50647969257983
 20
36.928036413356075
 10
-183.64534600527412
 20
40.89109697180415
 10
-179.7299379198691
 20
51.48939672539869
 10
-174.66652828492653
 20
59.05260899904271
 10
-170.59167650149047
 20
63.0991794716274
 10
-164.8460873744416
 20
67.36262983202036
 10
-158.28536100868604
 20
70.40320781870152
 10
-153.6123340425305
 20
71.79247184721856
 10
-150.1424539939412
 20
72.28570643552037
 10
-144.23675958723356
 20
71.79616542636721
 10
-142.27518626998383
 20
71.15145834032081
 10
-138.16232291021376
 20
69.08861473343521
 10
-135.5563514767517
 20
67.04874951866996
 10
-132.80446085530713
 20
62.1415445531332
 10
-131.63243763061976
 20
57.79553084192408
 10
-131.62615694732875
 20
50.03374284527775
 10
-132.02142092091722
 20
48.314121471613134
 10
-132.0957219255692
 20
44.87912336869586
 10
-135.6487913352742
 20
28.410749466069827
 10
-140.69646016495972
 20
10.226272178982647
 10
-142.92409732589664
 20
0.005094343318209537
 10
-143.81433649150347
 20
-6.381568444799533
 10
-143.49970379604255
 20
-7.244575407943084
 10
-141.60640973404867
 20
-5.660790102121925
 10
-139.58658812808054
 20
-3.1206564047480687
 10
-130.02387335414136
 20
12.094416941795116
 10
-120.53827934561025
 20
28.772785393448274
 10
-118.12890608933908
 20
32.37057671083923
 10
-108.32388300342508
 20
50.6375384472997
 10
-103.79964070471925
 20
60.424626551830315
 10
-102.10223498351088
 20
61.7282581908592
 10
-100.16078121475148
 20
61.80761960524935
 10
-98.33992945007743
 20
61.20155511080214
 10
-96.42611584521525
 20
59.96675914135362
 10
-95.17659449640188
 20
58.37946472744989
 10
-94.55028439554835
 20
56.44818872052439
 10
-94.53655403624838
 20
51.46791222226257
 10
-95.79023370946155
 20
45.20241760224455
 10
-97.14869950724497
 20
34.94364039431969
 10
-99.70491866052248
 20
19.970069632130325
 10
-99.75964763035182
 20
17.134614663529916
 10
-101.03511289992746
 20
7.513900135655215
 10
-101.0375251044186
 20
2.1186265863645404
 10
-100.58979674910678
 20
-0.3094355734642547
 10
-100.01741664917394
 20
-1.4679249836456187
 10
-99.47667141070515
 20
-1.6808277901123245
 10
-96.9707837520697
 20
0.14874162071314395
 10
-93.49697093417703
 20
4.464114979242884
 10
-87.12224467235606
 20
14.032242030014954
 10
-82.47102705762883
 20
22.537418984476478
 10
-74.99520923615202
 20
39.636320862190644
 10
-70.61696744568053
 20
52.82569736614239
  0
LWPOLYLINE
  5
3C
330
17
100
AcDbEntity
  8
CUT
100
AcDbPolyline
 90
200
 70
1
 10
20.7578852733874
 20
45.41564552380326
 10
14.852801539404815
 20
36.273082754675684
 10
9.931007892566761
 20
29.625096253750943
 10
8.596513775052458
 20
19.570191288433325
 10
8.227195901089134
 20
12.998309336946484
 10
8.330429960829132
 20
11.59352043528316
 10
8.044507898929412
 20
10.637917777674911
 10
8.024748561492244
 20
9.672226085265086
 10
9.247670770448064
 20
5.813461612542392
 10
10.011706383173902
 20
5.258420020348986
 10
11.402658025360552
 20
5.580642369257446
 10
14.757606290304736
 20
2.8954950753020916
 10
12.575745902818499
 20
0.7127040352220897
 10
10.31590392931031
 20
-0.49850248388886775
 10
5.800688931151014
 20
-0.6112457915956874
 10
3.0429937615824763
 20
1.3544788361466686
 10
1.2853560081441529
 20
4.914551845007507
 10
2.1099502132378394
 20
6.463749028785003
 10
2.926483213395489
 20
9.959657200582836
 10
4.22019415599305
 20
10.51376272146996
 10
-0.8561145057164332
 20
22.36579417775672
 10
0.5393949267684867
 20
26.116209476965356
 10
0.507909423184829
 20
29.2201700356364
 10
-0.46087093178593513
 20
30.39592789197159
 10
-0.8255018475853529
 20
30.486425788663443
 10
-1.8616149209208088
 20
29.881203168719694
 10
-4.712532230927114
 20
26.799593655572647
 10
-7.939711141704068
 20
20.287024965412535
 10
-9.72427998379498
 20
14.449444465625326
 10
-10.199634796269955
 20
11.950955453746738
 10
-10.206810232362981
 20
8.763662474657702
 10
-9.68425483837428
 20
7.940546912202863
 10
-9.046532988279845
 20
8.146837594266284
 10
-6.422766106089192
 20
11.258237735063116
 10
-4.629941304985933
 20
14.66737842451021
 10
-3.748259634022676
 20
12.608851334242814
 10
-4.292038984134926
 20
11.443134280616203
 10
-5.079067226661414
 20
8.218180061577222
 10
-5.183627394435148
 20
7.257962353179569
 10
-4.934285319189324
 20
6.072392361163519
 10
-5.827761094469419
 20
4.975937901725144
 10
-9.00237169655152
 20
2.062553790879267
 10
-11.376163808469686
 20
1.1661877668117469
 10
-13.054993030565642
 20
1.1512601122080424
 10
-15.002013012587728
 20
1.8809400225454969
 10
-17.387839183048495
 20
3.8635684823139207
 10
-18.677429971695094
 20
7.6923593448635685
 10
-18.3344591573141
 20
9.157803560530608
 10
-18.31676492567674
 20
13.496841656161871
 10
-18.64528565966847
 20
14.958960315430907
 10
-18.055901612990304
 20
17.902018727004442
 10
-17.019859524078917
 20
21.050168345244035
 10
-17.127131174536142
 20
21.28361009902552
 10
-21.381336483622132
 20
20.058739255659926
 10
-22.2001858818303
 20
17.623937720714654
 10
-25.997759594571278
 20
18.901101754291215
 10
-25.691979374586104
 20
19.959066710922173
 10
-25.923404800633506
 20
20.604605739397634
 10
-29.707868061061642
 20
21.85867260754854
 10
-31.061918796473606
 20
22.800183099235294
 10
-32.00918561717351
 20
23.886858158234947
 10
-35.04733650349584
 20
18.001810368504472
 10
-35.927314864672475
 20
15.30197663073484
 10
-36.59945415323551
 20
8.198139676429989
 10
-36.366446725012956
 20
6.238409826677624
 10
-35.39547718132734
 20
5.272472408059949
 10
-34.06138873105941
 20
5.8290154090025235
 10
-30.835125805878064
 20
9.132272322244496
 10
-28.515349447690458
 20
12.890047992226348
 10
-25.723130285410914
 20
11.950995281817526
 10
-25.68489608857012
 20
8.799751166683839
 10
-27.16133151428138
 20
6.016382325824398
 10
-30.442437106257564
 20
2.2930502973308515
 10
-32.786135562704224
 20
0.8412043636282982
 10
-35.37116226109262
 20
-0.14198060329425277
 10
-38.26209299362825
 20
-0.24131167207820975
 10
-40.74439846597602
 20
0.5667846639756802
 10
-43.53037790264771
 20
2.9130835413510154
 10
-45.123493498278705
 20
6.098714698448105
 10
-45.392168925168654
 20
7.757161660532776
 10
-45.010296254742116
 20
9.338102718955062
 10
-45.01524631213624
 20
12.947304047405487
 10
-45.51044131627208
 20
14.789292784840276
 10
-44.05301736513761
 20
21.22431273425825
 10
-48.16342740052673
 20
19.989067288405987
 10
-49.073684722521286
 20
17.309415703776203
 10
-52.94853307515415
 20
18.625672304012507
 10
-52.738778196656526
 20
19.192459532189325
 10
-53.04370155641794
 20
20.456421959634202
 10
-56.913540874349664
 20
22.124754217947615
 10
-58.88522276218708
 20
23.59012409687572
 10
-61.678092294322504
 20
18.457655485207944
 10
-62.96222305347013
 20
14.18237046654239
 10
-63.44860521792064
 20
11.351396787965191
 10
-63.39985478633208
 20
6.444431336991653
 10
-62.96690784690735
 20
5.260327501224003
 10
-62.55471837986935
 20
5.0178564310713245
 10
-60.70265703970782
 20
5.826133526775783
 10
-57.10809193965628
 20
9.905465926231221
 10
-55.602480788038996
 20
12.662413650879062
 10
-52.41337676471585
 20
11.579099198924572
 10
-52.36485570804419
 20
8.98647095775222
 10
-54.10352128416032
 20
5.770500324467386
 10
-56.59957766114781
 20
2.6958530839419423
 10
-59.85227651509456
 20
0.40774863442391546
 10
-62.91127601496159
 20
-0.5869366145703424
 10
-64.79617977106014
 20
-0.6809704766715101
 10
-66.81003727659592
 20
-0.16130586524362753
 10
-68.68696745009424
 20
0.7139906969463399
 10
-70.21839039000487
 20
2.086223185709019
 10
-71.5900605824409
 20
4.399804705663824
 10
-72.68556249645216
 20
7.640577586474545
 10
-72.70946098812513
 20
12.750698047412808
 10
-71.59707067504714
 20
18.494721025950675
 10
-70.75477939177688
 20
19.281090187260077
 10
-70.27835879017368
 20
20.10627487500933
 10
-70.0139022646922
 20
21.29888152112446
 10
-69.44266482930044
 20
22.232184086364985
 10
-69.18991935416955
 20
23.246114631957504
 10
-68.59239714318011
 20
24.01737449428558
 10
-68.12946334744709
 20
25.44457005530918
 10
-67.54201350265939
 20
26.206996689551687
 10
-67.13229030758404
 20
27.31397308578751
 10
-66.24737898507095
 20
28.58028291800119
 10
-65.98125059074796
 20
30.15575753882007
 10
-63.329548024489355
 20
32.82447544118749
 10
-58.393413818248405
 20
35.846870473692704
 10
-55.71390616716999
 20
36.40102677196027
 10
-53.10212189316578
 20
35.73654403873638
 10
-50.22142308949361
 20
34.109817800910754
 10
-48.89990651160056
 20
32.22056909487691
 10
-48.558333187885474
 20
31.260863096922968
 10
-52.80985479510622
 20
31.088060996766746
 10
-53.28515278116279
 20
31.5154479623504
 10
-54.112711587794
 20
31.508894441858473
 10
-55.3868048637139
 20
30.125507273555748
 10
-55.54560827318508
 20
27.108301400349337
 10
-54.75846365582642
 20
25.751548510738107
 10
-53.54758225290998
 20
24.97953122234773
 10
-53.530262794116126
 20
24.553413407686495
 10
-52.72109946782553
 20
24.45259357419702
 10
-47.7143513330054
 20
24.789799767124414
 10
-47.07034900529013
 20
23.982808685051488
 10
-44.9273378177631
 20
24.347902457153857
 10
-42.463181605639974
 20
25.406052067310227
 10
-37.66141234132917
 20
31.854987227711284
 10
-35.327501742259514
 20
33.60785282271072
 10
-30.87498525616431
 20
35.987637213694065
 10
-27.12866212098412
 20
35.96318449248955
 10
-23.928049580207507
 20
34.395327877531
 10
-22.948703733403395
 20
33.46690916210461
 10
-22.212336754200624
 20
32.050917572302026
 10
-26.286223055029534
 20
31.05080175913364
 10
-26.53038001301586
 20
31.42558729942853
 10
-27.806693405688424
 20
31.298345600559777
 10
-28.88970061050991
 20
29.348795453778894
 10
-28.3999133585048
 20
26.500195925810687
 10
-26.864477306270842
 20
25.04345849470916
 10
-26.057669258362807
 20
24.799865065358667
 10
-25.968304456694042
 20
24.435845182359998
 10
-25.35261507552921
 20
24.586993408067112
 10
-24.950362174560528
 20
24.465544243216545
 10
-24.763872516156678
 20
24.731526342968582
 10
-20.636386201509154
 20
25.744800653318187
 10
-20.53084458954519
 20
24.314019639220763
 10
-17.28464927279935
 20
24.808167564465144
 10
-15.523020731798647
 20
25.499370788958554
 10
-10.995732794669726
 20
31.864554768702796
 10
-6.129738670752867
 20
34.919149078181874
 10
-4.107125806403298
 20
35.570862588873815
 10
-2.1079161044205987
 20
35.5914397724113
 10
1.2961949695369877
 20
34.20472746978312
 10
3.3230255304392062
 20
43.16407541634737
 10
5.560244603972292
 20
50.361992206695064
 10
9.480267174849454
 20
60.03336046230193
 10
12.578260464780639
 20
65.78297681339681
 10
15.566010452917066
 20
70.22197621402823
 10
19.364795958742718
 20
74.01344781249574
 10
22.061744229282947
 20
75.31514638176174
 10
25.151359012217434
 20
75.1771856590144
 10
26.53968664691426
 20
74.40432702166251
 10
27.758242608518913
 20
73.16107123119887
 10
29.035500252811428
 20
70.42275407407901
 10
28.884529968672698
 20
65.53888840477556
 10
28.044827449247695
 20
64.41401691066896
 10
24.511824321971176
 20
56.66137845231766
 10
22.079014977213294
 20
57.87183206887548
 10
22.819078744607527
 20
59.70703731152936
 10
24.55046837074399
 20
65.40428687111739
 10
24.313975991783487
 20
68.35764046173118
 10
21.962606936578904
 20
65.71285132259501
 10
18.83440523161097
 20
59.45220055877649
 10
15.645782016838432
 20
51.73795896526486
 10
12.275272411357461
 20
39.52665921881207
 10
15.996474087545275
 20
45.14040133410212
 10
19.39793383602504
 20
51.94569014575152
 10
22.307527545275548
 20
50.49801064071137
 10
22.104786817482957
 20
49.54791488320748
 10
21.410885652877933
 20
48.197633951952085
 10
21.351406324847964
 20
46.60727769747386
  0
LWPOLYLINE
  5
3D
330
17
100
AcDbEntity
  8
CUT
100
AcDbPolyline
 90
24
 70
1
 10
-13.073695630998937
 20
97.7071841132943
 10
-10.850607254221147
 20
93.35559866306535
 10
-8.272295545249788
 20
86.51049951345558
 10
-7.582200451697893
 20
83.24018446201002
 10
-8.006213573528672
 20
82.38843669751184
 10
-8.5919163451749
 20
82.12016999080095
 10
-9.23195082520867
 20
82.19345455269143
 10
-13.648240683545827
 20
84.68044888469612
 10
-19.97801780852779
 20
87.41963692084241
 10
-28.33539634843792
 20
89.73619346857105
 10
-35.9420808815689
 20
90.38350175756436
 10
-37.465194774444605
 20
89.95964932968683
 10
-38.28646687394826
 20
90.46983642605608
 10
-39.854944226367294
 20
102.93804331529492
 10
-39.85868931636345
 20
119.52358046573616
 10
-39.577200093128546
 20
121.60625796548975
 10
-39.834887969411135
 20
126.02829572525498
 10
-39.7124143997822
 20
126.63133763450462
 10
-39.307144445693
 20
127.09438793833958
 10
-38.415847434792724
 20
127.27841580118604
 10
-37.65173875661935
 20
126.7840328080686
 10
-35.399873286043395
 20
123.57422387472164
 10
-23.371739141742395
 20
111.41966997847103
 10
-17.824222902517104
 20
104.59647632454876
  0
LWPOLYLINE
  5
3E
330
17
100
AcDbEntity
  8
CUT
100
AcDbPolyline
 90
25
 70
1
 10
-142.8265359357973
 20
124.7174732956534
 10
-134.63996231091642
 20
133.32950323922194
 10
-128.59853294596752
 20
138.20026643992176
 10
-127.72280262960868
 20
138.4597936671937
 10
-127.14532183534835
 20
138.24072229484358
 10
-126.66207167134206
 20
137.46565633140992
 10
-126.86435301093749
 20
136.5749598464405
 10
-130.43804634350687
 20
132.39524897307265
 10
-133.63050371789654
 20
126.88125439227544
 10
-135.93564021755935
 20
121.36912994006285
 10
-137.72132055142032
 20
115.98356744321832
 10
-139.26170521062008
 20
109.58775450001973
 10
-141.81727649526732
 20
102.40211478427071
 10
-144.44495374030365
 20
97.61724784549789
 10
-147.59463864507094
 20
93.60152802684829
 10
-153.08513910279353
 20
88.55255035974088
 10
-156.96290041848178
 20
85.93944773199725
 10
-164.69830374344374
 20
82.44367426859483
 10
-165.28913840476912
 20
82.48619422846083
 10
-165.78764693771072
 20
82.80616733138494
 10
-166.11024562439212
 20
83.62170821103624
 10
-163.95421833563276
 20
87.91929445601983
 10
-161.100924852682
 20
94.90080635701413
 10
-156.5444782436112
 20
103.9926483063666
 10
-151.63351410161934
 20
112.43072335728363
  0
LWPOLYLINE
  5
3F
330
17
100
AcDbEntity
  8
CUT
100
AcDbPolyline
 90
100
 70
1
 10
-80.54487215834381
 20
161.84699100215772
 10
-80.83275308042063
 20
162.38602535911522
 10
-80.81785373685715
 20
162.99693572311125
 10
-80.50403795645018
 20
163.5212954462441
 10
-79.66720781541909
 20
163.86318536947581
 10
-75.09395496083025
 20
163.870839214077
 10
-71.703573284717
 20
163.0792409355321
 10
-69.3657915041904
 20
162.2014281099733
 10
-67.16414907773535
 20
160.84530943260904
 10
-64.64424411060969
 20
158.38072412477104
 10
-62.4869926621371
 20
155.05771714572228
 10
-61.912515356983974
 20
152.7810404400579
 10
-61.914105498769715
 20
147.58530723880412
 10
-63.18848634464268
 20
138.445324086331
 10
-62.17048635428913
 20
130.28482253125628
 10
-60.81597000878956
 20
124.89042451735881
 10
-59.70772427751073
 20
121.99632980188139
 10
-55.94880814035373
 20
106.81356574396567
 10
-54.34834046935615
 20
102.67981543344044
 10
-47.677796611907254
 20
89.73599540572427
 10
-47.49464851625965
 20
89.03015665678662
 10
-47.84552586082659
 20
88.16494358394216
 10
-48.68104916131152
 20
87.77696726323438
 10
-49.533039979722794
 20
87.87289113334415
 10
-52.40000903453503
 20
90.31688713313343
 10
-57.06858039097047
 20
92.64305625244455
 10
-61.96004079156273
 20
94.0993340082835
 10
-67.16962528218798
 20
94.6218351184349
 10
-70.97299675056983
 20
94.05967208713481
 10
-77.29646102633713
 20
92.26778405913582
 10
-83.6823228345935
 20
89.37141776636486
 10
-91.97448670320284
 20
86.35205279893921
 10
-96.63464473935446
 20
85.08570098037846
 10
-103.4716378786717
 20
84.07614337876146
 10
-108.34911688324564
 20
82.91231228195717
 10
-111.94052946106255
 20
83.27918261329711
 10
-118.05348603131725
 20
83.13475121219054
 10
-128.56034524113863
 20
85.04368493398734
 10
-136.54464289895535
 20
87.09254989338021
 10
-139.75760147969822
 20
87.55048279177551
 10
-140.4113118913177
 20
88.20334829638131
 10
-140.4907473711653
 20
88.82324401349211
 10
-140.2477039227066
 20
89.3990135661017
 10
-133.74083806838632
 20
95.86481566635774
 10
-129.6485412557047
 20
100.85945309281367
 10
-125.78082702034604
 20
106.38206753829739
 10
-116.83270294611583
 20
115.38072360011202
 10
-110.99650716550694
 20
122.69160275053204
 10
-108.76674327887575
 20
126.67328259098873
 10
-107.08157671379115
 20
131.30942849606575
 10
-104.64243194688873
 20
132.06568654484198
 10
-102.22201673772557
 20
133.35942542776436
 10
-100.10050506338834
 20
135.10050506338834
 10
-98.49854089492995
 20
137.0210148081908
 10
-97.03099030315815
 20
130.03313284840007
 10
-99.62227861141831
 20
127.26603933112403
 10
-101.15220701269891
 20
122.05841319975896
 10
-100.45436116043733
 20
118.10468809141761
 10
-98.41635510986569
 20
114.91768186214168
 10
-97.73366235635461
 20
112.28720799286715
 10
-96.34307048817382
 20
110.92712719324017
 10
-93.40994688635678
 20
109.91508301843945
 10
-91.3685432735497
 20
109.74337384051587
 10
-88.19947459261093
 20
110.36633992284992
 10
-85.27657498034856
 20
111.66112233565148
 10
-83.71523836463795
 20
113.90886114706878
 10
-84.24219715107665
 20
115.9476297215106
 10
-83.6285173607964
 20
117.40792189679856
 10
-83.10870342852196
 20
119.83947141460115
 10
-83.22939326503098
 20
124.13543322801797
 10
-84.35932747909636
 20
127.43943715274243
 10
-85.96559485660046
 20
129.65780042671076
 10
-87.6772848909545
 20
130.83010180972406
 10
-89.8670024913607
 20
131.6760217557929
 10
-91.39013001314582
 20
139.19566029671378
 10
-90.89564485153086
 20
139.24012116036687
 10
-85.52649349950154
 20
136.7569359226481
 10
-85.17658768273719
 20
136.29681027645287
 10
-84.83145491851589
 20
134.50829543481083
 10
-83.9478561901238
 20
132.2215596583625
 10
-82.44553694361666
 20
129.98490854546327
 10
-79.98825075851877
 20
127.82654175243191
 10
-78.25128610329527
 20
126.99665393713083
 10
-74.44712981100851
 20
126.36899578733617
 10
-69.87749268268895
 20
127.29571545751405
 10
-68.24507235465795
 20
128.26711272353037
 10
-65.73896175749873
 20
132.67881797098025
 10
-65.76798234434304
 20
138.41912600851288
 10
-66.68742025142882
 20
140.14445058885457
 10
-70.45465707180941
 20
143.8208786294102
 10
-73.58270351691614
 20
145.44538149045343
 10
-74.76000338914297
 20
145.6226667109847
 10
-75.45868880399804
 20
146.26448571632812
 10
-75.47291393486219
 20
147.21311134859994
 10
-73.96726289426708
 20
150.99983914929803
 10
-73.9829006368919
 20
155.1278644404883
 10
-74.54593646585573
 20
157.1356048116123
 10
-75.8387677199854
 20
158.86529930952085
 10
-78.29567774260718
 20
159.91233754541315
 10
-79.31456671952111
 20
161.01149458493896
  0
LWPOLYLINE
  5
40
330
17
100
AcDbEntity
  8
CUT
100
AcDbPolyline
 90
33
 70
1
 10
-35.23515624696553
 20
155.2876261097447
 10
-34.726983228936774
 20
155.65081366028767
 10
-33.38222672642456
 20
155.93335551529606
 10
-32.02247951462979
 20
157.2210419416486
 10
-31.76460177480438
 20
159.06662502741764
 10
-31.098586210359553
 20
160.05931942080548
 10
-30.405349197003076
 20
162.2151848868288
 10
-31.424248210408578
 20
164.7370993304137
 10
-31.67497545762501
 20
166.72167682798118
 10
-31.26409377859046
 20
167.50373720371428
 10
-30.729003151705086
 20
167.76803750711125
 10
-30.1327708848535
 20
167.7418895947407
 10
-29.173827028319742
 20
166.971488867319
 10
-27.877867932560903
 20
164.90085624347932
 10
-24.729373102971525
 20
157.06727890116133
 10
-22.09815485461127
 20
153.4467197736477
 10
-16.1634929225206
 20
147.45504353870254
 10
-14.11420968772916
 20
144.40984758744057
 10
-6.0864319794115875
 20
124.44107522540101
 10
-3.8291772804774014
 20
115.8959463123549
 10
-3.5569467288951615
 20
114.2037429596229
 10
-3.791377816383257
 20
113.28568251132502
 10
-4.304216722557673
 20
112.90035834852911
 10
-4.942267440523978
 20
112.83425437419147
 10
-5.738354010945284
 20
113.3481017191341
 10
-6.510500603964373
 20
115.5047195021769
 10
-10.876525970656814
 20
124.69295337629217
 10
-17.16782203091849
 20
135.03474194209852
 10
-24.20960060651923
 20
144.808138251585
 10
-28.100736581407137
 20
148.7189249500235
 10
-30.672693436321385
 20
150.7853504145018
 10
-35.46649400801327
 20
153.72931197448682
 10
-35.62302742730627
 20
154.5870208880286
  0
LWPOLYLINE
  5
41
330
17
100
AcDbEntity
  8
CUT
100
AcDbPolyline
 90
14
 70
1
 10
-48.199123674771734
 20
164.98844085084914
 10
-47.83520900391239
 20
160.88144278048037
 10
-47.967710316755074
 20
160.23264847971683
 10
-48.42415956168852
 20
159.7529144602769
 10
-49.39520446136111
 20
159.64426890734967
 10
-56.769570445555736
 20
162.01525895849392
 10
-60.97591363509587
 20
164.42535979409706
 10
-61.29369997886416
 20
164.9813153000287
 10
-61.28031216589815
 20
165.62154607976782
 10
-60.93956269840828
 20
166.163730997731
 10
-60.368488194795646
 20
166.4534698390777
 10
-56.098695295290504
 20
167.31643539057
 10
-52.326352935737354
 20
167.2885651079395
 10
-49.51211969938672
 20
166.22310122266393
  0
LWPOLYLINE
  5
42
330
17
100
AcDbEntity
  8
CUT
100
AcDbPolyline
 90
15
 70
1
 10
-68.05265572033821
 20
171.79500414027953
 10
-68.42653447461937
 20
172.30610536734656
 10
-68.48819879966248
 20
172.93634920764111
 10
-68.22047647472857
 20
173.51022597485183
 10
-67.69792255020216
 20
173.8679230298779
 10
-59.06177395129873
 20
176.85733399229176
 10
-49.40595002208433
 20
179.28346409505872
 10
-48.47739779503945
 20
179.13668508431965
 10
-47.93957855926779
 20
178.365644368159
 10
-47.97883456007934
 20
177.730589117827
 10
-48.60752036710546
 20
177.03165602203924
 10
-53.93466667709497
 20
174.56363936475128
 10
-59.551849345690755
 20
172.84302797780674
 10
-63.90621265281602
 20
171.9642950453379
 10
-67.4706799254978
 20
171.54537649471092
  0
LWPOLYLINE
  5
43
330
17
100
AcDbEntity
  8
CUT
100
AcDbPolyline
 90
19
 70
1
 10
67.49782904207962
 20
-151.2272550657717
 10
68.41306860850376
 20
-151.3461856470642
 10
68.8537632989899
 20
-151.78838170234576
 10
69.01268638856027
 20
-152.39211393863155
 10
67.7648291230608
 20
-156.9990951509121
 10
65.76880832571783
 20
-161.08277415836014
 10
62.172819816672046
 20
-166.90992080598932
 10
58.961660478678674
 20
-170.59400652983607
 10
55.163692036864305
 20
-173.93860666253923
 10
54.24577079859715
 20
-174.55021088472688
 10
53.62772641989041
 20
-174.61296024980572
 10
53.061121896659984
 20
-174.3582532590818
 10
52.69780579977976
 20
-173.85435073813505
 10
52.72524193139388
 20
-172.9362400915837
 10
53.98193181669722
 20
-171.29223688843177
 10
57.51726967714257
 20
-164.35535146352726
 10
59.20693219828152
 20
-160.2429618176369
 10
62.27995035280577
 20
-155.3975427687324
 10
65.29325811540704
 20
-152.4671366703085
  0
LWPOLYLINE
  5
44
330
17
100
AcDbEntity
  8
CUT
100
AcDbPolyline
 90
33
 70
1
 10
61.82366742232935
 20
-142.38790356080867
 10
62.07842984229751
 20
-142.81089038105415
 10
62.08672765328856
 20
-143.43811584447204
 10
61.777416907165936
 20
-143.98383326032027
 10
60.22710613777766
 20
-144.9702117121656
 10
55.847591408462705
 20
-149.19734832139022
 10
50.87999394893407
 20
-152.7372697208397
 10
43.62102559308868
 20
-156.390156606428
 10
35.42983428272036
 20
-159.8299669251699
 10
20.90217416631801
 20
-165.12341851852514
 10
15.950992868859517
 20
-166.47166108020798
 10
9.505675756676935
 20
-167.75957591993807
 10
4.732689100539972
 20
-168.23098940216474
 10
2.9227824364109187
 20
-168.19529412313898
 10
2.370600509455414
 20
-167.8625799128076
 10
2.070276311483239
 20
-167.29213359427703
 10
2.2550275423426056
 20
-166.35812524825994
 10
2.749911776204809
 20
-165.9449748866634
 10
9.309323790154354
 20
-162.98200418163978
 10
16.101004447678815
 20
-158.91850950877733
 10
29.142100122265518
 20
-149.6170891075583
 10
32.956253368644276
 20
-147.24734326377083
 10
39.49996929910081
 20
-144.00789196380234
 10
44.59409332163332
 20
-142.30793249860147
 10
47.909264627381404
 20
-141.63189180094912
 10
50.03144948656934
 20
-140.7351675943522
 10
52.656794266481285
 20
-140.9461434913069
 10
54.21925013187314
 20
-141.82611707918664
 10
55.69030199063378
 20
-141.94511168588565
 10
56.57061247600957
 20
-142.30974822802756
 10
58.344537843478065
 20
-142.33271338921486
 10
59.66363932977733
 20
-142.77595751189622
 10
60.61648053298371
 20
-142.77595751189622
  0
LWPOLYLINE
  5
45
330
17
100
AcDbEntity
  8
CUT
100
AcDbPolyline
 90
14
 70
1
 10
91.71356660825066
 20
-142.98428842856887
 10
92.54084972008314
 20
-144.8688160664301
 10
92.54432136052431
 20
-148.11232402694583
 10
91.92871236107462
 20
-149.62851293775145
 10
90.52809644309433
 20
-150.79815700389128
 10
89.69064140120682
 20
-150.7292481365054
 10
86.5598863993305
 20
-149.26457923227784
 10
84.16840653718991
 20
-148.89807164726258
 10
83.50340001091321
 20
-148.2046625571651
 10
83.3478357389526
 20
-146.41481582363184
 10
84.22869547767229
 20
-144.032975925896
 10
85.5698995372994
 20
-142.52796972523242
 10
86.56741979308754
 20
-141.94457306772554
 10
90.26388621414586
 20
-141.5739613615783
  0
LWPOLYLINE
  5
46
330
17
100
AcDbEntity
  8
CUT
100
AcDbPolyline
 90
22
 70
1
 10
114.23045120660753
 20
-141.87718298253475
 10
107.74540452977931
 20
-151.06328826007064
 10
100.8043987852286
 20
-157.19232035992886
 10
99.89405480230637
 20
-157.26278747838847
 10
99.37531858539454
 20
-156.92794070484695
 10
99.09173066146482
 20
-156.37949971997398
 10
99.11836495134386
 20
-155.76265270564238
 10
101.03130376901241
 20
-149.6430017194124
 10
101.66814371509325
 20
-144.7234807142791
 10
102.97955465995483
 20
-138.98797075413393
 10
104.20782797803115
 20
-135.25957967695734
 10
105.6730443194543
 20
-132.24029605021198
 10
108.40484423889926
 20
-128.07791861778898
 10
109.78551760588101
 20
-126.63451908213763
 10
116.28372129422152
 20
-122.39897985485425
 10
116.89669999749876
 20
-122.20502888255949
 10
117.52181539943646
 20
-122.3553305944119
 10
117.97962470733782
 20
-122.80674006254964
 10
118.13871125721121
 20
-123.4296777319636
 10
118.01680891266079
 20
-129.18893423260056
 10
117.59652463026339
 20
-131.93784876256183
 10
115.4065781534077
 20
-139.46111919579263
  0
LWPOLYLINE
  5
47
330
17
100
AcDbEntity
  8
CUT
100
AcDbPolyline
 90
24
 70
1
 10
82.64460443822824
 20
-112.6271519486417
 10
91.63146993043127
 20
-110.8339028204851
 10
94.6261695848659
 20
-110.83909612925737
 10
96.3516721779931
 20
-111.10174989519639
 10
96.89543797800401
 20
-111.33680482029742
 10
97.260497698353
 20
-111.80334899146932
 10
97.35788525514569
 20
-112.3876842778056
 10
97.16386702600485
 20
-112.94740652127716
 10
93.3033907144811
 20
-116.64645646800406
 10
89.22274746866422
 20
-122.39702923730144
 10
86.68527727435247
 20
-124.9712934938104
 10
83.31243463833621
 20
-127.92144824173144
 10
80.28308700993408
 20
-129.97039561859938
 10
75.54602600077133
 20
-132.3393206634102
 10
68.60375783145271
 20
-134.94895340944467
 10
62.38805129880277
 20
-136.28425612047153
 10
61.08474944600472
 20
-135.6315545019267
 10
59.31082407853623
 20
-135.6085893407394
 10
57.99172259223696
 20
-135.16534521805804
 10
57.03888138903058
 20
-135.16534521805804
 10
55.83364123838521
 20
-134.70104628550789
 10
64.63001560133848
 20
-124.1686156375777
 10
69.44303528467076
 20
-119.83619190854985
 10
76.64580269155852
 20
-115.16049818383509
  0
LWPOLYLINE
  5
48
330
17
100
AcDbEntity
  8
CUT
100
AcDbPolyline
 90
20
 70
1
 10
140.49175429381668
 20
-104.3200137821447
 10
140.93889302526554
 20
-99.93785756040958
 10
143.1074404753966
 20
-90.31542281535694
 10
147.55722548143166
 20
-82.30001927437897
 10
153.13351419965576
 20
-76.31294719879324
 10
153.69629110999128
 20
-75.97299023597027
 10
154.35373348845735
 20
-75.98061298976778
 10
155.09258584003143
 20
-76.60972195810517
 10
155.55391096225122
 20
-79.00139395358833
 10
155.57148537294404
 20
-87.97672627233055
 10
153.83974301774705
 20
-96.17342144733693
 10
152.5755200985747
 20
-100.03684074998091
 10
149.20177847917142
 20
-107.76378364454206
 10
144.226374814028
 20
-115.89769246422985
 10
141.75093814539895
 20
-119.2317635797114
 10
140.82793546791402
 20
-119.47786199283328
 10
140.23773198547875
 20
-119.21309179137194
 10
139.87072583557182
 20
-118.68040999499523
 10
139.83356375774443
 20
-118.03460631721678
 10
140.47016632339188
 20
-115.05619777771565
  0
LWPOLYLINE
  5
49
330
17
100
AcDbEntity
  8
CUT
100
AcDbPolyline
 90
25
 70
1
 10
139.4131944967898
 20
-74.36645167979533
 10
134.49009698263794
 20
-78.83881598009862
 10
129.14800701611617
 20
-82.38838339309864
 10
121.66153676103173
 20
-86.11919608446722
 10
113.50699479926226
 20
-89.14013074640161
 10
108.9737383113522
 20
-90.34596869159817
 10
101.3614293575331
 20
-93.04663472157034
 10
98.6886238333195
 20
-94.33639226060421
 10
98.06174042633675
 20
-94.29684264973712
 10
97.54071752449902
 20
-93.94601204470015
 10
97.25204345725564
 20
-93.06360477148436
 10
98.08102890353669
 20
-91.59507700574018
 10
107.2677939500972
 20
-79.79376630494693
 10
112.27900381929187
 20
-74.7699433050917
 10
114.99643133830983
 20
-72.85314074252031
 10
117.55861125213089
 20
-70.43832359695786
 10
121.55645679523329
 20
-67.80407162764729
 10
128.63552879946258
 20
-64.51653272797535
 10
133.64958094987483
 20
-62.8395620858446
 10
146.50305792885857
 20
-60.671739148214805
 10
147.14801362864299
 20
-60.741488833389134
 10
147.66242387019423
 20
-61.13672923700891
 10
147.89595480629728
 20
-61.741953307208675
 10
147.78035817664878
 20
-62.38028730479947
 10
146.15271939908752
 20
-64.29509257152272
  0
LWPOLYLINE
  5
4A
330
17
100
AcDbEntity
  8
CUT
100
AcDbPolyline
 90
28
 70
1
 10
58.84488373752182
 20
-72.32194910742007
 10
57.326640814368616
 20
-72.1520883226238
 10
54.21523159734374
 20
-72.18206687088694
 10
53.544308885016186
 20
-72.49023025599881
 10
52.157212849811145
 20
-75.77224866382653
 10
53.08291278629506
 20
-77.60177146504068
 10
52.61778356590564
 20
-78.6464585697992
 10
47.32913585028432
 20
-78.68296861209802
 10
47.04557201936593
 20
-78.43478981416811
 10
46.54458222109939
 20
-77.17919169072701
 10
48.754069331108525
 20
-74.95939409037959
 10
53.08305873474503
 20
-64.24743171004872
 10
53.08305873474503
 20
-67.68046426806664
 10
55.18576496214326
 20
-67.68046426806664
 10
54.797673447167796
 20
-68.6053127447919
 10
57.477910408702165
 20
-68.9489416174813
 10
57.74763665571136
 20
-68.82878045770322
 10
57.51525796796989
 20
-67.68046426806664
 10
59.58305873474503
 20
-67.68046426806664
 10
59.58305873474503
 20
-60.238710801487706
 10
65.28275662913785
 20
-74.90352154525613
 10
67.200454370507
 20
-77.31682822268834
 10
67.15295471402693
 20
-78.36370839746652
 10
61.80568501017392
 20
-78.93768315197822
 10
60.04833370353929
 20
-78.5432836828175
 10
59.57150499432744
 20
-77.5193825636815
 10
60.51019443731849
 20
-75.56644595275496
 10
59.46745157513649
 20
-72.90802788614201
  0
LWPOLYLINE
  5
4B
330
17
100
AcDbEntity
  8
CUT
100
AcDbPolyline
 90
28
 70
1
 10
88.02754210379805
 20
-60.46952430576038
 10
87.55484963873833
 20
-60.9434183542159
 10
87.53960604173696
 20
-75.20290593139684
 10
89.38730860451047
 20
-77.63978614205897
 10
89.24751440273226
 20
-78.16759941669393
 10
87.36842710552476
 20
-78.9338703023188
 10
81.91770923496365
 20
-78.80412954176045
 10
81.52297053587323
 20
-78.54948220857015
 10
81.00287691659804
 20
-77.1288979109675
 10
82.77722746960643
 20
-75.75338702331373
 10
83.06157071648586
 20
-74.94028979262593
 10
82.94163127595094
 20
-60.83255873742952
 10
82.55518571310202
 20
-60.50056656872293
 10
79.86895244495443
 20
-60.48366140218869
 10
79.15205842367128
 20
-60.89426149082568
 10
78.06283144760987
 20
-62.72452364597797
 10
76.97667849271123
 20
-62.88487979860888
 10
76.43523426162082
 20
-62.126489456403206
 10
76.47176863935681
 20
-58.85468264709244
 10
77.47344459965792
 20
-57.57814743930234
 10
79.34691546002011
 20
-57.23868866512536
 10
92.18608815902552
 20
-57.25221748596889
 10
94.07745891147023
 20
-58.35088144793031
 10
94.06635895480215
 20
-61.469591205692886
 10
93.40776588673741
 20
-62.34941015229748
 10
92.94631857327565
 20
-62.25998934247646
 10
91.31934841980163
 20
-60.77171245555995
 10
90.46009274289334
 20
-60.45106337173418
  0
LWPOLYLINE
  5
4C
330
17
100
AcDbEntity
  8
CUT
100
AcDbPolyline
 90
40
 70
1
 10
35.21271634492163
 20
-74.502616878664
 10
34.73070098055644
 20
-76.98015814139104
 10
33.71167123881033
 20
-78.51155413105582
 10
33.388596598890466
 20
-78.6246946975395
 10
19.77881850236036
 20
-77.89833986182347
 10
19.405288909049016
 20
-77.65989218962932
 10
20.010661104065285
 20
-75.13439027064437
 10
20.093225647988252
 20
-69.92735463754121
 10
20.658220662787354
 20
-67.09951754901408
 10
20.608284113158277
 20
-61.587167718913626
 10
18.739315744966884
 20
-58.90124065673641
 10
19.227284538033
 20
-57.71876155495929
 10
25.99087115781674
 20
-57.239559818046125
 10
28.43810176452162
 20
-57.8218922584471
 10
28.763839064621617
 20
-58.15054036719274
 10
29.301731815787324
 20
-57.632988784350104
 10
31.977103452828104
 20
-57.314221419270794
 10
33.33718857026818
 20
-58.0681875747143
 10
33.39275597320683
 20
-60.22014214658999
 10
30.303773458211186
 20
-59.04755865979869
 10
28.709271461872593
 20
-59.202460088394574
 10
27.926799191420443
 20
-59.55149628282691
 10
25.748496563214694
 20
-60.0026477858466
 10
25.292612895373885
 20
-60.48575208990617
 10
25.170445302459036
 20
-66.03114162569511
 10
25.461455928259788
 20
-66.3651386957954
 10
28.09359318622465
 20
-66.45539211184958
 10
28.602997507397244
 20
-66.22710808356659
 10
31.634297284002376
 20
-67.51217356419102
 10
31.665000054114447
 20
-68.01760807121606
 10
29.01777528153862
 20
-69.80091714494891
 10
28.385569348983008
 20
-69.19595909674716
 10
25.311411098189502
 20
-69.33276160597147
 10
25.087186744657036
 20
-69.90655119380004
 10
25.15155154711624
 20
-75.30112522253778
 10
25.655605395843047
 20
-75.72404901081784
 10
27.90261483884658
 20
-75.7240601077018
 10
29.013266418663015
 20
-76.5700786117245
 10
30.89877413004912
 20
-76.90635991463265
 10
32.69981235859502
 20
-76.25483421007578
  0
LWPOLYLINE
  5
4D
330
17
100
AcDbEntity
  8
CUT
100
AcDbPolyline
 90
43
 70
1
 10
113.96146453474343
 20
-20.456165977797053
 10
119.76379529565662
 20
-20.430655074743157
 10
121.3655237580631
 20
-20.05874913377498
 10
123.51649783599504
 20
-20.438474335819635
 10
128.28902222423955
 20
-20.59990737353499
 10
129.30585217589052
 20
-22.05243605660285
 10
129.20487589425682
 20
-24.671895129873928
 10
127.8246506839963
 20
-23.732628683120282
 10
126.89648508706969
 20
-23.46530958375176
 10
125.93075869188905
 20
-23.447326095304923
 10
124.92030476421634
 20
-23.72024570597277
 10
120.15938428258083
 20
-23.50432040117654
 10
119.87615475132091
 20
-23.706074896131717
 10
119.89522431907885
 20
-30.37895809300883
 10
123.53063457027169
 20
-30.363564628238635
 10
123.91552265968447
 20
-29.88919700888249
 10
125.13232361628091
 20
-30.88902717317749
 10
126.5227866788022
 20
-31.549645052697855
 10
126.62091948368483
 20
-32.903099529689214
 10
124.32949958332854
 20
-34.841782593355
 10
123.91277010296318
 20
-34.24267578082031
 10
119.93703396455282
 20
-33.92763104595893
 10
119.7381426852443
 20
-41.0237442508202
 10
119.87216726241216
 20
-41.478553273890206
 10
120.45533968917539
 20
-41.81554096462891
 10
123.18302109842355
 20
-41.83556525729566
 10
126.06569880835049
 20
-41.24003996773202
 10
127.61459955856242
 20
-41.23595749441042
 10
128.51716473262488
 20
-40.89197060109191
 10
130.51963319009377
 20
-39.17419685407029
 10
130.5733181167765
 20
-40.04273489314717
 10
129.54138010986097
 20
-43.980320180658524
 10
128.6242334627634
 20
-44.85873024310966
 10
127.25281513709957
 20
-45.05364607906772
 10
114.67096306379902
 20
-45.05365001963358
 10
112.81804051651545
 20
-44.52356619150707
 10
112.67019313682755
 20
-42.972556061778725
 10
114.36080945029892
 20
-41.86106715589289
 10
114.74246221323398
 20
-41.11876700237716
 10
114.76924080102812
 20
-24.36988528650417
 10
114.53917256073234
 20
-23.43363366465888
 10
112.56661813882995
 20
-22.177190297525712
 10
112.51353745677396
 20
-21.11443126242546
  0
LWPOLYLINE
  5
4E
330
17
100
AcDbEntity
  8
CUT
100
AcDbPolyline
 90
49
 70
1
 10
36.76056700775868
 20
-39.95361760399387
 10
37.929111026551055
 20
-40.458903761169196
 10
38.99282557973126
 20
-41.45029555195634
 10
40.45672372665336
 20
-42.15807912442453
 10
41.76475670719118
 20
-42.232886599005234
 10
43.1772379965877
 20
-41.7804968092347
 10
44.44987648088426
 20
-40.44120574966194
 10
44.80763164254882
 20
-39.039442423737775
 10
44.42642773848136
 20
-38.029232693632856
 10
42.47766153070279
 20
-36.17265967455321
 10
41.67544261258602
 20
-34.506503972641234
 10
37.60532413367531
 20
-31.549860036483732
 10
36.74516317412711
 20
-31.110458170449423
 10
35.44453624122119
 20
-30.92694289899153
 10
34.473087644994315
 20
-28.954245543126238
 10
34.44133650472641
 20
-26.328895665950526
 10
35.34616400224343
 20
-23.23636091813606
 10
36.61084726333007
 20
-21.61687224385447
 10
38.40393268151
 20
-20.473479933759677
 10
41.69815461395738
 20
-19.66932590602111
 10
46.902610040633235
 20
-20.52133551777858
 10
47.8605218708628
 20
-21.276897440483104
 10
48.391218259032115
 20
-26.13564070497772
 10
46.24139222019981
 20
-24.801268163822296
 10
44.4295023617677
 20
-24.28476420975955
 10
44.10045734053896
 20
-23.747610012047872
 10
41.927788991365375
 20
-22.867628354167483
 10
41.377193832932996
 20
-22.89518841592169
 10
39.8184749913479
 20
-23.73677713959906
 10
39.12484059599574
 20
-25.017584988509316
 10
39.017895563211816
 20
-25.581536305397503
 10
39.570572278471566
 20
-26.986773376254554
 10
40.188821203647365
 20
-27.830179910585446
 10
40.67006148243153
 20
-28.11689770036418
 10
41.11823696754461
 20
-29.785749662715567
 10
42.453824759860936
 20
-31.15849497536379
 10
45.21432481186063
 20
-32.65641688019882
 10
46.170135623090665
 20
-32.79561662639502
 10
47.353849033381756
 20
-32.59331090203932
 10
48.690812335120896
 20
-33.99485490306139
 10
49.835676013904184
 20
-37.5323984349588
 10
49.049521543690354
 20
-40.8603558466567
 10
47.14207326354287
 20
-43.509378909776125
 10
45.06941854471516
 20
-44.76087858537207
 10
42.746698612122636
 20
-45.400510958449004
 10
39.61390808305951
 20
-45.439695224324105
 10
34.679008170221785
 20
-44.09521513442918
 10
33.988359452848734
 20
-42.271334781933355
 10
34.13177375676372
 20
-38.14286784907488
  0
LWPOLYLINE
  5
4F
330
17
100
AcDbEntity
  8
CUT
100
AcDbPolyline
 90
48
 70
1
 10
19.855117317648173
 20
-45.0370938506995
 10
17.465898057041024
 20
-44.07927340727137
 10
11.548049718152809
 20
-35.64147472747596
 10
10.556408012694215
 20
-34.72339035569667
 10
10.03403722094881
 20
-34.620301485209836
 10
9.705280193371737
 20
-34.907953420551564
 10
9.753902973472536
 20
-41.29134367003105
 10
10.354932973459118
 20
-42.0759826283435
 10
12.058002812093308
 20
-42.662353274912185
 10
12.368168549082425
 20
-43.98388547358595
 10
12.277122722673607
 20
-44.346385463474554
 10
10.387367408609208
 20
-45.04147030926821
 10
8.613694117231562
 20
-44.65032850559372
 10
4.40061730086943
 20
-44.49223834576447
 10
3.5952227077124177
 20
-44.933062398733725
 10
2.6305249973517455
 20
-44.67131081133978
 10
2.2840726342057476
 20
-43.50425000529479
 10
2.9701955120431025
 20
-42.83592075591275
 10
3.6877450687745315
 20
-42.771550596834075
 10
4.542410515480114
 20
-41.99086343569581
 10
4.723617979492267
 20
-41.0468228820011
 10
4.681529724404602
 20
-24.644373585103114
 10
3.9859101875193583
 20
-23.29323652903973
 10
2.51975180957235
 20
-22.23309163814275
 10
2.513608970184735
 20
-21.097921091074127
 10
4.477091329538124
 20
-20.49045156888174
 10
6.518354111905601
 20
-21.17270600387891
 10
9.16567429427793
 20
-20.123871926772395
 10
11.903473801255265
 20
-20.063901525947028
 10
17.204284201116344
 20
-21.21609657464713
 10
19.340732601008916
 20
-22.694120767545495
 10
20.3340888951671
 20
-24.033907730971254
 10
13.717421141052732
 20
-24.033907730971254
 10
11.722176333771364
 20
-23.27844442266528
 10
10.253666887430148
 20
-23.388721159903167
 10
9.702012309537713
 20
-25.634328112584686
 10
9.809191524012306
 20
-30.89643711417121
 10
10.614269888973345
 20
-31.352449201612753
 10
11.653734220809115
 20
-31.323873111904753
 10
13.710412974657933
 20
-30.533907730971254
 10
19.881812951840292
 20
-30.533907730971254
 10
18.58704191353653
 20
-32.079467614448056
 10
16.411412240663676
 20
-33.427713902017956
 10
21.504793539545634
 20
-40.619122956344796
 10
22.590301002914376
 20
-41.71053429496484
 10
24.460229176389
 20
-42.77691352803242
 10
24.616692551108912
 20
-44.43342027978515
 10
24.306130043262467
 20
-44.605060074589325
  0
LWPOLYLINE
  5
50
330
17
100
AcDbEntity
  8
CUT
100
AcDbPolyline
 90
40
 70
1
 10
97.09745432079933
 20
-28.016195834647885
 10
95.81408735191758
 20
-26.02713620401513
 10
92.61866845179286
 20
-23.72988462071408
 10
90.68697062850306
 20
-23.259338338011077
 10
88.03892066023721
 20
-23.370743837078695
 10
87.85126132210796
 20
-23.764537602797553
 10
87.57545301331557
 20
-28.875832937860277
 10
87.8306199307914
 20
-30.416404910145015
 10
87.55937228998427
 20
-33.77048780890151
 10
87.82597182152706
 20
-36.562062081440054
 10
87.45659394958123
 20
-38.68696502803224
 10
88.10656367065465
 20
-41.59849067566545
 10
88.77604422927683
 20
-41.99420792000326
 10
91.30944172499224
 20
-41.77993797035531
 10
93.30204827496105
 20
-41.23595414221281
 10
95.17131234598854
 20
-40.06823461668661
 10
97.50853560088164
 20
-36.242688550530445
 10
102.70628627328625
 20
-36.242688550530445
 10
102.33093147611321
 20
-37.814487692136716
 10
100.62222708906994
 20
-40.755886532035646
 10
99.44656590244665
 20
-41.97674690553666
 10
96.01360529523224
 20
-43.950419829610304
 10
91.76969767845013
 20
-45.00838643086131
 10
80.63744272945218
 20
-44.700327482076766
 10
80.25489719133266
 20
-44.466092270130815
 10
80.28354473071349
 20
-43.02303804985673
 10
81.9601154392506
 20
-41.96385275329481
 10
82.40644908438944
 20
-41.24218163370738
 10
82.45544357376274
 20
-24.62304381318393
 10
82.20487372461841
 20
-23.51889976680449
 10
80.24734354857198
 20
-22.03986508249714
 10
80.03249317009855
 20
-21.278289752624133
 10
80.81969107868788
 20
-20.376189582523402
 10
83.21467933890581
 20
-20.093654858945122
 10
94.48432261386037
 20
-20.599722009386035
 10
98.89429055111347
 20
-22.578430707954404
 10
101.33862461241971
 20
-24.96794474024973
 10
102.94340906474145
 20
-28.09225882391577
 10
103.17597554660324
 20
-29.742688550530445
 10
97.6995443089305
 20
-29.742688550530445
  0
LWPOLYLINE
  5
51
330
17
100
AcDbEntity
  8
CUT
100
AcDbPolyline
 90
22
 70
1
 10
62.36751992864156
 20
-24.93215835121799
 10
62.05673706850467
 20
-23.742039678128638
 10
60.160916534859425
 20
-22.098278697079344
 10
60.00586868135132
 20
-21.10319930553157
 10
60.71334434453606
 20
-20.292014779933368
 10
61.746412888576344
 20
-20.04683494064519
 10
63.560524080598036
 20
-20.426731781244403
 10
69.33161088848688
 20
-20.851845166248022
 10
69.62646728049842
 20
-21.190459662278503
 10
69.38526600805292
 20
-22.22848552654607
 10
67.69919072284205
 20
-23.282880016326068
 10
67.34489343203587
 20
-24.018367707626023
 10
67.32744042772457
 20
-40.77067591154614
 10
67.62176519144138
 20
-41.74583549975385
 10
69.5679701581161
 20
-42.86442625077217
 10
69.7686490173917
 20
-44.075259795767984
 10
68.09612304678508
 20
-45.04675138948452
 10
60.89627153832795
 20
-44.96026621767726
 10
60.61608897508095
 20
-44.71295311490797
 10
60.09260429716531
 20
-43.178291934848886
 10
62.076017301960306
 20
-41.72731011955518
 10
62.32410771572885
 20
-41.26155876390289
  0
LWPOLYLINE
  5
52
330
17
100
AcDbEntity
  8
CUT
100
AcDbPolyline
 90
324
 70
1
 10
50.52711252455973
 20
27.260141908826622
 10
52.62123517098735
 20
30.415646269475747
 10
55.55322656894019
 20
33.39547959317766
 10
59.261935549148674
 20
35.49124695794377
 10
62.881505940873545
 20
35.627199565529644
 10
65.17692596922072
 20
34.83969361181956
 10
67.22076669390327
 20
33.2657484441212
 10
68.33089855605195
 20
35.54579140299781
 10
70.32293312787502
 20
36.43567456529749
 10
72.3463429628749
 20
35.83257570452616
 10
73.9487690648607
 20
34.75808049598648
 10
75.35165476083515
 20
31.711758048660744
 10
75.27972194516504
 20
29.766095783074885
 10
73.21332380397858
 20
20.85114077357107
 10
71.8887310999462
 20
10.947346490419799
 10
71.91506918038682
 20
8.391010949124711
 10
72.3285957743122
 20
6.702288790843841
 10
72.68324583869162
 20
6.1715751546900455
 10
73.10179311386476
 20
6.0359849610655
 10
73.95533935301582
 20
6.401139432167985
 10
76.47578946826087
 20
8.964203009339016
 10
80.96701730260052
 20
15.706549254864694
 10
83.27390137998165
 20
19.892068660064993
 10
84.00175902241374
 20
21.969687508361616
 10
86.24920237498539
 20
34.24251528826958
 10
87.06106509783068
 20
35.74502078356719
 10
89.00141264535773
 20
36.059344677928806
 10
90.67599190883567
 20
35.67522782705979
 10
92.26751537055826
 20
34.771829872899666
 10
93.52372591375091
 20
32.977517944665635
 10
94.14575760527691
 20
29.816879408871912
 10
92.99167011321845
 20
24.108464882613593
 10
98.38801882602698
 20
32.05477334266341
 10
102.22760416682058
 20
35.929959703223595
 10
105.38473694736858
 20
37.35657912980236
 10
107.28987620476968
 20
37.29701273857237
 10
109.02553697689736
 20
36.45334678610197
 10
110.25887005856693
 20
35.219740324180634
 10
111.00587642923426
 20
33.86389430815727
 10
111.97721512465941
 20
28.847748975564983
 10
108.57274781650794
 20
9.17332399369976
 10
108.7070064097887
 20
4.568104443137771
 10
109.08770108043441
 20
3.9622646091001563
 10
109.41089327520595
 20
3.9654031268342287
 10
112.43361073000392
 20
7.002918271642429
 10
118.71887828796852
 20
17.08626057517054
 10
121.01634795911806
 20
24.599865210120335
 10
122.66837643212376
 20
27.871629450499146
 10
125.03738500980621
 20
31.25837470473613
 10
128.69557831782848
 20
34.394690918844915
 10
132.5947558985493
 20
35.91057897770934
 10
135.44850351902866
 20
35.49925527766379
 10
137.61846407375677
 20
34.26765113561963
 10
140.4898171317054
 20
46.86441514075036
 10
143.169551197804
 20
54.87567832741147
 10
145.44583409494845
 20
60.33314881591616
 10
148.35088871297484
 20
66.13544065143803
 10
150.88896979956925
 20
70.17223594570447
 10
155.0271643810661
 20
74.75734190925496
 10
157.72133053146317
 20
76.15001957023563
 10
160.76912350888276
 20
75.95912148281641
 10
163.32301776512278
 20
73.76561055070526
 10
164.38490358529953
 20
70.9397678377644
 10
164.39330254682093
 20
66.59162678182405
 10
162.7535956624336
 20
60.638219396404956
 10
159.00019675874893
 20
62.35896217022564
 10
160.39802374123485
 20
66.98372739854916
 10
160.20261920088566
 20
69.41630384012177
 10
159.06228376853053
 20
68.50161903586542
 10
154.98161089199922
 20
60.973214561631856
 10
149.68700223093109
 20
46.875846738183526
 10
147.42802649731811
 20
38.60564704420926
 10
149.00098979386058
 20
40.895462363779814
 10
155.00600438636818
 20
51.97908166543559
 10
156.66127989212427
 20
56.28071772860126
 10
160.3923485499488
 20
54.57021223842336
 10
156.82670669385598
 20
46.79729049179606
 10
152.29671952647263
 20
39.16477960885479
 10
146.32631237540195
 20
30.88992646775622
 10
145.80175242546179
 20
29.537886728057433
 10
144.38141123065103
 20
19.35498224156807
 10
144.36893356469417
 20
10.063068019399433
 10
144.8965243697687
 20
6.928460588774859
 10
146.00416501910394
 20
5.598047201960998
 10
146.57263135876565
 20
5.699260155619177
 10
148.00085854436722
 20
6.660931172653801
 10
149.6309278103654
 20
8.284996599956024
 10
156.13611176791116
 20
18.010381254488838
 10
158.99406962129189
 20
23.885633186318643
 10
158.2789861387027
 20
27.59739713806253
 10
158.2859188000536
 20
31.41749468068288
 10
159.43655562651406
 20
35.041810985124684
 10
160.93331494936214
 20
37.41237987038485
 10
162.26346224266524
 20
38.70908607102236
 10
165.34296623895347
 20
40.26740607251742
 10
168.9197203836335
 20
40.1995443131729
 10
170.95412007311413
 20
38.8936634514504
 10
172.17615348134638
 20
37.18304793915873
 10
172.60147875116584
 20
35.10260077801617
 10
171.99074048571063
 20
32.75273240781791
 10
171.65731267006814
 20
32.5825103914347
 10
170.82675571926455
 20
32.75376581234786
 10
170.23749997903954
 20
35.105664892961634
 10
169.80936447819167
 20
35.35986767202559
 10
168.9058915232702
 20
35.03202990304807
 10
168.04907677697685
 20
34.209025885359296
 10
167.1705502474442
 20
32.4589056431094
 10
166.7307602511446
 20
30.146305997459844
 10
167.31750775023698
 20
27.420214893679624
 10
171.78102063386493
 20
19.333193563963803
 10
172.55005809161403
 20
19.379451331341635
 10
183.78412383757575
 20
27.42681636490535
 10
185.28076331577947
 20
27.321058124503985
 10
185.73135900403082
 20
25.94781541773034
 10
184.6663146204435
 20
24.138833074230124
 10
182.88455466926848
 20
22.54594020529903
 10
173.78668920288132
 20
15.765020494624542
 10
173.70174259491304
 20
15.20520168712265
 10
175.32824053719432
 20
8.376327309856533
 10
175.3674803709199
 20
6.1607323933937455
 10
174.82130160496888
 20
2.6214027863513745
 10
173.48274456050322
 20
-1.023946237675651
 10
171.90715728520843
 20
-3.679329647534858
 10
169.99626795834578
 20
-5.571554297804922
 10
166.4537779234795
 20
-8.05052400945829
 10
163.20094741701095
 20
-8.967693507013099
 10
160.9449918801556
 20
-8.834330296869679
 10
158.37373569641312
 20
-7.73705145655096
 10
156.78114352113712
 20
-6.056445810098998
 10
155.6632821358789
 20
-2.9882738871697505
 10
155.69809563578661
 20
-1.0013228218168326
 10
157.92949976884952
 20
1.7659084731726415
 10
159.70625915607215
 20
0.5738681772942354
 10
159.3058568679126
 20
-0.357459993562972
 10
159.3513976625895
 20
-2.7026398998389083
 10
160.30911793961738
 20
-3.5740473606002614
 10
161.2856266290496
 20
-3.5472480075004857
 10
163.29971839622243
 20
-2.4858982588825067
 10
164.78629604512307
 20
-0.9072682080188285
 10
165.86825265695487
 20
1.2304837098634411
 10
166.9679686117756
 20
5.13113573859607
 10
166.94384760402357
 20
7.353416235589061
 10
166.3886219965965
 20
9.47355389963008
 10
165.86138666701393
 20
9.383805629382685
 10
163.87427958373928
 20
7.401737869928344
 10
162.9787634789057
 20
6.205672215098125
 10
161.11926210547261
 20
7.453224688051929
 10
161.77438121767705
 20
8.917677887014683
 10
161.84973603625394
 20
10.053400372801478
 10
164.93503590434537
 20
13.33896001146837
 10
162.99257512171116
 20
17.5966497781611
 10
161.16880148618628
 20
20.078873109464187
 10
160.79861913985383
 20
19.813789980941767
 10
157.27893961846854
 20
13.360507430954135
 10
156.25098445083034
 20
12.946656892280771
 10
155.49919469000272
 20
12.340222203530159
 10
154.42255821709844
 20
10.629526065650193
 10
154.074706530292
 20
9.72844333904224
 10
154.00434766599872
 20
8.560786521447824
 10
150.1770278988917
 20
3.858838935065175
 10
149.4711367251838
 20
2.2438526697853414
 10
148.09971809539522
 20
0.8447791681494556
 10
146.32217883659374
 20
-0.14195342949971976
 10
144.03304119467396
 20
-0.6145994644650891
 10
142.15831270838638
 20
-0.1014782262419755
 10
140.32278990457496
 20
0.9122841873903402
 10
138.98997808632203
 20
2.470539217828821
 10
137.77151392125757
 20
5.419918546610371
 10
138.47018599453853
 20
6.683806905020257
 10
139.56343882526585
 20
10.727792864721518
 10
140.81771517770375
 20
11.385293581756317
 10
135.24471979823682
 20
22.016576766107825
 10
136.80638554059925
 20
25.86329018219839
 10
136.7810340583843
 20
29.247478567591592
 10
136.39110592980603
 20
30.151046054691133
 10
135.90788880782637
 20
30.536559017871962
 10
134.63011494792346
 20
30.08363947620006
 10
131.97338501187576
 20
27.228874691325657
 10
130.3817253530201
 20
24.469714124028595
 10
127.81101005260722
 20
18.309479057587286
 10
126.47986239978772
 20
12.362676201162197
 10
126.47643219820219
 20
9.182481921472537
 10
126.92388921064033
 20
8.48378637987731
 10
128.04406771527565
 20
9.04238269878185
 10
131.0932453415443
 20
13.380529512198652
 10
131.74961941689838
 20
14.683908258391972
 10
132.69479478957476
 20
12.88085148880992
 10
131.3713408418475
 20
8.773399568224171
 10
131.2218712944156
 20
7.819140834653552
 10
131.51656744525707
 20
6.360837728385123
 10
129.94313916587862
 20
4.120016274328385
 10
128.71359419880804
 20
3.0050355066754726
 10
126.39809338606132
 20
1.8304393582559801
 10
123.56930680952674
 20
1.6170783790407601
 10
120.68152438930252
 20
3.251509615952173
 10
119.11442146654923
 20
5.938509097554408
 10
118.46485367496388
 20
8.947784649736535
 10
114.74056823564013
 20
3.3618695660285205
 10
111.97456826349848
 20
0.15722482799499277
 10
107.86915668737797
 20
-1.9698745752834426
 10
105.63729331077141
 20
-1.884443292846364
 10
103.5638677120052
 20
-0.8740888749511959
 10
101.7241327261365
 20
1.4315317876561653
 10
100.72102390895706
 20
3.9348508313402695
 10
100.18330153550352
 20
6.601897927008182
 10
100.23049329049887
 20
15.469020793937425
 10
102.76193598415443
 20
27.665296882341753
 10
102.72512432323803
 20
30.26708532625175
 10
100.38390990308629
 20
28.152409794050097
 10
95.7721348085353
 20
20.76310440688429
 10
92.49129587140486
 20
14.152943497651243
 10
89.02689766754305
 20
4.202912950857502
 10
88.72430549844204
 20
2.45206561993306
 10
87.60448626055373
 20
1.5848478254407075
 10
84.744811359959
 20
1.7448249891950764
 10
83.44336908829766
 20
2.5131419118630913
 10
82.47984542732547
 20
3.63370208212151
 10
81.43550121735717
 20
6.068425152912233
 10
81.80725081786774
 20
9.653823727050991
 10
77.07250777898969
 20
3.210359862416039
 10
75.69299691495357
 20
1.8626753813659565
 10
73.93338706220042
 20
0.7720952130333248
 10
72.2029896621479
 20
0.2269801549512092
 10
69.91004681679439
 20
0.21241602473687943
 10
68.49972657972694
 20
0.6778836256209668
 10
66.25027852257463
 20
2.675769666571364
 10
65.33349078439637
 20
4.715681322293905
 10
66.15502089377478
 20
6.176344514937193
 10
67.24898439650865
 20
10.370840910733106
 10
68.54079460760101
 20
10.971906853991213
 10
63.40975271923427
 20
21.999535984009167
 10
64.19351535975412
 20
23.653329180635858
 10
65.85974380779494
 20
28.403449313307533
 10
64.77966822623515
 20
30.11583067103148
 10
64.14380706983276
 20
30.41477350797819
 10
62.901340262156516
 20
29.977381294833048
 10
60.77169770036507
 20
27.65419099669738
 10
57.74823158330896
 20
22.424464782146913
 10
55.780818613964335
 20
17.071900091453454
 10
54.57671422472254
 20
10.465968731995714
 10
54.84936537427756
 20
8.593002007588565
 10
55.07669455490209
 20
8.334695814260032
 10
56.339304332840506
 20
9.346289731646506
 10
59.74312978846315
 20
14.471882014375193
 10
60.49719364877421
 20
12.85124886173748
 10
60.05053139872562
 20
11.871535040971036
 10
59.021883336367814
 20
8.145696841746783
 10
58.8885582761377
 20
7.189048889509415
 10
59.166263908637994
 20
5.838526632251357
 10
57.809617885992154
 20
4.038374470722827
 10
53.86631566415535
 20
1.650187999430675
 10
51.93187212666255
 20
1.524482774531938
 10
50.175766110987084
 20
2.0429851560931573
 10
48.10926819748626
 20
3.755335121903931
 10
46.56444433576749
 20
6.622328761696796
 10
46.38716165714186
 20
9.757539378849055
 10
43.50953925829092
 20
5.027197298347342
 10
39.22822259351583
 20
-0.612960125279524
 10
36.382373868338554
 20
-3.3712844870759278
 10
31.570308414149622
 20
-5.452171294224865
 10
28.73939086454814
 20
-4.926420727207471
 10
27.415070844789955
 20
-4.2772231637733835
 10
25.817271111943445
 20
-2.9315853052583845
 10
24.09207912347523
 20
-0.5866543653451949
 10
23.07798805392673
 20
2.715922427035402
 10
23.245799012295244
 20
4.192136106461827
 10
23.014945664943216
 20
5.130036745240624
 10
22.38290456095776
 20
6.149485200442336
 10
21.81304482097019
 20
12.755446055208854
 10
19.299106882131028
 20
8.73894747924485
 10
16.224423633985364
 20
11.199783459875253
 10
19.304638417294516
 20
15.566677944947902
 10
22.18712607560116
 20
20.42743381942004
 10
23.8233883990536
 20
31.269531177655075
 10
26.102294403544896
 20
41.25365140407676
 10
27.067373012398246
 20
44.29631955786968
 10
28.097507642646235
 20
45.42794443732788
 10
28.56820108343653
 20
46.97352930407304
 10
29.108633275752652
 20
47.87170522182006
 10
29.386472982086453
 20
49.26849974995264
 10
29.24909190999213
 20
50.25151648454745
 10
30.344011147348414
 20
51.614385381646805
 10
34.778566342729555
 20
61.34534284612419
 10
35.08985089360514
 20
63.096595477084016
 10
37.50646846039241
 20
67.1580203008175
 10
41.14594966808518
 20
71.68369829386657
 10
44.93410944792657
 20
74.62586066892239
 10
48.58707967753928
 20
76.14653279850988
 10
50.892748813643045
 20
76.07078202211757
 10
52.711535887863775
 20
75.39560223937826
 10
54.04449589336356
 20
74.35308603505572
 10
55.67241258668196
 20
70.45156329510695
 10
55.62764662477241
 20
66.00844309911203
 10
53.00467367686348
 20
57.724660206643804
 10
49.093824749028094
 20
59.67469575426076
 10
50.79773142169634
 20
64.26546741905264
 10
51.20926912897327
 20
66.76443531331579
 10
51.17212993397562
 20
69.69219484845564
 10
50.878238133810314
 20
70.03155795425597
 10
50.262919696647714
 20
70.124624742351
 10
48.72435848950315
 20
69.0406928160686
 10
44.32930421866787
 20
62.384869122745414
 10
39.27550423184368
 20
50.96701705888366
 10
35.290088628007446
 20
39.07241679179952
 10
34.1003593097517
 20
33.877353978322006
 10
35.88391270420768
 20
36.07442362537278
 10
43.39987649175665
 20
47.56283885877885
 10
46.48361937111796
 20
53.712981909864226
 10
50.346646966509304
 20
51.786791133528666
 10
48.52000497756416
 20
48.127933463380394
 10
41.403004967721685
 20
37.02389174355424
 10
35.4903146552901
 20
29.295189446846273
 10
33.34020912029595
 20
27.08506908261755
 10
32.66555860020843
 20
25.856183329230316
 10
30.86627745874435
 20
15.209144004135018
 10
30.835816636575778
 20
8.006752347529192
 10
31.82093259020498
 20
1.977175847729641
 10
32.33112242847551
 20
1.07127259505393
 10
32.769222483718025
 20
0.808211018551937
 10
34.09391866010875
 20
1.14947820095606
 10
36.83426266728578
 20
3.3428762184410763
 10
41.9758887316326
 20
9.844132628510376
 10
46.81852340718904
 20
17.82766396874088
 10
48.440344393205855
 20
23.058305181712704
  0
LWPOLYLINE
  5
53
330
17
100
AcDbEntity
  8
CUT
100
AcDbPolyline
 90
24
 70
1
 10
-18.726666019069366
 20
173.89530608234708
 10
-18.714505043702275
 20
174.49528562440318
 10
-18.41335442816575
 20
175.01435368060555
 10
-16.785420138299536
 20
175.63801041840873
 10
-10.506405197826032
 20
176.5226251454879
 10
-8.06861142824054
 20
176.50208291958145
 10
-4.193011286589687
 20
176.0673662099717
 10
4.06454415518742
 20
173.50402207233844
 10
8.222993034738742
 20
171.4576152147654
 10
16.601879582187188
 20
165.73813315319018
 10
22.74349521230141
 20
160.54393734306322
 10
26.318281611006473
 20
156.9247461077129
 10
32.08601352824782
 20
148.94063200425592
 10
32.56467013978482
 20
147.97276156706855
 10
32.435261618129296
 20
147.09683639013463
 10
31.740362442684702
 20
146.5481045639844
 10
30.85830249799743
 20
146.62531683659722
 10
23.729035543345532
 20
151.7966243560671
 10
18.891419766187635
 20
154.70193022169602
 10
11.638958384962384
 20
158.08799462927405
 10
1.0374971705334315
 20
161.46939699164136
 10
-6.858712668922445
 20
164.76800442682435
 10
-13.110170383027933
 20
168.7620582823179
 10
-18.446796068802183
 20
173.3644613299522
  0
CIRCLE
  5
54
330
17
100
AcDbEntity
  8
CUT
100
AcDbCircle
 10
-110.0
 20
145.0
 30
0.0
 40
6.0
  0
CIRCLE
  5
55
330
17
100
AcDbEntity
  8
CUT
100
AcDbCircle
 10
110.0
 20
145.0
 30
0.0
 40
6.0
  0
ENDSEC
  0
SECTION
  2
OBJECTS
  0
DICTIONARY
  5
A
330
0
100
AcDbDictionary
281
1
  3
ACAD_COLOR
350
B
  3
ACAD_GROUP
350
C
  3
ACAD_LAYOUT
350
D
  3
ACAD_MATERIAL
350
E
  3
ACAD_MLEADERSTYLE
350
F
  3
ACAD_MLINESTYLE
350
10
  3
ACAD_PLOTSETTINGS
350
11
  3
ACAD_PLOTSTYLENAME
350
12
  3
ACAD_SCALELIST
350
14
  3
ACAD_TABLESTYLE
350
15
  3
ACAD_VISUALSTYLE
350
16
  3
EZDXF_META
350
2D
  0
DICTIONARY
  5
B
330
A
100
AcDbDictionary
281
1
  0
DICTIONARY
  5
C
330
A
100
AcDbDictionary
281
1
  0
DICTIONARY
  5
D
330
A
100
AcDbDictionary
281
1
  3
Model
350
1A
  3
Layout1
350
1E
  0
DICTIONARY
  5
E
330
A
100
AcDbDictionary
281
1
  3
ByBlock
350
1F
  3
ByLayer
350
20
  3
Global
350
21
  0
DICTIONARY
  5
F
330
A
100
AcDbDictionary
281
1
  3
Standard
350
2C
  0
DICTIONARY
  5
10
330
A
100
AcDbDictionary
281
1
  3
Standard
350
22
  0
DICTIONARY
  5
11
330
A
100
AcDbDictionary
281
1
  0
ACDBDICTIONARYWDFLT
  5
12
330
A
100
AcDbDictionary
281
1
  3
Normal
350
13
100
AcDbDictionaryWithDefault
340
13
  0
ACDBPLACEHOLDER
  5
13
330
12
  0
DICTIONARY
  5
14
330
A
100
AcDbDictionary
281
1
  0
DICTIONARY
  5
15
330
A
100
AcDbDictionary
281
1
  0
DICTIONARY
  5
16
330
A
100
AcDbDictionary
281
1
  0
LAYOUT
  5
1A
330
D
100
AcDbPlotSettings
  1

  4
A3
  6

 40
7.5
 41
20.0
 42
7.5
 43
20.0
 44
420.0
 45
297.0
 46
0.0
 47
0.0
 48
0.0
 49
0.0
140
0.0
141
0.0
142
1.0
143
1.0
 70
1024
 72
1
 73
0
 74
5
  7

 75
16
 76
0
 77
2
 78
300
147
1.0
148
0.0
149
0.0
100
AcDbLayout
  1
Model
 70
1
 71
0
 10
0.0
 20
0.0
 11
420.0
 21
297.0
 12
0.0
 22
0.0
 32
0.0
 14
1e+20
 24
1e+20
 34
1e+20
 15
-1e+20
 25
-1e+20
 35
-1e+20
146
0.0
 13
0.0
 23
0.0
 33
0.0
 16
1.0
 26
0.0
 36
0.0
 17
0.0
 27
1.0
 37
0.0
 76
1
330
17
  0
LAYOUT
  5
1E
330
D
100
AcDbPlotSettings
  1

  4
A3
  6

 40
7.5
 41
20.0
 42
7.5
 43
20.0
 44
420.0
 45
297.0
 46
0.0
 47
0.0
 48
0.0
 49
0.0
140
0.0
141
0.0
142
1.0
143
1.0
 70
0
 72
1
 73
0
 74
5
  7

 75
16
 76
0
 77
2
 78
300
147
1.0
148
0.0
149
0.0
100
AcDbLayout
  1
Layout1
 70
1
 71
1
 10
0.0
 20
0.0
 11
420.0
 21
297.0
 12
0.0
 22
0.0
 32
0.0
 14
1e+20
 24
1e+20
 34
1e+20
 15
-1e+20
 25
-1e+20
 35
-1e+20
146
0.0
 13
0.0
 23
0.0
 33
0.0
 16
1.0
 26
0.0
 36
0.0
 17
0.0
 27
1.0
 37
0.0
 76
1
330
1B
  0
MATERIAL
  5
1F
102
{ACAD_REACTORS
330
E
102
}
330
E
100
AcDbMaterial
  1
ByBlock
  2

 70
0
 40
1.0
 71
1
 41
1.0
 91
-1023410177
 42
1.0
 72
1
  3

 73
1
 74
1
 75
1
 44
0.5
 73
0
 45
1.0
 46
1.0
 77
1
  4

 78
1
 79
1
170
1
 48
1.0
171
1
  6

172
1
173
1
174
1
140
1.0
141
1.0
175
1
  7

176
1
177
1
178
1
143
1.0
179
1
  8

270
1
271
1
272
1
145
1.0
146
1.0
273
1
  9

274
1
275
1
276
1
 42
1.0
 72
1
  3

 73
1
 74
1
 75
1
 94
63
  0
MATERIAL
  5
20
102
{ACAD_REACTORS
330
E
102
}
330
E
100
AcDbMaterial
  1
ByLayer
  2

 70
0
 40
1.0
 71
1
 41
1.0
 91
-1023410177
 42
1.0
 72
1
  3

 73
1
 74
1
 75
1
 44
0.5
 73
0
 45
1.0
 46
1.0
 77
1
  4

 78
1
 79
1
170
1
 48
1.0
171
1
  6

172
1
173
1
174
1
140
1.0
141
1.0
175
1
  7

176
1
177
1
178
1
143
1.0
179
1
  8

270
1
271
1
272
1
145
1.0
146
1.0
273
1
  9

274
1
275
1
276
1
 42
1.0
 72
1
  3

 73
1
 74
1
 75
1
 94
63
  0
MATERIAL
  5
21
102
{ACAD_REACTORS
330
E
102
}
330
E
100
AcDbMaterial
  1
Global
  2

 70
0
 40
1.0
 71
1
 41
1.0
 91
-1023410177
 42
1.0
 72
1
  3

 73
1
 74
1
 75
1
 44
0.5
 73
0
 45
1.0
 46
1.0
 77
1
  4

 78
1
 79
1
170
1
 48
1.0
171
1
  6

172
1
173
1
174
1
140
1.0
141
1.0
175
1
  7

176
1
177
1
178
1
143
1.0
179
1
  8

270
1
271
1
272
1
145
1.0
146
1.0
273
1
  9

274
1
275
1
276
1
 42
1.0
 72
1
  3

 73
1
 74
1
 75
1
 94
63
  0
MLINESTYLE
  5
22
102
{ACAD_REACTORS
330
10
102
}
330
10
100
AcDbMlineStyle
  2
Standard
 70
0
  3

 62
256
 51
90.0
 52
90.0
 71
2
 49
0.5
 62
256
  6
BYLAYER
 49
-0.5
 62
256
  6
BYLAYER
  0
MLEADERSTYLE
  5
2C
102
{ACAD_REACTORS
330
F
102
}
330
F
100
AcDbMLeaderStyle
179
2
170
2
171
1
172
0
 90
2
 40
0.0
 41
0.0
173
1
 91
-1056964608
 92
-2
290
1
 42
2.0
291
1
 43
8.0
  3
Standard
 44
4.0
300

342
29
174
1
175
1
176
0
178
1
 93
-1056964608
 45
4.0
292
0
297
0
 46
4.0
 94
-1056964608
 47
1.0
 49
1.0
140
1.0
294
1
141
0.0
177
0
142
1.0
295
0
296
0
143
3.75
271
0
272
9
273
9
  0
DICTIONARY
  5
2D
330
A
100
AcDbDictionary
280
1
281
1
  3
CREATED_BY_EZDXF
350
2E
  3
WRITTEN_BY_EZDXF
350
58
  0
DICTIONARYVAR
  5
2E
330
2D
100
DictionaryVariables
280
0
  1
1.4.4 @ 2026-09-09T02:31:58.182606+00:00
  0
DICTIONARYVAR
  5
58
330
2D
100
DictionaryVariables
280
0
  1
1.4.4 @ 2026-09-09T02:31:58.190606+00:00
  0
ENDSEC
  0
EOF
