  0
SECTION
  2
HEADER
  9
$ACADVER
  1
AC1015
  9
$ACADMAINTVER
 70
6
  9
$DWGCODEPAGE
  3
ANSI_1252
  9
$INSBASE
 10
0.0
 20
0.0
 30
0.0
  9
$EXTMIN
 10
1e+20
 20
1e+20
 30
1e+20
  9
$EXTMAX
 10
-1e+20
 20
-1e+20
 30
-1e+20
  9
$LIMMIN
 10
0.0
 20
0.0
  9
$LIMMAX
 10
420.0
 20
297.0
  9
$ORTHOMODE
 70
0
  9
$REGENMODE
 70
1
  9
$FILLMODE
 70
1
  9
$QTEXTMODE
 70
0
  9
$MIRRTEXT
 70
1
  9
$LTSCALE
 40
1.0
  9
$ATTMODE
 70
1
  9
$TEXTSIZE
 40
2.5
  9
$TRACEWID
 40
1.0
  9
$TEXTSTYLE
  7
Standard
  9
$CLAYER
  8
0
  9
$CELTYPE
  6
ByLayer
  9
$CECOLOR
 62
256
  9
$CELTSCALE
 40
1.0
  9
$DISPSILH
 70
0
  9
$DIMSCALE
 40
1.0
  9
$DIMASZ
 40
2.5
  9
$DIMEXO
 40
0.625
  9
$DIMDLI
 40
3.75
  9
$DIMRND
 40
0.0
  9
$DIMDLE
 40
0.0
  9
$DIMEXE
 40
1.25
  9
$DIMTP
 40
0.0
  9
$DIMTM
 40
0.0
  9
$DIMTXT
 40
2.5
  9
$DIMCEN
 40
2.5
  9
$DIMTSZ
 40
0.0
  9
$DIMTOL
 70
0
  9
$DIMLIM
 70
0
  9
$DIMTIH
 70
0
  9
$DIMTOH
 70
0
  9
$DIMSE1
 70
0
  9
$DIMSE2
 70
0
  9
$DIMTAD
 70
1
  9
$DIMZIN
 70
8
  9
$DIMBLK
  1

  9
$DIMASO
 70
1
  9
$DIMSHO
 70
1
  9
$DIMPOST
  1

  9
$DIMAPOST
  1

  9
$DIMALT
 70
0
  9
$DIMALTD
 70
3
  9
$DIMALTF
 40
0.03937007874
  9
$DIMLFAC
 40
1.0
  9
$DIMTOFL
 70
1
  9
$DIMTVP
 40
0.0
  9
$DIMTIX
 70
0
  9
$DIMSOXD
 70
0
  9
$DIMSAH
 70
0
  9
$DIMBLK1
  1

  9
$DIMBLK2
  1

  9
$DIMSTYLE
  2
ISO-25
  9
$DIMCLRD
 70
0
  9
$DIMCLRE
 70
0
  9
$DIMCLRT
 70
0
  9
$DIMTFAC
 40
1.0
  9
$DIMGAP
 40
0.625
  9
$DIMJUST
 70
0
  9
$DIMSD1
 70
0
  9
$DIMSD2
 70
0
  9
$DIMTOLJ
 70
0
  9
$DIMTZIN
 70
8
  9
$DIMALTZ
 70
0
  9
$DIMALTTZ
 70
0
  9
$DIMUPT
 70
0
  9
$DIMDEC
 70
2
  9
$DIMTDEC
 70
2
  9
$DIMALTU
 70
2
  9
$DIMALTTD
 70
3
  9
$DIMTXSTY
  7
Standard
  9
$DIMAUNIT
 70
0
  9
$DIMADEC
 70
0
  9
$DIMALTRND
 40
0.0
  9
$DIMAZIN
 70
0
  9
$DIMDSEP
 70
44
  9
$DIMATFIT
 70
3
  9
$DIMFRAC
 70
0
  9
$DIMLDRBLK
  1

  9
$DIMLUNIT
 70
2
  9
$DIMLWD
 70
-2
  9
$DIMLWE
 70
-2
  9
$DIMTMOVE
 70
0
  9
$LUNITS
 70
2
  9
$LUPREC
 70
4
  9
$SKETCHINC
 40
1.0
  9
$FILLETRAD
 40
10.0
  9
$AUNITS
 70
0
  9
$AUPREC
 70
2
  9
$MENU
  1
.
  9
$ELEVATION
 40
0.0
  9
$PELEVATION
 40
0.0
  9
$THICKNESS
 40
0.0
  9
$LIMCHECK
 70
0
  9
$CHAMFERA
 40
0.0
  9
$CHAMFERB
 40
0.0
  9
$CHAMFERC
 40
0.0
  9
$CHAMFERD
 40
0.0
  9
$SKPOLY
 70
0
  9
$TDCREATE
 40
2461293.491400463
  9
$TDUCREATE
 40
2458532.153996898
  9
$TDUPDATE
 40
2461293.491400463
  9
$TDUUPDATE
 40
2458532.1544311
  9
$TDINDWG
 40
0.0
  9
$TDUSRTIMER
 40
0.0
  9
$USRTIMER
 70
1
  9
$ANGBASE
 50
0.0
  9
$ANGDIR
 70
0
  9
$PDMODE
 70
0
  9
$PDSIZE
 40
0.0
  9
$PLINEWID
 40
0.0
  9
$SPLFRAME
 70
0
  9
$SPLINETYPE
 70
6
  9
$SPLINESEGS
 70
8
  9
$HANDSEED
  5
5A
  9
$SURFTAB1
 70
6
  9
$SURFTAB2
 70
6
  9
$SURFTYPE
 70
6
  9
$SURFU
 70
6
  9
$SURFV
 70
6
  9
$UCSBASE
  2

  9
$UCSNAME
  2

  9
$UCSORG
 10
0.0
 20
0.0
 30
0.0
  9
$UCSXDIR
 10
1.0
 20
0.0
 30
0.0
  9
$UCSYDIR
 10
0.0
 20
1.0
 30
0.0
  9
$UCSORTHOREF
  2

  9
$UCSORTHOVIEW
 70
0
  9
$UCSORGTOP
 10
0.0
 20
0.0
 30
0.0
  9
$UCSORGBOTTOM
 10
0.0
 20
0.0
 30
0.0
  9
$UCSORGLEFT
 10
0.0
 20
0.0
 30
0.0
  9
$UCSORGRIGHT
 10
0.0
 20
0.0
 30
0.0
  9
$UCSORGFRONT
 10
0.0
 20
0.0
 30
0.0
  9
$UCSORGBACK
 10
0.0
 20
0.0
 30
0.0
  9
$PUCSBASE
  2

  9
$PUCSNAME
  2

  9
$PUCSORG
 10
0.0
 20
0.0
 30
0.0
  9
$PUCSXDIR
 10
1.0
 20
0.0
 30
0.0
  9
$PUCSYDIR
 10
0.0
 20
1.0
 30
0.0
  9
$PUCSORTHOREF
  2

  9
$PUCSORTHOVIEW
 70
0
  9
$PUCSORGTOP
 10
0.0
 20
0.0
 30
0.0
  9
$PUCSORGBOTTOM
 10
0.0
 20
0.0
 30
0.0
  9
$PUCSORGLEFT
 10
0.0
 20
0.0
 30
0.0
  9
$PUCSORGRIGHT
 10
0.0
 20
0.0
 30
0.0
  9
$PUCSORGFRONT
 10
0.0
 20
0.0
 30
0.0
  9
$PUCSORGBACK
 10
0.0
 20
0.0
 30
0.0
  9
$USERI1
 70
0
  9
$USERI2
 70
0
  9
$USERI3
 70
0
  9
$USERI4
 70
0
  9
$USERI5
 70
0
  9
$USERR1
 40
0.0
  9
$USERR2
 40
0.0
  9
$USERR3
 40
0.0
  9
$USERR4
 40
0.0
  9
$USERR5
 40
0.0
  9
$WORLDVIEW
 70
1
  9
$SHADEDGE
 70
3
  9
$SHADEDIF
 70
70
  9
$TILEMODE
 70
1
  9
$MAXACTVP
 70
64
  9
$PINSBASE
 10
0.0
 20
0.0
 30
0.0
  9
$PLIMCHECK
 70
0
  9
$PEXTMIN
 10
1e+20
 20
1e+20
 30
1e+20
  9
$PEXTMAX
 10
-1e+20
 20
-1e+20
 30
-1e+20
  9
$PLIMMIN
 10
0.0
 20
0.0
  9
$PLIMMAX
 10
420.0
 20
297.0
  9
$UNITMODE
 70
0
  9
$VISRETAIN
 70
1
  9
$PLINEGEN
 70
0
  9
$PSLTSCALE
 70
1
  9
$TREEDEPTH
 70
3020
  9
$CMLSTYLE
  2
Standard
  9
$CMLJUST
 70
0
  9
$CMLSCALE
 40
20.0
  9
$PROXYGRAPHICS
 70
1
  9
$MEASUREMENT
 70
1
  9
$CELWEIGHT
370
-1
  9
$ENDCAPS
280
0
  9
$JOINSTYLE
280
0
  9
$LWDISPLAY
290
0
  9
$INSUNITS
 70
4
  9
$HYPERLINKBASE
  1

  9
$STYLESHEET
  1

  9
$XEDIT
290
1
  9
$CEPSNTYPE
380
0
  9
$PSTYLEMODE
290
1
  9
$FINGERPRINTGUID
  2
{59D1FEC6-90D6-4D2A-8E0F-E714E72DE3D9}
  9
$VERSIONGUID
  2
{0810B48E-7AC2-405E-8BC5-4D23BFAC03F6}
  9
$EXTNAMES
290
1
  9
$PSVPSCALE
 40
0.0
  9
$OLESTARTUP
290
0
  0
ENDSEC
  0
SECTION
  2
CLASSES
  0
CLASS
  1
ACDBDICTIONARYWDFLT
  2
AcDbDictionaryWithDefault
  3
ObjectDBX Classes
 90
0
280
0
281
0
  0
CLASS
  1
SUN
  2
AcDbSun
  3
SCENEOE
 90
1153
280
0
281
0
  0
CLASS
  1
VISUALSTYLE
  2
AcDbVisualStyle
  3
ObjectDBX Classes
 90
4095
280
0
281
0
  0
CLASS
  1
MATERIAL
  2
AcDbMaterial
  3
ObjectDBX Classes
 90
1153
280
0
281
0
  0
CLASS
  1
SCALE
  2
AcDbScale
  3
ObjectDBX Classes
 90
1153
280
0
281
0
  0
CLASS
  1
TABLESTYLE
  2
AcDbTableStyle
  3
ObjectDBX Classes
 90
4095
280
0
281
0
  0
CLASS
  1
MLEADERSTYLE
  2
AcDbMLeaderStyle
  3
ACDB_MLEADERSTYLE_CLASS
 90
4095
280
0
281
0
  0
CLASS
  1
DICTIONARYVAR
  2
AcDbDictionaryVar
  3
ObjectDBX Classes
 90
0
280
0
281
0
  0
CLASS
  1
CELLSTYLEMAP
  2
AcDbCellStyleMap
  3
ObjectDBX Classes
 90
1152
280
0
281
0
  0
CLASS
  1
MENTALRAYRENDERSETTINGS
  2
AcDbMentalRayRenderSettings
  3
SCENEOE
 90
1024
280
0
281
0
  0
CLASS
  1
ACDBDETAILVIEWSTYLE
  2
AcDbDetailViewStyle
  3
ObjectDBX Classes
 90
1025
280
0
281
0
  0
CLASS
  1
ACDBSECTIONVIEWSTYLE
  2
AcDbSectionViewStyle
  3
ObjectDBX Classes
 90
1025
280
0
281
0
  0
CLASS
  1
RASTERVARIABLES
  2
AcDbRasterVariables
  3
ISM
 90
0
280
0
281
0
  0
CLASS
  1
ACDBPLACEHOLDER
  2
AcDbPlaceHolder
  3
ObjectDBX Classes
 90
0
280
0
281
0
  0
CLASS
  1
LAYOUT
  2
AcDbLayout
  3
ObjectDBX Classes
 90
0
280
0
281
0
  0
ENDSEC
  0
SECTION
  2
TABLES
  0
TABLE
  2
VPORT
  5
8
330
0
100
AcDbSymbolTable
 70
1
  0
VPORT
  5
23
330
8
100
AcDbSymbolTableRecord
100
AcDbViewportTableRecord
  2
*Active
 70
0
 10
0.0
 20
0.0
 11
1.0
 21
1.0
 12
0.0
 22
0.0
 13
0.0
 23
0.0
 14
0.5
 24
0.5
 15
0.5
 25
0.5
 16
0.0
 26
0.0
 36
1.0
 17
0.0
 27
0.0
 37
0.0
 40
1000.0
 41
1.34
 42
50.0
 43
0.0
 44
0.0
 50
0.0
 51
0.0
 71
0
 72
1000
 73
1
 74
3
 75
0
 76
0
 77
0
 78
0
281
0
 65
0
146
0.0
  0
ENDTAB
  0
TABLE
  2
LTYPE
  5
2
330
0
100
AcDbSymbolTable
 70
3
  0
LTYPE
  5
24
330
2
100
AcDbSymbolTableRecord
100
AcDbLinetypeTableRecord
  2
ByBlock
 70
0
  3

 72
65
 73
0
 40
0.0
  0
LTYPE
  5
25
330
2
100
AcDbSymbolTableRecord
100
AcDbLinetypeTableRecord
  2
ByLayer
 70
0
  3

 72
65
 73
0
 40
0.0
  0
LTYPE
  5
26
330
2
100
AcDbSymbolTableRecord
100
AcDbLinetypeTableRecord
  2
Continuous
 70
0
  3

 72
65
 73
0
 40
0.0
  0
ENDTAB
  0
TABLE
  2
LAYER
  5
1
330
0
100
AcDbSymbolTable
 70
3
  0
LAYER
  5
27
330
1
100
AcDbSymbolTableRecord
100
AcDbLayerTableRecord
  2
0
 70
0
 62
7
  6
Continuous
370
-3
390
13
  0
LAYER
  5
28
330
1
100
AcDbSymbolTableRecord
100
AcDbLayerTableRecord
  2
Defpoints
 70
0
 62
7
  6
Continuous
290
0
370
-3
390
13
  0
LAYER
  5
2F
330
1
100
AcDbSymbolTableRecord
100
AcDbLayerTableRecord
  2
CUT
 70
0
 62
7
  6
Continuous
370
-3
390
13
  0
ENDTAB
  0
TABLE
  2
STYLE
  5
5
330
0
100
AcDbSymbolTable
 70
1
  0
STYLE
  5
29
330
5
100
AcDbSymbolTableRecord
100
AcDbTextStyleTableRecord
  2
Standard
 70
0
 40
0.0
 41
1.0
 50
0.0
 71
0
 42
2.5
  3
txt
  4

  0
ENDTAB
  0
TABLE
  2
VIEW
  5
7
330
0
100
AcDbSymbolTable
 70
0
  0
ENDTAB
  0
TABLE
  2
UCS
  5
6
330
0
100
AcDbSymbolTable
 70
0
  0
ENDTAB
  0
TABLE
  2
APPID
  5
3
330
0
100
AcDbSymbolTable
 70
3
  0
APPID
  5
2A
330
3
100
AcDbSymbolTableRecord
100
AcDbRegAppTableRecord
  2
ACAD
 70
0
  0
APPID
  5
57
330
3
100
AcDbSymbolTableRecord
100
AcDbRegAppTableRecord
  2
HATCHBACKGROUNDCOLOR
 70
0
  0
APPID
  5
58
330
3
100
AcDbSymbolTableRecord
100
AcDbRegAppTableRecord
  2
EZDXF
 70
0
  0
ENDTAB
  0
TABLE
  2
DIMSTYLE
  5
4
330
0
100
AcDbSymbolTable
 70
1
100
AcDbDimStyleTable
  0
DIMSTYLE
105
2B
330
4
100
AcDbSymbolTableRecord
100
AcDbDimStyleTableRecord
  2
Standard
 70
0
  3

  4

 40
1.0
 41
2.5
 42
0.625
 43
3.75
 44
1.25
 45
0.0
 46
0.0
 47
0.0
 48
0.0
140
2.5
141
2.5
142
0.0
143
0.03937007874
144
1.0
145
0.0
146
1.0
147
0.625
148
0.0
 71
0
 72
0
 73
0
 74
0
 75
0
 76
0
 77
1
 78
8
 79
3
170
0
171
3
172
1
173
0
174
0
175
0
176
0
177
0
178
0
179
2
271
2
272
2
273
2
274
3
275
0
276
0
277
2
278
44
279
0
280
0
281
0
282
0
283
0
284
8
285
0
286
0
288
0
289
3
371
-2
372
-2
  0
ENDTAB
  0
TABLE
  2
BLOCK_RECORD
  5
9
330
0
100
AcDbSymbolTable
 70
2
  0
BLOCK_RECORD
  5
17
330
9
100
AcDbSymbolTableRecord
100
AcDbBlockTableRecord
  2
*Model_Space
340
1A
  0
BLOCK_RECORD
  5
1B
330
9
100
AcDbSymbolTableRecord
100
AcDbBlockTableRecord
  2
*Paper_Space
340
1E
  0
ENDTAB
  0
ENDSEC
  0
SECTION
  2
BLOCKS
  0
BLOCK
  5
18
330
17
100
AcDbEntity
  8
0
100
AcDbBlockBegin
  2
*Model_Space
 70
0
 10
0.0
 20
0.0
 30
0.0
  3
*Model_Space
  1

  0
ENDBLK
  5
19
330
17
100
AcDbEntity
  8
0
100
AcDbBlockEnd
  0
BLOCK
  5
1C
330
1B
100
AcDbEntity
  8
0
100
AcDbBlockBegin
  2
*Paper_Space
 70
0
 10
0.0
 20
0.0
 30
0.0
  3
*Paper_Space
  1

  0
ENDBLK
  5
1D
330
1B
100
AcDbEntity
  8
0
100
AcDbBlockEnd
  0
ENDSEC
  0
SECTION
  2
ENTITIES
  0
CIRCLE
  5
30
330
17
100
AcDbEntity
  8
CUT
100
AcDbCircle
 10
0.0
 20
0.0
 30
0.0
 40
400.0
  0
LWPOLYLINE
  5
31
330
17
100
AcDbEntity
  8
CUT
100
AcDbPolyline
 90
39
 70
1
 10
-12.296716917954495
 20
-263.0637560126
 10
-35.487437002181146
 20
-258.58067271928076
 10
-57.532186611295266
 20
-251.51827121497527
 10
-88.045493798851
 20
-238.98082397286774
 10
-100.97526573619474
 20
-234.69400965275216
 10
-115.6079640068909
 20
-231.00664429526162
 10
-127.4663747119009
 20
-229.167737744069
 10
-137.68432247100702
 20
-228.22110048065477
 10
-154.4150822014895
 20
-228.22893459084935
 10
-163.94151523572117
 20
-229.13942514341025
 10
-184.8648530949215
 20
-232.76306990765832
 10
-197.19456336621238
 20
-236.44445828275136
 10
-198.6802228212288
 20
-235.86990635544288
 10
-198.49422135298525
 20
-234.2879147665699
 10
-189.87306338395476
 20
-229.88823944909345
 10
-180.21554369147046
 20
-226.04607849928018
 10
-163.67627467108284
 20
-220.84406560304382
 10
-145.4850584138832
 20
-217.24356880689268
 10
-136.70627187141892
 20
-216.37267681976778
 10
-120.98438096161019
 20
-216.32369046899316
 10
-104.87213985876758
 20
-218.14282085790236
 10
-81.32864826387441
 20
-223.57834083165432
 10
-65.43136424126926
 20
-228.9094776335764
 10
-40.907999348106905
 20
-238.8305746029047
 10
-15.839950074580708
 20
-247.4941504654029
 10
2.3136901534277934
 20
-251.15181207148729
 10
19.920742352477347
 20
-252.98559011838057
 10
44.29720375644029
 20
-252.9520160802064
 10
70.15017600173954
 20
-248.72750890338563
 10
71.2617625451624
 20
-248.95158837594826
 10
71.77458549925603
 20
-249.96294828779835
 10
70.96340873525635
 20
-251.19100803790977
 10
63.45194623531255
 20
-254.23463258143528
 10
43.01632253715211
 20
-260.4110524679413
 10
26.68427638657844
 20
-263.10991725581636
 10
18.44906602274154
 20
-263.2150756586296
 10
14.430749273546613
 20
-264.02282565483756
 10
-1.2551813239845897
 20
-264.02460920085923
 10
-5.271557923421991
 20
-263.22224822460686
  0
LWPOLYLINE
  5
32
330
17
100
AcDbEntity
  8
CUT
100
AcDbPolyline
 90
35
 70
1
 10
-136.3060965441233
 20
-191.55337659075755
 10
-145.86996848319365
 20
-192.48497547443674
 10
-162.98968630486488
 20
-195.19705235765403
 10
-192.54662090403113
 20
-203.5710026751376
 10
-193.95671784072368
 20
-203.16758723531944
 10
-193.85693492802395
 20
-201.399693658279
 10
-183.5185114107101
 20
-196.14421386633734
 10
-171.6370585025241
 20
-191.14659139564145
 10
-147.40366202624676
 20
-184.22912178447797
 10
-126.67079848391356
 20
-180.59568689435665
 10
-118.23865594244789
 20
-180.4747842691364
 10
-114.22210298808373
 20
-179.65097564734205
 10
-95.08195914603277
 20
-179.6586643798203
 10
-64.5746604227284
 20
-184.08740268273078
 10
-43.79501105756012
 20
-189.50545370947896
 10
-5.330962567325954
 20
-202.95798152014828
 10
21.455725397662942
 20
-209.2121461132257
 10
41.520664552691066
 20
-211.92525862550633
 10
68.07061109802974
 20
-211.94256267313747
 10
84.92071777687693
 20
-210.11689523489406
 10
110.15312557501605
 20
-205.34297059777532
 10
111.33971264444881
 20
-205.63322518729862
 10
111.76166768511371
 20
-206.77960668738567
 10
111.04641273531237
 20
-207.7698828896995
 10
107.11010695294058
 20
-209.69131517660432
 10
92.53836914166853
 20
-214.81289152611717
 10
82.5310375026155
 20
-217.5657138168026
 10
64.66928534895827
 20
-221.14411155246302
 10
46.25817221748172
 20
-222.96447642127507
 10
22.26421533390291
 20
-222.9299395035996
 10
-5.143768409542906
 20
-219.41570440974095
 10
-23.466114252375583
 20
-214.85802026400663
 10
-75.16495349327946
 20
-197.88273637730214
 10
-91.22814620733088
 20
-194.30884824678253
 10
-111.12363519985489
 20
-191.58845153111892
  0
LWPOLYLINE
  5
33
330
17
100
AcDbEntity
  8
CUT
100
AcDbPolyline
 90
32
 70
1
 10
-105.1835655104395
 20
-116.94818864756593
 10
-106.26091064947124
 20
-117.78139008584179
 10
-106.51397106512354
 20
-125.21673516236129
 10
-106.00443152774483
 20
-127.03110647167806
 10
-104.69790851262653
 20
-128.03957095801832
 10
-102.03261063769239
 20
-128.09729977820464
 10
-98.60375513068975
 20
-125.87288372342144
 10
-95.49405855543046
 20
-127.57850679947376
 10
-95.39610095707364
 20
-130.09617372989015
 10
-96.0397893037822
 20
-133.57707729258163
 10
-96.81223692622703
 20
-134.24769673870045
 10
-101.3530578964738
 20
-131.13966895631233
 10
-105.98320807169594
 20
-131.62450543060825
 10
-106.4630218416251
 20
-141.9286779421247
 10
-105.42819731293005
 20
-143.3227860268641
 10
-97.1438193339309
 20
-143.31887730915662
 10
-90.8626549548081
 20
-138.11525570484665
 10
-89.93588586829785
 20
-139.7149197307644
 10
-91.37606809989504
 20
-145.8427209076941
 10
-94.32166943016931
 20
-147.19499957472885
 10
-115.38660896515393
 20
-146.70042828201824
 10
-115.72816292438637
 20
-144.91606923552936
 10
-113.34972751355102
 20
-141.75373249100312
 10
-113.30504736726363
 20
-120.1683100343543
 10
-113.64323141725939
 20
-117.34834606284053
 10
-115.59466891406338
 20
-114.75505814433747
 10
-115.5871674511693
 20
-113.74417419387395
 10
-94.23676098769111
 20
-113.22232130504652
 10
-92.45926552593791
 20
-115.09661854832206
 10
-92.5742518646529
 20
-119.48537050379193
 10
-95.33264388187062
 20
-117.97243283817008
 10
-97.45674973207922
 20
-117.26889253765317
  0
LWPOLYLINE
  5
34
330
17
100
AcDbEntity
  8
CUT
100
AcDbPolyline
 90
34
 70
1
 10
-141.2336391047152
 20
-122.81992130525342
 10
-143.04002038716538
 20
-127.37647490856887
 10
-147.09723534976368
 20
-130.70148989937522
 10
-147.51295648595686
 20
-132.04295667195103
 10
-141.54668433178637
 20
-140.26064873302482
 10
-136.64650751491195
 20
-145.32739161370822
 10
-136.54417844914843
 20
-146.3498514386981
 10
-142.0929253481686
 20
-147.1850825624147
 10
-144.81404703723288
 20
-146.4192713277972
 10
-147.23052816912835
 20
-143.9124050746244
 10
-154.20496032507614
 20
-133.3640149313503
 10
-156.27845910224346
 20
-132.32877985211564
 10
-157.11357847765652
 20
-133.47601456604292
 10
-157.17079650765444
 20
-141.26072532813282
 10
-154.75600799969584
 20
-146.26544485722343
 10
-157.8717514997455
 20
-147.20737706187344
 10
-166.01039219794907
 20
-146.72080209863304
 10
-166.32673821087968
 20
-144.7739870020846
 10
-164.0968436527426
 20
-142.1738728120531
 10
-164.00259755210814
 20
-118.71820946671035
 10
-166.18246551925827
 20
-113.71909145755102
 10
-160.11764138541895
 20
-113.52292547717461
 10
-159.78722320177096
 20
-123.73839795921698
 10
-157.02255536810364
 20
-123.64897512286788
 10
-156.89133446472042
 20
-128.5268815708181
 10
-155.32421275537754
 20
-129.23306162751086
 10
-151.6562094103112
 20
-128.2066669713409
 10
-148.99790193062074
 20
-125.26554643124842
 10
-149.29396224728043
 20
-119.75225212376617
 10
-152.4978040563066
 20
-117.10665048720783
 10
-152.62156152587056
 20
-113.28046570881573
 10
-149.79441752909597
 20
-113.18902208876116
 10
-144.6479849550402
 20
-115.40996102204177
 10
-142.2730875450023
 20
-118.08088183127832
  0
LWPOLYLINE
  5
35
330
17
100
AcDbEntity
  8
CUT
100
AcDbPolyline
 90
37
 70
1
 10
-10.276328556742891
 20
-134.22486771746972
 10
-10.228144880176238
 20
-141.89446913250524
 10
-9.10066899502572
 20
-145.55430885362983
 10
-11.846581837642077
 20
-147.10077493765763
 10
-18.758220763580315
 20
-146.80783545840788
 10
-19.52341119129592
 20
-145.6566060635782
 10
-17.71887028038825
 20
-143.50310155745947
 10
-17.086354313496916
 20
-141.54705748620907
 10
-17.059849771064854
 20
-120.74285559911378
 10
-17.508910342862066
 20
-117.18755395107092
 10
-19.526287361907993
 20
-114.8219473105715
 10
-19.47722142411481
 20
-114.02505010872866
 10
-17.253589318018378
 20
-113.1114203170481
 10
-12.376430490523468
 20
-113.11685241283928
 10
-12.388208491278139
 20
-123.69162549473316
 10
-10.08542664138418
 20
-123.69419029363294
 10
-9.99002974149041
 20
-128.52623797421458
 10
-8.426235879741368
 20
-129.23282832992507
 10
-4.681959056288701
 20
-128.18538318431786
 10
-1.3112599829907199
 20
-124.15210203565867
 10
-1.2670767899402422
 20
-120.12862529275111
 10
-3.03806226440428
 20
-117.77508496757201
 10
-4.88103436690262
 20
-117.25457850176036
 10
-4.876435142439913
 20
-113.1252057789291
 10
1.9479629739672046
 20
-114.8864201769078
 10
5.454103240250802
 20
-119.53271296045834
 10
5.713448482014715
 20
-124.69115610575093
 10
3.2524000136625286
 20
-128.0779657645157
 10
-0.17293471653722797
 20
-130.74535356455655
 10
-0.3322936921880896
 20
-131.85418619017022
 10
6.542887937076047
 20
-141.47921271843882
 10
10.251185016754295
 20
-145.3599321144235
 10
10.350186024290728
 20
-146.37900702879008
 10
5.52204636560768
 20
-147.16220188761275
 10
1.5060381402473868
 20
-145.66258707961504
 10
-6.786690266166723
 20
-133.74949451917496
 10
-9.23042068740656
 20
-132.25624093658328
  0
LWPOLYLINE
  5
36
330
17
100
AcDbEntity
  8
CUT
100
AcDbPolyline
 90
25
 70
1
 10
-70.73101290404642
 20
-117.67114926639314
 10
-69.69808568904551
 20
-114.39092192012346
 10
-66.55726245641955
 20
-113.1010065211167
 10
-42.959133557458735
 20
-113.15690519391353
 10
-40.86188972282415
 20
-114.68837134288442
 10
-41.12568115131692
 20
-120.57141016309559
 10
-42.44390400206691
 20
-121.2445382724311
 10
-45.115697197497575
 20
-117.79619127276919
 10
-46.77757276443798
 20
-116.92002141020183
 10
-51.60496163666564
 20
-116.99994930566767
 10
-52.562631321126126
 20
-117.82976588690654
 10
-52.68229686694852
 20
-137.5884038895851
 10
-51.39513887696072
 20
-143.07771034430323
 10
-48.47100979031047
 20
-146.3605732129275
 10
-49.28813280932833
 20
-146.93621295607045
 10
-61.74934545368576
 20
-146.71460593725848
 10
-62.040082002081164
 20
-145.7793973582092
 10
-59.720263615388
 20
-142.1738285480003
 10
-58.79330768256022
 20
-133.35156862942992
 10
-59.26964603431287
 20
-130.67244641557951
 10
-58.634282719158996
 20
-127.53591211523633
 10
-58.70593973658713
 20
-118.12741414781048
 10
-59.81545454494558
 20
-116.93634573013065
 10
-64.91158639326842
 20
-116.97568998415281
 10
-69.57258654962924
 20
-121.35175616062463
  0
LWPOLYLINE
  5
37
330
17
100
AcDbEntity
  8
CUT
100
AcDbPolyline
 90
41
 70
1
 10
-220.84332988262207
 20
-89.43724738683352
 10
-222.60135486549044
 20
-87.3065175669793
 10
-229.1143389582266
 20
-67.67878619209561
 10
-231.86288931204876
 20
-61.981271407448865
 10
-241.52741448630312
 20
-88.08874130865586
 10
-243.67167033300203
 20
-89.79723139139136
 10
-246.00528242977498
 20
-89.05601796669714
 10
-259.6653865374067
 20
-48.54974083694541
 10
-261.14803315515013
 20
-46.09264206178051
 10
-264.3712249954477
 20
-43.29260234732604
 10
-263.6743624614878
 20
-41.632780395897285
 10
-261.5555360928568
 20
-40.97222825505297
 10
-248.156789571502
 20
-41.26135374902857
 10
-246.6276293921428
 20
-43.52236168330086
 10
-249.46764639340674
 20
-45.19940059096505
 10
-249.90394929647383
 20
-46.93145121712916
 10
-241.30093384327327
 20
-73.5978068059753
 10
-233.67853009253628
 20
-53.11249184720689
 10
-235.58715021456365
 20
-46.85553253238347
 10
-238.95674078710417
 20
-43.59783161361721
 10
-238.39183934896346
 20
-41.75239230205992
 10
-229.4802481928939
 20
-41.77038906749871
 10
-225.47714744572215
 20
-40.94685789240492
 10
-222.5072617722261
 20
-42.05777680289048
 10
-222.87856139338416
 20
-43.96482653786487
 10
-225.46892841119578
 20
-45.54194173337303
 10
-225.9635093374325
 20
-47.92046314860506
 10
-219.6277718984478
 20
-68.04153697267648
 10
-217.33199823826098
 20
-73.32357665091945
 10
-214.2720382477991
 20
-65.96595128973156
 10
-208.39917059510208
 20
-47.299795644109246
 10
-208.81308051119888
 20
-46.136775823763095
 10
-212.35776446208888
 20
-44.11466400250111
 10
-212.564521035483
 20
-42.111387055992346
 10
-211.19380888659904
 20
-41.14492655019693
 10
-208.80809411126253
 20
-40.92510809072445
 10
-198.06563577550187
 20
-42.0292554126905
 10
-198.29481975353076
 20
-43.89981210915628
 10
-202.02070522492545
 20
-46.39411364364122
 10
-204.02177062373474
 20
-50.11815745532363
 10
-218.404247358619
 20
-89.33779441105987
  0
LWPOLYLINE
  5
38
330
17
100
AcDbEntity
  8
CUT
100
AcDbPolyline
 90
32
 70
1
 10
-88.90665981210748
 20
-87.53218688372228
 10
-90.06641718086213
 20
-88.96951565365124
 10
-105.6175188518952
 20
-89.19374340957364
 10
-108.10912421003353
 20
-87.88407357990262
 10
-107.7465392608142
 20
-86.12782161317236
 10
-104.39159944435617
 20
-84.5300963429981
 10
-103.27846521231208
 20
-82.72367243303952
 10
-103.5600520621106
 20
-46.92003766553882
 10
-112.03408438816045
 20
-46.66008488408972
 10
-114.68066603495134
 20
-49.00210361070431
 10
-116.77756099908981
 20
-53.21822852125021
 10
-118.38850121495865
 20
-53.87452574983126
 10
-119.6204069577374
 20
-52.62817193471901
 10
-119.70608860285392
 20
-45.43352787306636
 10
-117.86814884458997
 20
-41.34435662270246
 10
-106.15845682379143
 20
-41.783441382876816
 10
-102.38078349439373
 20
-41.01370583317457
 10
-84.52950141924833
 20
-41.77647745835348
 10
-80.45845126819533
 20
-41.02285150670243
 10
-78.9061961905689
 20
-41.761033141753295
 10
-77.77746733372113
 20
-44.019597091647135
 10
-77.64395746559518
 20
-51.18890339597019
 10
-78.0253005000533
 20
-52.763180105886605
 10
-79.45963950440039
 20
-53.90300220709818
 10
-80.33156561061904
 20
-53.62231908293099
 10
-83.22477009170785
 20
-48.56179639538213
 10
-85.32819661730636
 20
-46.667646809510636
 10
-92.99179905889456
 20
-46.469556739564155
 10
-94.02846361612765
 20
-47.134086647410015
 10
-94.10690108046742
 20
-82.65715140319377
 10
-92.54253426152933
 20
-84.91143145359212
 10
-88.94353062970256
 20
-86.46380088465938
  0
LWPOLYLINE
  5
39
330
17
100
AcDbEntity
  8
CUT
100
AcDbPolyline
 90
44
 70
1
 10
-21.75776339684215
 20
-88.88499244716836
 10
-51.49072193368624
 20
-89.20832750847717
 10
-54.728106523413025
 20
-88.13999347612909
 10
-54.611903212021915
 20
-86.32423215977224
 10
-51.05342190297002
 20
-83.35590530973292
 10
-49.92128806877921
 20
-72.4604857181165
 10
-50.76846450657277
 20
-66.45942806791346
 10
-50.89995739144042
 20
-47.220398814879324
 10
-54.71782633308628
 20
-42.55607487990919
 10
-51.817162811310524
 20
-40.95111803874452
 10
-47.21466888330634
 20
-41.63669250134126
 10
-43.547822200876716
 20
-41.060546122353514
 10
-40.226371705828775
 20
-41.74620259282205
 10
-35.61593688656027
 20
-41.05612184655236
 10
-22.496433705448748
 20
-42.29987590686153
 10
-21.440331873066086
 20
-43.60069738829473
 10
-20.867359268512256
 20
-50.19526782964865
 10
-22.256632995933767
 20
-52.47054452325549
 10
-24.09135799461552
 20
-50.98513033140828
 10
-25.686304401919102
 20
-50.3076881297595
 10
-27.795484928338823
 20
-47.11937018438939
 10
-30.80338429021589
 20
-45.79879880333053
 10
-39.989873727308854
 20
-45.65335055426452
 10
-41.41182137392617
 20
-46.68370160105954
 10
-41.47914451245337
 20
-61.431322503843
 10
-32.35291444268071
 20
-61.752192981159936
 10
-31.16829109893735
 20
-61.03379143621038
 10
-29.187399323862774
 20
-57.766409608981704
 10
-27.64662330029418
 20
-58.85364742599811
 10
-26.951769600411772
 20
-69.38209349011186
 10
-27.582653917751838
 20
-71.69476564811819
 10
-28.598222827894798
 20
-72.16673449737762
 10
-32.2265271195901
 20
-67.54782518362997
 10
-41.10436221124613
 20
-67.43165062759428
 10
-41.759421141195375
 20
-68.81646731160268
 10
-41.56296893735595
 20
-83.04754120941477
 10
-39.51718503949314
 20
-84.39481297026644
 10
-34.47219338715706
 20
-84.55027290847111
 10
-28.21994989392069
 20
-83.68070119085785
 10
-25.00025222425188
 20
-82.01235198375915
 10
-21.18875131600917
 20
-76.88421083847625
 10
-19.591741105117936
 20
-76.56047066427317
 10
-18.428352522655903
 20
-79.3337986761836
 10
-20.12478938795022
 20
-86.97647736942233
  0
LWPOLYLINE
  5
3A
330
17
100
AcDbEntity
  8
CUT
100
AcDbPolyline
 90
31
 70
1
 10
-151.14754033473622
 20
-84.85535191920872
 10
-150.7384742284692
 20
-84.01286498750883
 10
-153.07530338151227
 20
-76.60269200150006
 10
-154.49563690835538
 20
-74.20819315542691
 10
-156.45499574899577
 20
-73.50305970578285
 10
-166.52738725642274
 20
-73.48966951208013
 10
-169.04739384869555
 20
-74.10048688391119
 10
-172.54701903725956
 20
-83.40161475043551
 10
-172.2630670096519
 20
-84.36262317229789
 10
-168.6056302573027
 20
-86.24711174322154
 10
-168.55733835086048
 20
-88.38039055423957
 10
-171.61094925694343
 20
-89.20696572011494
 10
-182.2231807304368
 20
-88.62961836668032
 10
-182.7233961336878
 20
-87.82881553685769
 10
-182.3291429250263
 20
-86.1202887347649
 10
-178.5616069790303
 20
-83.47259521907164
 10
-176.88712274210275
 20
-80.29460005498474
 10
-165.27105019685405
 20
-50.626889626172996
 10
-165.27105019685405
 20
-64.37267725247067
 10
-166.28576547570435
 20
-68.24145425157164
 10
-165.01745251370255
 20
-68.81712752846268
 10
-156.68510182163348
 20
-68.22852284349831
 10
-157.81197023175042
 20
-65.12787475814045
 10
-157.77105019685405
 20
-40.60019773500389
 10
-141.92141273739784
 20
-81.08298642185034
 10
-140.27777143507868
 20
-84.13895895292214
 10
-136.38956702320309
 20
-86.1882949421111
 10
-136.0630158285577
 20
-88.11250218049283
 10
-139.1096475768595
 20
-89.20245793934745
 10
-153.1706807927909
 20
-88.780476864204
 10
-154.01772513825676
 20
-86.21709702614606
  0
LWPOLYLINE
  5
3B
330
17
100
AcDbEntity
  8
CUT
100
AcDbPolyline
 90
124
 70
1
 10
-192.27133644731748
 20
90.51993967643236
 10
-194.98741637873857
 20
70.00507738042097
 10
-200.10874023163836
 20
40.00588697095985
 10
-200.21322354584447
 20
34.36122680029416
 10
-202.77020514473443
 20
15.074155170242019
 10
-202.77507882337864
 20
4.17340874795086
 10
-201.8503228984384
 20
-0.8416072584868622
 10
-200.54271472333423
 20
-3.4881881296640813
 10
-198.85153441096512
 20
-4.154041491154948
 10
-193.4542041611951
 20
-0.21340580819720661
 10
-186.4288828876998
 20
8.513858972046439
 10
-173.64499366892966
 20
27.701800732113092
 10
-164.31305989051782
 20
44.76609543666521
 10
-149.33617956859035
 20
79.0216395355605
 10
-140.55774492838339
 20
105.46651972399637
 10
-136.14772256326364
 20
125.830954538269
 10
-135.23321202429193
 20
133.28119637060885
 10
-135.3379014232278
 20
150.5353750837867
 10
-137.10448942026235
 20
159.28426557941881
 10
-140.23633496625325
 20
166.05203315634694
 10
-138.62201369401458
 20
167.4335675822518
 10
-133.09628993631483
 20
167.0405769369527
 10
-129.1385038849461
 20
164.95089050083604
 10
-125.92126025912894
 20
161.26615865134949
 10
-122.78446957893014
 20
153.9785364709909
 10
-121.58105636649816
 20
146.65294156523973
 10
-121.6065548105737
 20
137.45342099876746
 10
-124.30347119219333
 20
121.04891530873923
 10
-129.62248859458487
 20
101.50831155173555
 10
-140.29801232646238
 20
72.95653022959527
 10
-152.94081834383823
 20
45.878206984133215
 10
-170.17057457451165
 20
15.926034280186832
 10
-182.22507201362433
 20
-1.517897684554045
 10
-190.6784232384103
 20
-10.591236313187368
 10
-193.90324192805437
 20
-13.106886066997015
 10
-199.82714601372038
 20
-16.1259598288619
 10
-204.3933849876209
 20
-17.20350852658896
 10
-209.9835684126639
 20
-16.041272226782905
 10
-216.0108371172487
 20
-12.829232024865295
 10
-221.1391767078167
 20
-5.082435363475968
 10
-223.36551677141006
 20
4.682698378572085
 10
-223.45085876921576
 20
10.952853652205102
 10
-224.27192557294111
 20
14.965226289412646
 10
-223.38741737840238
 20
36.99134648185219
 10
-218.231052324787
 20
69.14873025239355
 10
-218.0898918368442
 20
73.41183105789106
 10
-216.35044482681937
 20
81.00318918386736
 10
-216.75766376553798
 20
81.71041890202657
 10
-217.4037940034379
 20
81.51211129317444
 10
-262.6209611155794
 20
1.2648701224678005
 10
-272.2854009785402
 20
-13.666787577796041
 10
-277.9270364853306
 20
-21.19440014152668
 10
-284.3702873506174
 20
-27.650291463523516
 10
-291.2639706789925
 20
-31.104003807484364
 10
-296.9466832825228
 20
-31.010429524671096
 10
-304.3508238301293
 20
-27.52028147840713
 10
-308.16900098961406
 20
-21.444883404225916
 10
-309.6957074241586
 20
-16.314909428333934
 10
-309.82477667199737
 20
-2.8970550101803707
 10
-306.21202042924546
 20
18.902329718122346
 10
-294.377598435984
 20
62.207005582800804
 10
-288.97792696149475
 20
83.84562274274124
 10
-286.3483474956953
 20
98.01396560166982
 10
-285.4606889430871
 20
112.26985640526782
 10
-287.39701083999273
 20
123.76427366816334
 10
-289.04510155053663
 20
127.94837899016213
 10
-291.6935795010024
 20
131.288272051871
 10
-295.8373309644507
 20
133.6276490160502
 10
-301.7096539870377
 20
133.75586161901654
 10
-306.15655893820934
 20
132.72972053493453
 10
-316.23714721377
 20
128.63620616973765
 10
-326.60487389646175
 20
122.06216784206356
 10
-331.83709666192686
 20
117.82762232686689
 10
-341.65812867886547
 20
107.97425721167924
 10
-351.69425287844683
 20
92.84226671090775
 10
-355.42529137856985
 20
82.52888529725125
 10
-355.55074599919254
 20
72.61137022708378
 10
-353.90776711717626
 20
68.02142267995909
 10
-349.70040871306105
 20
63.67512032067595
 10
-344.26422939785823
 20
62.46858231931372
 10
-343.326985668697
 20
61.692853843156115
 10
-343.28480275989506
 20
60.73884990917545
 10
-345.5940327719085
 20
59.036951560209666
 10
-351.7875210930924
 20
58.78222041527989
 10
-358.31515681111625
 20
61.590457497688625
 10
-362.41522062905347
 20
65.50641320997663
 10
-366.33175973211127
 20
74.01721572195343
 10
-366.59107971142487
 20
81.80548838318786
 10
-358.8038169893359
 20
102.7346894057492
 10
-348.8394990206393
 20
117.60883009974974
 10
-340.7656475619206
 20
125.63664534674089
 10
-329.3975079213776
 20
134.09030182231592
 10
-316.3712447107909
 20
140.13543962877148
 10
-307.02519077847984
 20
142.91396768580557
 10
-300.1871606896039
 20
143.8782711354056
 10
-288.69083141628346
 20
142.92691715468126
 10
-284.8642021938277
 20
141.67720832337116
 10
-276.63847547428753
 20
137.55152110959995
 10
-271.64435385174653
 20
133.64214497466202
 10
-266.2198886068775
 20
123.94144682013878
 10
-263.96487503206936
 20
115.59049525806246
 10
-263.95231366548734
 20
100.06691926476981
 10
-264.74123866734817
 20
96.71635101518004
 10
-264.8757046531996
 20
89.90585146212159
 10
-271.9720793904788
 20
57.00872653374554
 10
-282.07267734131074
 20
20.620821498710672
 10
-286.5378133960413
 20
0.13321675043871473
 10
-288.3420718048931
 20
-12.810709427093293
 10
-287.76237809307264
 20
-14.891773891860641
 10
-286.90112628169067
 20
-15.319563265761387
 10
-282.70916039120937
 20
-11.812884555294259
 10
-278.6011453066564
 20
-6.646632488893852
 10
-259.4468866651608
 20
23.829383686266464
 10
-240.4680840763162
 20
57.19950916952609
 10
-235.65722720813517
 20
64.3799493716584
 10
-216.02097386642188
 20
100.9626973466045
 10
-207.0516273242391
 20
120.41327718349486
 10
-203.96763968412534
 20
122.79779685331256
 10
-200.2990958570653
 20
122.91559983687618
 10
-197.05936453067054
 20
121.81491342085907
 10
-193.23173732094617
 20
119.34532148196203
 10
-191.01904999290167
 20
116.54299166629252
 10
-189.7664297911946
 20
112.68043965244152
 10
-189.77310790810148
 20
102.93630418752069
  0
LWPOLYLINE
  5
3C
330
17
100
AcDbEntity
  8
CUT
100
AcDbPolyline
 90
26
 70
1
 10
-57.1512348284716
 20
177.945188877073
 10
-72.0996034627501
 20
179.17934683514218
 10
-74.65668893954295
 20
176.75844966080942
 10
-75.84566985981482
 20
169.87231902325888
 10
-76.95406392885397
 20
169.33791040665488
 10
-78.01153549449597
 20
169.96710343716336
 10
-78.77961936493705
 20
186.13986995761152
 10
-81.30983009408098
 20
205.61745836127062
 10
-81.31744522859502
 20
239.3419073111574
 10
-80.74890031611211
 20
243.18003993741016
 10
-81.41365611128461
 20
254.44836028750765
 10
-83.10092508731297
 20
264.63697882644124
 10
-82.03978044570869
 20
265.1349432356536
 10
-81.0092178603434
 20
264.57642979723613
 10
-69.69936179993488
 20
248.31113653610987
 10
-45.62559754579567
 20
224.00068172196669
 10
-34.30674340593987
 20
210.07900391043475
 10
-24.680338689164355
 20
196.10512597194014
 10
-20.28258050248707
 20
187.48404290810035
 10
-14.94648730609898
 20
173.31737451275455
 10
-12.03836797936568
 20
160.1577094699369
 10
-12.67113614399586
 20
158.74515248868633
 10
-13.867019084104909
 20
158.70477829670727
 10
-20.42149162174028
 20
163.7657055229274
 10
-27.95735619469196
 20
167.9049383890964
 10
-40.552362152967405
 20
173.3570854132751
  0
LWPOLYLINE
  5
3D
330
17
100
AcDbEntity
  8
CUT
100
AcDbPolyline
 90
25
 70
1
 10
-313.3071903023924
 20
170.36758010070807
 10
-330.9199320650539
 20
162.35497477157847
 10
-337.2660132072933
 20
158.5991833057302
 10
-338.0992093318724
 20
159.34707812440857
 10
-338.042049997683
 20
160.46524414622044
 10
-329.3759169834429
 20
176.4725335576422
 10
-323.70147065202644
 20
190.3803977651619
 10
-314.46362554940424
 20
208.81340814180902
 10
-304.67809746757746
 20
225.63898488888782
 10
-287.0040385679372
 20
250.33569431382338
 10
-270.49168040600887
 20
267.73729470011904
 10
-252.6070486963969
 20
282.1563668645065
 10
-249.0
 20
279.4115427318801
 10
-245.18957931342106
 20
277.76805985715214
 10
-246.7314327122348
 20
276.8135881653211
 10
-253.17415775759025
 20
271.42226947415753
 10
-259.5230927457477
 20
263.9437083758427
 10
-265.7702332137738
 20
253.18018912230866
 10
-270.3456057328307
 20
242.25572780826062
 10
-273.8937271431578
 20
231.5696108417219
 10
-276.94448816072236
 20
218.84019307199426
 10
-282.2348707867178
 20
203.96493455847232
 10
-287.4310920640166
 20
194.50354881987158
 10
-293.86226584168384
 20
186.24968836847404
 10
-305.3137919165563
 20
175.71904551514265
  0
LWPOLYLINE
  5
3E
330
17
100
AcDbEntity
  8
CUT
100
AcDbPolyline
 90
111
 70
1
 10
-168.7538367283235
 20
323.89006432206475
 10
-176.554086263013
 20
321.5665882346286
 10
-183.64462249859278
 20
314.452603097387
 10
-196.42258269431167
 20
314.39784540651743
 10
-199.24674583975164
 20
315.16025547909584
 10
-199.06327825960935
 20
317.0737336481514
 10
-187.2326389218707
 20
323.03335373406895
 10
-164.43725215163568
 20
329.3178328182725
 10
-149.7062213789599
 20
329.34248682799694
 10
-142.78754017931618
 20
327.6542348983586
 10
-137.79165864818225
 20
325.75743259294984
 10
-133.10030881921904
 20
322.80856970004834
 10
-127.84750748540142
 20
317.5849372264048
 10
-123.25979337380856
 20
310.40417960886583
 10
-122.225952744198
 20
306.0272208999735
 10
-122.20447372818873
 20
295.228690596022
 10
-124.791903003908
 20
276.74832659051765
 10
-122.79781759624453
 20
260.99386939876877
 10
-120.09138008319816
 20
250.20583612115095
 10
-117.9238065366605
 20
244.62579940769692
 10
-110.3935208139267
 20
214.16706055901238
 10
-107.28922480736418
 20
206.1212802040767
 10
-93.75396393682807
 20
179.85685792001252
 10
-92.64326262743835
 20
176.00411627700944
 10
-93.14053182483018
 20
174.99356147547584
 10
-99.01233002207208
 20
173.47424878847087
 10
-105.58055773945118
 20
179.24626741181748
 10
-114.54762080508036
 20
183.73878912026453
 10
-124.13667006348912
 20
186.6178976948207
 10
-134.42420663627783
 20
187.65361525145926
 10
-141.54665248389875
 20
186.57195774174303
 10
-154.11420374530732
 20
183.01178777480928
 10
-166.67041268542198
 20
177.2929338311547
 10
-183.3665096193552
 20
171.20436227140965
 10
-193.08179461313324
 20
168.56432973940852
 10
-206.68098652917553
 20
166.57528002068446
 10
-216.1535779721055
 20
164.1595492327718
 10
-223.87557364703366
 20
164.96047880194317
 10
-235.98264201921387
 20
164.62072056445436
 10
-257.5481364007112
 20
168.53883716142732
 10
-273.52400369649524
 20
172.64482834515383
 10
-279.50922056857104
 20
173.40392717912226
 10
-287.33918089697255
 20
172.83414690516344
 10
-288.386144105354
 20
173.36476441058457
 10
-288.117595463451
 20
175.17464823583413
 10
-280.67230580637187
 20
180.77014317165631
 10
-268.69960671206536
 20
192.76543807515986
 10
-260.54894046072457
 20
202.71412136221286
 10
-252.9431435605911
 20
213.64401828969585
 10
-234.82153936420863
 20
231.86542678011466
 10
-223.36066675920637
 20
246.2073860045718
 10
-219.01680540923732
 20
253.9376412068892
 10
-215.2416253026041
 20
264.3249649575873
 10
-214.12783873176193
 20
269.9879120642486
 10
-213.07734016019384
 20
286.4897057802107
 10
-210.15878477721267
 20
294.3128584490791
 10
-207.41966259081713
 20
298.7860409362005
 10
-205.85567756446343
 20
298.34604767808156
 10
-201.44158610153798
 20
292.1456033998626
 10
-194.80147180018764
 20
277.924684473752
 10
-191.33944621439912
 20
266.58264393956057
 10
-191.45002555871778
 20
260.4884339400283
 10
-197.805817996223
 20
253.85631896719042
 10
-200.71534930647084
 20
244.16410764771715
 10
-199.3880019503966
 20
236.68179597647008
 10
-195.07394080271015
 20
230.0676200531
 10
-194.13892988339268
 20
225.44055368824988
 10
-192.23090413606906
 20
223.3898684965241
 10
-186.3721622016934
 20
221.35762098729023
 10
-182.53736000693195
 20
221.07639741947688
 10
-176.96567191326272
 20
222.22389621973576
 10
-171.64587926661451
 20
224.47341403557263
 10
-169.0146046758009
 20
227.94567966226415
 10
-170.46307705321064
 20
232.50471455784577
 10
-168.8435610903736
 20
235.04880034160712
 10
-167.78819405642346
 20
239.94655148425082
 10
-167.9440706161271
 20
247.668836733909
 10
-170.19100111840228
 20
254.28252472179906
 10
-173.143046690078
 20
258.2942978263158
 10
-176.17101643903484
 20
260.2924441316595
 10
-181.706449239699
 20
262.2628911535076
 10
-183.28868024439504
 20
264.5120255350313
 10
-185.50771656981166
 20
273.5132918765165
 10
-188.20872206532277
 20
280.86216603250875
 10
-187.69936399796345
 20
282.39930933798263
 10
-186.44660961759786
 20
282.49245134466474
 10
-168.95536043384124
 20
274.3828128594813
 10
-168.1548746484712
 20
269.53548795245257
 10
-166.37878506897707
 20
264.95672923972046
 10
-163.52905260815479
 20
260.812931039506
 10
-159.0021189003581
 20
256.9102136957104
 10
-155.76102876781397
 20
255.41322638264378
 10
-149.31837803797742
 20
254.28478107571567
 10
-140.16967035964396
 20
256.12060838144004
 10
-137.39327492743863
 20
257.84556932880605
 10
-133.04553518432607
 20
265.61011960104236
 10
-133.03923307914465
 20
276.3228871719463
 10
-134.54898124646994
 20
279.2201154283605
 10
-141.95311219839596
 20
286.4437648115598
 10
-147.83547599011152
 20
289.4433598124147
 10
-153.74991587235607
 20
289.8323120526283
 10
-154.82236818358632
 20
290.48516122539803
 10
-154.84251903247133
 20
291.7405336583988
 10
-152.88230975596036
 20
293.9280865198058
 10
-149.52887134246035
 20
302.05371468176486
 10
-149.55358254138162
 20
310.1668846145894
 10
-150.65957657067858
 20
313.93110082908873
 10
-152.7397481410247
 20
316.551952914496
 10
-157.59220296510645
 20
318.4146335682074
 10
-159.55477335407383
 20
320.73162664534016
 10
-162.21534976763377
 20
322.41958609027705
  0
LWPOLYLINE
  5
3F
330
17
100
AcDbEntity
  8
CUT
100
AcDbPolyline
 90
38
 70
1
 10
-67.69180975750514
 20
313.1578161081435
 10
-65.57594695003812
 20
314.8597609356654
 10
-65.17181337951138
 20
318.8222467922329
 10
-63.743490991241465
 20
320.54340210817435
 10
-62.39837138433912
 20
324.40638496784493
 10
-64.34947904319465
 20
328.6779980265484
 10
-64.92449293032054
 20
332.62913467457315
 10
-66.08933293312151
 20
335.24025841113337
 10
-69.39351057862166
 20
338.7645053271009
 10
-75.81177011809662
 20
342.55109615537754
 10
-74.9190194810627
 20
344.07780645844684
 10
-72.02717309013366
 20
344.1193034290944
 10
-65.64371192272148
 20
341.6502173089759
 10
-61.183025959105734
 20
339.14044405594785
 10
-56.88490759111772
 20
334.7348624034222
 10
-54.211061324095816
 20
330.3412096783814
 10
-48.206951267417516
 20
315.1338924032589
 10
-43.02986178488411
 20
307.9843788197774
 10
-30.926566358026843
 20
295.7699628832462
 10
-26.90249514171349
 20
289.81053058590953
 10
-10.689559058266171
 20
249.5316770785005
 10
-6.059055143939811
 20
232.0023070437559
 10
-2.5472759847486386
 20
209.6501946645032
 10
-2.509876371432113
 20
196.81506791601487
 10
-3.0821276461341784
 20
195.7340660110777
 10
-4.298598152401246
 20
195.60664486974582
 10
-5.082433186858163
 20
196.54560135363306
 10
-8.240828069684223
 20
211.62604878080103
 10
-14.450877088024217
 20
230.29055745607178
 10
-23.103884877377997
 20
248.52787753064595
 10
-35.689673921558146
 20
269.2184672920568
 10
-49.74539585866596
 20
288.71987564958323
 10
-57.308423421938876
 20
296.28461239370523
 10
-62.38182534454929
 20
300.35090611624327
 10
-75.22703750510115
 20
307.75301783021945
 10
-75.0235436558313
 20
309.2094851539122
 10
-72.79966970797912
 20
310.2583817671174
 10
-70.64992664838869
 20
312.879101392074
  0
LWPOLYLINE
  5
40
330
17
100
AcDbEntity
  8
CUT
100
AcDbPolyline
 90
11
 70
1
 10
-175.74018821232184
 20
286.78585792312333
 10
-187.29535080859284
 20
291.91383313971426
 10
-196.63034700698475
 20
299.4795664612819
 10
-199.42990156265034
 20
303.73764124469335
 10
-199.36871255125385
 20
305.22515280496776
 10
-194.1971970580127
 20
305.7603214145638
 10
-185.71366695212566
 20
303.86862767636876
 10
-182.94164391707778
 20
296.39407163565267
 10
-178.25066360867706
 20
291.28609211759425
 10
-173.98880334724936
 20
288.19806844333203
 10
-174.31595597729293
 20
287.1199387411518
  0
LWPOLYLINE
  5
41
330
17
100
AcDbEntity
  8
CUT
100
AcDbPolyline
 90
11
 70
1
 10
-127.96068910872306
 20
333.079310496309
 10
-112.09308828784069
 20
336.2863027827122
 10
-103.8704634132388
 20
336.1658421262954
 10
-97.85213943642155
 20
333.6945451741029
 10
-94.80110121762931
 20
331.1644147741499
 10
-94.0601875837873
 20
321.69462438968617
 10
-92.62763405797321
 20
317.0595924465784
 10
-94.27293549025988
 20
316.173049357946
 10
-113.96600365846285
 20
322.43536871529636
 10
-127.4496843306407
 20
330.00117826131043
 10
-129.0734249985881
 20
331.69926053570657
  0
LWPOLYLINE
  5
42
330
17
100
AcDbEntity
  8
CUT
100
AcDbPolyline
 90
15
 70
1
 10
-150.98495999600541
 20
343.0130980179085
 10
-140.98444898567118
 20
347.49449069170754
 10
-118.48137010824114
 20
355.2839526160653
 10
-93.15886083210374
 20
361.6340835907122
 10
-85.51285666428251
 20
362.91813347819925
 10
-84.12988237646846
 20
362.20752784384564
 10
-84.16072401777622
 20
361.0055155883598
 10
-87.2662912384946
 20
358.05785180431883
 10
-93.10653072899261
 20
354.2114373804805
 10
-107.13582983802904
 20
347.6788663760166
 10
-118.5930541494218
 20
344.1569885658592
 10
-127.46602647827206
 20
342.36009625608307
 10
-141.5785796685939
 20
340.5317256055157
 10
-151.47681765624404
 20
341.0252021367477
 10
-151.71529063741173
 20
342.13900380999735
  0
LWPOLYLINE
  5
43
330
17
100
AcDbEntity
  8
CUT
100
AcDbPolyline
 90
17
 70
1
 10
100.9611550485404
 20
-356.6050896215839
 10
94.63490028478718
 20
-359.50059088333103
 10
93.68558833437403
 20
-358.80341675405293
 10
93.68901843643827
 20
-357.62560811928586
 10
106.50933756348472
 20
-341.9148168301406
 10
113.59877449632806
 20
-328.0064623525729
 10
117.07001998427849
 20
-319.546129134338
 10
123.4602297781985
 20
-309.54449923467024
 10
129.35652164279526
 20
-303.79977519276133
 10
139.36336019723836
 20
-297.9546326248664
 10
140.87297660638373
 20
-298.09695705000627
 10
141.31490478312878
 20
-299.1808571177842
 10
137.13004446673355
 20
-314.36639724207924
 10
133.0039000509975
 20
-322.83617841497164
 10
125.53095767123054
 20
-334.94576414547214
 10
118.95499346430894
 20
-342.43810479890254
 10
111.41964737249168
 20
-349.06216562832583
  0
LWPOLYLINE
  5
44
330
17
100
AcDbEntity
  8
CUT
100
AcDbPolyline
 90
37
 70
1
 10
130.26094929083715
 20
-284.705655264755
 10
129.93706408464234
 20
-286.2069563031827
 10
121.62044874066977
 20
-291.03825725229535
 10
112.86979283534684
 20
-299.5223482952274
 10
102.43664557240231
 20
-306.9570330821082
 10
87.98555749546848
 20
-314.2034395779308
 10
71.39067540502957
 20
-321.172297280075
 10
42.38617520394287
 20
-331.7465648426138
 10
32.351267017994225
 20
-334.4851763185288
 10
19.128528676667255
 20
-337.12736763902626
 10
9.430249985314461
 20
-338.0729916381453
 10
-6.972843521648062
 20
-338.0995489838618
 10
-11.779627617500848
 20
-338.8789594487901
 10
-12.92146941849226
 20
-338.1094251690745
 10
-12.200109041411102
 20
-336.35318567185726
 10
-1.222072503354644
 20
-333.1662526636221
 10
17.8277383563704
 20
-324.57503319943777
 10
31.40110999913151
 20
-316.4516865386422
 10
57.33157467971295
 20
-297.9425624409017
 10
65.02849190009076
 20
-293.14733377325325
 10
78.22899162699895
 20
-286.5863178447218
 10
88.92017315527393
 20
-283.01856504703153
 10
95.42494266732037
 20
-281.7232756920203
 10
99.58027449966069
 20
-279.5429027138406
 10
101.62441100417796
 20
-280.20651059616847
 10
104.8051075463516
 20
-280.2668130353516
 10
105.93139503802831
 20
-281.2035114793521
 10
107.59402717303809
 20
-281.76789903850425
 10
109.6725707751054
 20
-281.5422349480659
 10
110.91610423471148
 20
-281.89994591238695
 10
113.0263535954865
 20
-281.6635191671248
 10
114.29879978353915
 20
-282.03548831123334
 10
115.8740369409224
 20
-281.95582362416974
 10
118.05814714913284
 20
-282.52621605769656
 10
119.22283285209419
 20
-282.37288227599737
 10
120.44755563583641
 20
-281.8301806019665
 10
129.33629235131338
 20
-283.9619065899369
  0
LWPOLYLINE
  5
45
330
17
100
AcDbEntity
  8
CUT
100
AcDbPolyline
 90
13
 70
1
 10
186.8520297230646
 20
-289.8595391669182
 10
186.84808888206823
 20
-296.10703803359394
 10
185.27077381436806
 20
-300.2088530584309
 10
181.15587421664955
 20
-304.0617705763075
 10
172.53085766332063
 20
-300.00342245826323
 10
165.52687445851498
 20
-299.15980824393284
 10
165.0126676722013
 20
-292.5858001656111
 10
167.26218203048734
 20
-286.71325068274075
 10
170.39870478917646
 20
-283.5281845733625
 10
172.6331108809582
 20
-282.27632315287894
 10
178.01895078925304
 20
-281.77668576483734
 10
180.79917129004843
 20
-280.6122494791793
 10
185.09115656402395
 20
-285.4312485042013
  0
LWPOLYLINE
  5
46
330
17
100
AcDbEntity
  8
CUT
100
AcDbPolyline
 90
21
 70
1
 10
201.73223347414927
 20
-289.2841036483008
 10
204.44166779974825
 20
-277.4342806605322
 10
206.98194453207208
 20
-269.75882760888254
 10
210.02131817671028
 20
-263.5476588454622
 10
215.66400188683895
 20
-254.98669781234662
 10
218.29670564873462
 20
-252.18977803025385
 10
232.4839303328985
 20
-242.94252301055084
 10
236.15245599064426
 20
-239.52358539090935
 10
237.38698045279259
 20
-239.588434413932
 10
238.00906764484057
 20
-240.6567337956221
 10
237.627560714234
 20
-258.6809668670826
 10
236.7336994581537
 20
-264.37875423043573
 10
232.25013155909087
 20
-279.70882210879944
 10
229.75834183733804
 20
-284.73976163412624
 10
216.89995775024607
 20
-303.01406378607027
 10
200.3745683793804
 20
-317.73505798566396
 10
194.53148416486934
 20
-321.72174233348125
 10
193.30622119074764
 20
-321.8498745353434
 10
192.6372718752915
 20
-320.0653480042442
 10
196.00897790824123
 20
-313.2863861475971
 10
200.52430040084292
 20
-298.8602189050928
  0
LWPOLYLINE
  5
47
330
17
100
AcDbEntity
  8
CUT
100
AcDbPolyline
 90
29
 70
1
 10
200.9483188549795
 20
-221.90193476523186
 10
201.92275259971947
 20
-222.63956556713882
 10
201.5798326659077
 20
-224.18045630062886
 10
194.0662760202402
 20
-228.1774596657884
 10
187.8791239371292
 20
-234.25653947632588
 10
179.81476740910003
 20
-245.68370392067973
 10
174.53671655054055
 20
-251.0482605595967
 10
167.4918023784856
 20
-257.2102993014729
 10
161.5162920395619
 20
-261.25419965164275
 10
151.8525547973567
 20
-266.10207425309284
 10
137.48995726549018
 20
-271.50104529874056
 10
121.32889358441201
 20
-274.94545367498154
 10
120.30814714913284
 20
-274.12910174066656
 10
119.22283285209417
 20
-273.67954983939575
 10
117.07027785673982
 20
-273.64437886857803
 10
115.47353551351961
 20
-273.1124845588691
 10
113.3632861527446
 20
-273.34891130413126
 10
112.09083996469194
 20
-272.9769421600227
 10
110.01229636262464
 20
-273.20260625046103
 10
108.18139503802831
 20
-272.8063971623221
 10
106.58711564868985
 20
-273.10555835044283
 10
106.70955897102974
 20
-272.0275578092719
 10
111.3258953101905
 20
-267.362454052611
 10
127.97607777593029
 20
-247.34114558323054
 10
137.74680689552468
 20
-238.50438064610245
 10
152.71508965892002
 20
-228.7876840164657
 10
164.5753618993258
 20
-223.76520330599465
 10
183.35782334088947
 20
-220.01733007545155
 10
189.56595404000163
 20
-220.08134082896385
  0
LWPOLYLINE
  5
48
330
17
100
AcDbEntity
  8
CUT
100
AcDbPolyline
 90
18
 70
1
 10
306.61266305601964
 20
-200.7506753729026
 10
299.9125561891019
 20
-216.12667471211049
 10
289.8408459731102
 20
-232.6068217846652
 10
282.8235935934489
 20
-242.27237190352648
 10
277.84031201050675
 20
-248.35448355158306
 10
276.76128243436585
 20
-248.8285037289449
 10
275.5366248999775
 20
-247.46052000361883
 10
279.34728364897444
 20
-230.0459306825028
 10
279.38385431664653
 20
-208.4343640260594
 10
280.3108905387396
 20
-199.47317084916511
 10
284.78133491582855
 20
-179.71645762923922
 10
293.61270183294346
 20
-163.86485038977878
 10
308.82888264675967
 20
-147.52775311041216
 10
310.3300795672032
 20
-147.27538215613953
 10
311.0346495367963
 20
-148.21625293285075
 10
312.7431146198798
 20
-158.06861570375932
 10
312.74296733204625
 20
-176.37783051556235
 10
309.19912283269406
 20
-192.89106342082633
  0
LWPOLYLINE
  5
49
330
17
100
AcDbEntity
  8
CUT
100
AcDbPolyline
 90
21
 70
1
 10
258.974452922633
 20
-166.24632599506324
 10
244.08030378847837
 20
-173.66413231365703
 10
227.38874831757406
 20
-179.84769218986546
 10
218.45884723991185
 20
-182.20713884776745
 10
203.22240820985368
 20
-187.61375314732982
 10
188.87329618297298
 20
-194.84140640328508
 10
187.45435843661096
 20
-194.34918458685956
 10
187.44654989610058
 20
-192.84731719214352
 10
194.83725304740454
 20
-182.2873857730386
 10
213.22969660814024
 20
-158.63203284687216
 10
223.34786923243686
 20
-148.43455030816716
 10
228.92328919773786
 20
-144.51998672380896
 10
233.93696138242893
 20
-139.73823111103206
 10
242.48282774385368
 20
-134.10720683824877
 10
256.80263094699006
 20
-127.48691122988895
 10
267.08924068581086
 20
-124.06268327833601
 10
301.4814837831674
 20
-118.30142197404622
 10
302.01928029400415
 20
-120.03645770241219
 10
293.66106050327363
 20
-129.4410960828143
 10
280.2691512133747
 20
-149.58387539270072
 10
269.82884070097793
 20
-159.06832535240633
  0
LWPOLYLINE
  5
4A
330
17
100
AcDbEntity
  8
CUT
100
AcDbPolyline
 90
22
 70
1
 10
85.92199749406706
 20
-146.7968070552063
 10
77.79752935165695
 20
-146.80551923689924
 10
77.03813887797507
 20
-145.10426437739602
 10
80.54728721440765
 20
-141.83713609718964
 10
88.3734310885201
 20
-122.47156345519457
 10
88.3734310885201
 20
-132.9147878192116
 10
95.8734310885201
 20
-132.9147878192116
 10
95.8734310885201
 20
-114.67214848770278
 10
106.37477039568779
 20
-141.69115131015252
 10
109.47614029570586
 20
-145.53829559516353
 10
109.53019662128878
 20
-146.505548549048
 10
101.25947017683045
 20
-147.1954765689583
 10
98.76794394261789
 20
-146.62332202086455
 10
98.38533984780048
 20
-145.7299772018488
 10
100.00254493772792
 20
-142.43735677293463
 10
98.1138995893744
 20
-137.62235482223207
 10
96.7935441059923
 20
-136.37938613283706
 10
94.01569479232077
 20
-136.06860077874757
 10
88.71273122580439
 20
-136.1196950380133
 10
87.20949345469276
 20
-136.8101513777111
 10
84.68938189919542
 20
-142.77300636755973
 10
86.296615356894
 20
-145.8792858707463
  0
LWPOLYLINE
  5
4B
330
17
100
AcDbEntity
  8
CUT
100
AcDbPolyline
 90
24
 70
1
 10
136.70471759377918
 20
-117.90883186846396
 10
135.61173574814137
 20
-116.9698602559678
 10
130.73856666539862
 20
-116.93919213199281
 10
129.22004623866863
 20
-117.80892266858794
 10
127.4570468824395
 20
-120.82330199116875
 10
126.62894190835173
 20
-121.02070749592495
 10
126.02582133766106
 20
-120.22064399082667
 10
126.10118267293987
 20
-115.01836189567705
 10
127.43204948562813
 20
-113.51698364918738
 10
151.12395735708157
 20
-113.11838891171877
 10
153.58186668738267
 20
-114.54253241586774
 10
153.4696480524128
 20
-119.27693102986225
 10
152.86893333104072
 20
-120.04582584047495
 10
150.0960293644748
 20
-117.50930181496211
 10
148.42568427108768
 20
-116.88597788675183
 10
143.99901640964327
 20
-116.91957242823132
 10
142.79516147086915
 20
-118.12648756409409
 10
142.76957856530336
 20
-142.05778960981064
 10
145.85509669845408
 20
-146.08541821551862
 10
143.24448393699566
 20
-147.18688151483437
 10
134.30888087050204
 20
-146.97419174342724
 10
133.4751840120568
 20
-145.24275727023007
 10
136.32071013754577
 20
-143.17136040169348
 10
136.9052800422691
 20
-141.49974633703619
  0
LWPOLYLINE
  5
4C
330
17
100
AcDbEntity
  8
CUT
100
AcDbPolyline
 90
30
 70
1
 10
41.39446131009858
 20
-128.04618663743136
 10
46.20070029745099
 20
-128.21098787857818
 10
48.00715707254521
 20
-127.40144384371737
 10
49.159067616414085
 20
-126.04282976267616
 10
50.9732137489032
 20
-126.77663576636752
 10
51.37007762300687
 20
-133.30988002515716
 10
50.02814796079925
 20
-134.54467942845594
 10
46.835256208061196
 20
-131.20873508762617
 10
40.98173942084129
 20
-131.46922128220373
 10
40.3871702119684
 20
-132.99072247473734
 10
40.498439808550145
 20
-142.31650384862402
 10
41.78987871665741
 20
-143.40007901966695
 10
50.295712018196504
 20
-143.40012102583006
 10
56.46399574173677
 20
-138.93578789342763
 10
57.12031982219837
 20
-139.90913714824904
 10
56.252261022351036
 20
-144.44355986497916
 10
54.774719672502805
 20
-146.68087576018274
 10
32.463608038846886
 20
-145.4901301278614
 10
33.540394520781646
 20
-141.80707121978963
 10
33.6773263743264
 20
-133.1712935985914
 10
34.604310688516335
 20
-128.59444567460866
 10
34.519666299290385
 20
-119.25079882607004
 10
31.41383927097989
 20
-114.83288579955658
 10
31.931660777561806
 20
-113.75776725475502
 10
42.65341524167466
 20
-113.0962388780858
 10
46.44320806683245
 20
-114.0308246887701
 10
46.23017380726418
 20
-115.32476069424197
 10
41.834904599753756
 20
-116.21289729817481
 10
40.732023510336774
 20
-117.3816309878171
 10
40.51920872815333
 20
-127.0416466926681
  0
LWPOLYLINE
  5
4D
330
17
100
AcDbEntity
  8
CUT
100
AcDbPolyline
 90
53
 70
1
 10
27.317058365673454
 20
-62.25723815495042
 10
29.65319356547278
 20
-60.554145889380926
 10
31.1606657666952
 20
-57.95934264631614
 10
31.860212832248877
 20
-54.58387327234431
 10
30.940792894209185
 20
-50.910033656551185
 10
28.430553011924918
 20
-47.61134743285585
 10
27.130056426557292
 20
-46.84155896229195
 10
28.18921241173991
 20
-41.9804056560811
 10
34.048545025469004
 20
-43.25704657153585
 10
38.166946147317404
 20
-46.12666562892202
 10
39.857245449537466
 20
-48.45511342110929
 10
41.09514894439337
 20
-53.7206320342585
 10
39.98125686531157
 20
-58.79899871659323
 10
38.480538474850604
 20
-61.53591146138257
 10
36.53065039320551
 20
-63.52965515120304
 10
31.532232198473853
 20
-66.59037964856779
 10
42.31852851812084
 20
-81.81968695230108
 10
44.63573518914634
 20
-84.14949648381246
 10
48.18390025883672
 20
-86.07101384461382
 10
48.52274342061164
 20
-88.31458301062784
 10
39.835500750473365
 20
-89.18294789058012
 10
35.49064995842111
 20
-87.45308074117887
 10
23.778499524168982
 20
-70.68823609585179
 10
21.537177302630163
 20
-68.61316917158925
 10
20.02502285608131
 20
-68.3147484015927
 10
18.9393728753944
 20
-68.63609246877081
 10
18.509143583856947
 20
-69.63333100821266
 10
18.610126796596518
 20
-82.89080526670884
 10
20.171294928638247
 20
-84.92889544008315
 10
23.444694875388006
 20
-85.92415786440083
 10
23.85123240781101
 20
-88.13083439222822
 10
20.730189735062044
 20
-89.18404366356567
 10
17.3463432310298
 20
-88.40448725161359
 10
8.519707732066902
 20
-88.07327937727189
 10
7.302991211770416
 20
-88.97318950097339
 10
5.984299157084589
 20
-88.80698121240879
 10
5.411643921699306
 20
-87.32236307292992
 10
6.367616078826577
 20
-86.46397707636108
 10
7.732480362330234
 20
-86.43596361784903
 10
9.912372566552133
 20
-84.44475891539932
 10
10.34745562166834
 20
-82.1780970508111
 10
10.262500047147514
 20
-49.069584933493665
 10
8.671119580472118
 20
-45.97856605778994
 10
5.751993556050007
 20
-43.91631230068425
 10
5.685138315308346
 20
-42.8099600700495
 10
8.930194092401761
 20
-41.88058338577879
 10
13.05828618880924
 20
-43.304923533667
 10
18.662848079631274
 20
-41.084468472171935
 10
20.713379968017115
 20
-41.06190232610348
 10
18.291826279064168
 20
-52.175981730744795
 10
18.729003388789664
 20
-62.32345897149793
 10
21.002905344439498
 20
-63.611441387325826
 10
23.465830086604566
 20
-63.54373270678662
  0
LWPOLYLINE
  5
4E
330
17
100
AcDbEntity
  8
CUT
100
AcDbPolyline
 90
41
 70
1
 10
90.5574654293841
 20
-78.02656399608975
 10
89.62790378702478
 20
-75.5631783753656
 10
86.13439890349633
 20
-72.00646908253194
 10
76.13241178231166
 20
-65.9594383662777
 10
71.96226865632418
 20
-61.996351018888454
 10
69.84600472665896
 20
-57.89097010164636
 10
69.74886516138173
 20
-52.90214999439688
 10
71.40910950828675
 20
-47.0169867311628
 10
73.70558650943691
 20
-43.992591342485554
 10
77.29175734579677
 20
-41.70580672229597
 10
83.60326142404011
 20
-40.21453467436965
 10
93.65380802870278
 20
-41.929843166734905
 10
94.88390804437594
 20
-42.884254900065216
 10
95.94131125279331
 20
-52.592383924548784
 10
94.8964571746419
 20
-53.95544661035643
 10
92.82276732667144
 20
-53.369186342477406
 10
88.81521727729226
 20
-46.77300914939103
 10
84.0091582253152
 20
-44.826442470662315
 10
82.50599910645849
 20
-44.901683157957926
 10
78.97330430796973
 20
-46.809067624792526
 10
77.10313900713417
 20
-51.25067430351632
 10
79.75989059636755
 20
-56.33993654077502
 10
92.06243696373141
 20
-63.6696615422083
 10
96.60845169653497
 20
-68.45036537455687
 10
98.77220941173728
 20
-75.10407225616432
 10
97.36279285043753
 20
-81.20308674356589
 10
93.81330417951595
 20
-86.25174577027599
 10
89.89988911532815
 20
-88.65405683902098
 10
85.2544492501431
 20
-89.93332158517485
 10
79.46203624652439
 20
-90.01040198270927
 10
69.79911933748186
 20
-87.40593798336165
 10
68.87671850250014
 20
-84.54352147643793
 10
68.88394567313023
 20
-76.9084062394041
 10
69.64085520711278
 20
-74.84223326039343
 10
71.84279064345361
 20
-75.13889509944275
 10
75.19989678038921
 20
-81.59871951672721
 10
77.47811762339096
 20
-83.6548772328491
 10
80.68308454607289
 20
-85.20445425973972
 10
83.64492194928557
 20
-85.37384416010897
 10
86.84828419013104
 20
-84.34787066115089
 10
89.71378354750094
 20
-81.33229497497459
  0
LWPOLYLINE
  5
4F
330
17
100
AcDbEntity
  8
CUT
100
AcDbPolyline
 90
44
 70
1
 10
229.34192584572307
 20
-89.20730003926721
 10
226.37772538872056
 20
-88.53726607732834
 10
226.14705524661738
 20
-86.34421758337974
 10
229.4061808841754
 20
-84.358968384123
 10
230.38457624476774
 20
-82.45602650370395
 10
230.43865582593466
 20
-48.63152032839557
 10
229.86343221602547
 20
-46.290675555519435
 10
225.9054070544941
 20
-43.892047066737405
 10
225.8378646638749
 20
-42.61952859807038
 10
227.9268860295058
 20
-41.81232325692285
 10
239.6353080203424
 20
-41.76084525081978
 10
242.75572665745824
 20
-41.01715983724332
 10
246.944361096566
 20
-41.775533406215864
 10
256.05931982367645
 20
-41.935290622692946
 10
257.71226154740003
 20
-44.07320759604117
 10
257.42414522112966
 20
-52.2572628002316
 10
256.31359749745826
 20
-52.91330138159314
 10
254.60731575893422
 20
-51.41208536379467
 10
253.03590535581483
 20
-47.873530166980984
 10
250.85115680607916
 20
-46.585398303280776
 10
240.04943798107743
 20
-46.095500511748995
 10
238.85098283152365
 20
-46.94920285115216
 10
238.89203041079813
 20
-61.31270104313706
 10
239.92088515239317
 20
-61.831782176639216
 10
247.50334360410326
 20
-61.6148498706762
 10
250.66259699039136
 20
-57.67050315773744
 10
251.8630868620105
 20
-57.538971067765814
 10
252.52536291206815
 20
-68.36916363480368
 10
251.95189433266034
 20
-70.79761686325557
 10
250.86435076283462
 20
-71.27795872087911
 10
248.3211874085581
 20
-67.62180631812656
 10
239.0009581247579
 20
-66.8832539943961
 10
238.57263933152007
 20
-82.1649629519334
 10
238.98268479224387
 20
-83.55644188323804
 10
240.6662805161304
 20
-84.52931201408258
 10
246.43306253174518
 20
-84.57164677151962
 10
251.9613816043314
 20
-83.70264133311379
 10
254.90056914139484
 20
-81.62401701231988
 10
258.360462085332
 20
-76.9097888134204
 10
259.403999721569
 20
-76.54431854934664
 10
260.0953629539152
 20
-77.17292945205847
 10
260.2760373160151
 20
-79.85730860471021
 10
258.21216130218403
 20
-87.73247917973292
 10
256.8782962541808
 20
-88.89711075953245
  0
LWPOLYLINE
  5
50
330
17
100
AcDbEntity
  8
CUT
100
AcDbPolyline
 90
41
 70
1
 10
198.2497057106698
 20
-83.32420622874527
 10
191.806116048078
 20
-87.02841934576676
 10
183.5642912076809
 20
-89.11711726283274
 10
161.299781309685
 20
-88.50099936526365
 10
161.34406611089875
 20
-86.50028671845281
 10
164.56931641838932
 20
-84.58923124576053
 10
165.71214429349587
 20
-82.74140758042311
 10
165.81118447743233
 20
-49.146558697125705
 10
165.21111825880112
 20
-46.50234773160976
 10
161.33595649329152
 20
-43.759939916385136
 10
160.94685351439713
 20
-42.736330129916055
 10
162.1249853546483
 20
-41.51013211607946
 10
166.39146357831768
 20
-41.08651156477132
 10
177.88035414719994
 20
-41.57068834075646
 10
177.7032851265555
 20
-45.77230787772011
 10
175.4985264306212
 20
-45.865063771977304
 10
174.8134281982064
 20
-47.30270825862756
 10
174.24667821812957
 20
-57.805751267001966
 10
174.76416854872468
 20
-60.76026287240787
 10
174.21505822390438
 20
-67.55022625984955
 10
174.76524105843785
 20
-72.96998615188073
 10
173.9959012449593
 20
-77.39573160322436
 10
175.41966336196379
 20
-83.77344395718015
 10
177.3415521467601
 20
-84.90943591997667
 10
182.776626188937
 20
-84.44974767787502
 10
186.96873671329467
 20
-83.30529679213834
 10
190.9996648724434
 20
-80.78719697393339
 10
195.85522778287364
 20
-72.84488519284064
 10
197.23128772761763
 20
-67.28830695545611
 10
197.01449326451976
 20
-61.384369941873274
 10
195.00936353798343
 20
-55.634661533650494
 10
192.29197828317746
 20
-51.4230514156802
 10
185.17846967977206
 20
-46.51911272448662
 10
185.37370287120896
 20
-41.88648083653928
 10
188.6048758747372
 20
-42.022652290007194
 10
197.16401102347797
 20
-45.80486775594839
 10
201.8766812861978
 20
-50.347096211498744
 10
205.08625019084127
 20
-56.59572437883082
 10
206.17937827533902
 20
-65.39965127753271
 10
203.7864777163313
 20
-75.41992828724301
 10
200.46887875288323
 20
-81.05517394039936
  0
LWPOLYLINE
  5
51
330
17
100
AcDbEntity
  8
CUT
100
AcDbPolyline
 90
19
 70
1
 10
125.54761812085263
 20
-82.74899082491251
 10
125.63534716464972
 20
-49.74992010568899
 10
124.91272049804691
 20
-46.98267776414712
 10
121.08749610746
 20
-43.72352450667939
 10
120.81404119745291
 20
-42.61420807238673
 10
121.89114796491214
 20
-41.3549235740387
 10
123.49695728160208
 20
-40.99366039827986
 10
138.36983785288075
 20
-42.55452866795337
 10
138.29333855118622
 20
-43.693894125752564
 10
134.7005108163808
 20
-45.94068452683112
 10
133.7900009069231
 20
-47.830817047147605
 10
133.75474242759293
 20
-81.67375331217234
 10
134.4903633808115
 20
-84.11101960522464
 10
138.34231503429353
 20
-86.15330380837209
 10
138.6817016744036
 20
-87.8713156014054
 10
136.20077990072204
 20
-89.19354323869209
 10
122.05417090226146
 20
-89.05939894926254
 10
121.00982114608452
 20
-86.71715860465561
 10
124.84345623138394
 20
-84.07094579139779
  0
LWPOLYLINE
  5
52
330
17
100
AcDbEntity
  8
CUT
100
AcDbPolyline
 90
501
 70
1
 10
25.772759137229077
 20
131.23391376260503
 10
31.712610627830095
 20
140.0529082173684
 10
39.22347766182264
 20
147.53083426634672
 10
44.26309891124716
 20
149.94435623475266
 10
50.11278935299827
 20
149.68063019581172
 10
52.57945753191253
 20
148.31867013441783
 10
55.01656945512184
 20
145.83215855349056
 10
57.38663509362439
 20
140.6983892069568
 10
57.310279289278725
 20
132.22594855336908
 10
55.41368432471682
 20
123.78122626752788
 10
50.174307493562054
 20
109.79510028580181
 10
39.92688295705579
 20
89.6614744558341
 10
34.28677107520214
 20
93.30436253573228
 10
42.45017932405432
 20
109.63686532241655
 10
46.29892254045598
 20
119.1809533315331
 10
49.80930230767147
 20
130.7320850241628
 10
49.194777460125884
 20
138.40636684667888
 10
43.34046970799217
 20
131.82151810686386
 10
37.03144866289072
 20
119.19490986666204
 10
30.62823122323981
 20
103.70359497049995
 10
28.74571529198383
 20
96.88327133853123
 10
28.334458078777242
 20
97.14889798409168
 10
24.265268399992305
 20
90.8487634333007
 10
26.654207373195316
 20
89.30577324243497
 10
23.19895948458973
 20
76.78746811805601
 10
24.009144907982567
 20
76.96962519963927
 10
30.527940508472803
 20
86.8037703462493
 10
35.857693278270844
 20
83.36133990504312
 10
29.117590520735806
 20
72.92595654603797
 10
19.191883373952567
 20
59.52148288355301
 10
16.495619758830273
 20
39.206163351087696
 10
15.75294799040308
 20
25.990579879787365
 10
16.5920878879023
 20
14.571728214758112
 10
17.91807842973638
 20
11.181068216415657
 10
19.870324223045923
 20
9.76283901947345
 10
23.284628721621925
 20
10.553783278103724
 10
28.598454415235697
 20
15.726329698319123
 10
39.19725110000188
 20
30.752498341464143
 10
45.04602767011086
 20
40.61532463655867
 10
48.33893880296455
 20
62.43460298985231
 10
52.87188032956102
 20
82.29582698438631
 10
58.188526024929516
 20
99.0719886150778
 10
67.92011020069143
 20
121.02672539123908
 10
75.61450033953894
 20
133.95810002944896
 10
82.83712921268221
 20
142.92839273608845
 10
90.29649129871191
 20
148.69802218762908
 10
97.30126657879032
 20
151.60470249975185
 10
101.54188428180481
 20
151.4853228249389
 10
105.17945843024627
 20
150.13496325946028
 10
107.53132407867452
 20
148.2830802037333
 10
110.65782904252495
 20
140.76882723722852
 10
110.58794847594487
 20
132.22819391968457
 10
104.3050546421708
 20
112.38577484445025
 10
96.45067103751552
 20
96.63359651282332
 10
79.54754110621572
 20
70.93749116948732
 10
75.43980073980256
 20
74.08084662535815
 10
77.33631963959606
 20
77.54487261363764
 10
77.39853513851213
 20
79.4769744295076
 10
87.40750682921586
 20
94.77604000413157
 10
96.67026963353194
 20
113.24947262268223
 10
102.27519579760462
 20
128.35061438708527
 10
103.11926487718286
 20
133.47602936877226
 10
103.04095730780948
 20
139.64917698064374
 10
102.11654343224177
 20
140.71661732324986
 10
100.35252937590678
 20
140.98342408940923
 10
96.93745206646823
 20
138.57746759626903
 10
88.04220696076366
 20
125.10660250926898
 10
77.89766789111565
 20
102.18744333097045
 10
71.2884558255569
 20
82.45785664551447
 10
70.28406838184848
 20
81.74914661866045
 10
69.5964142258132
 20
80.87847946814034
 10
68.5739209331153
 20
79.16334872241528
 10
64.09883381790324
 20
73.31529995909803
 10
68.06158142917306
 20
70.28289693139624
 10
67.40922635840379
 20
67.43432833908349
 10
68.33009840121308
 20
66.80343041873357
 10
69.96948930963462
 20
68.82291355601448
 10
74.989705507795
 20
64.98130659731622
 10
70.42471875051089
 20
59.01577688287848
 10
66.11262578931733
 20
54.59046753281642
 10
64.66060544146147
 20
51.94559131026946
 10
61.03280326285919
 20
30.478488938588207
 10
60.971392982721895
 20
15.958168809243082
 10
62.97103702046005
 20
3.7189936608843435
 10
64.14317090079889
 20
1.6377293645003768
 10
65.42931350923827
 20
0.8654521229575596
 10
68.50796272874861
 20
1.6585713026441287
 10
74.16814928260209
 20
6.189039715844176
 10
84.52775879566339
 20
19.288101551481713
 10
94.28016657846476
 20
35.36584814874207
 10
97.54928726542009
 20
45.90930364894735
 10
101.63813752984495
 20
54.13421877798635
 10
105.74143437420307
 20
60.34033949176428
 10
111.60541717010875
 20
66.30000613916812
 10
118.71337727671754
 20
70.30863383520271
 10
125.78735855475692
 20
70.55482265953287
 10
131.06302785638954
 20
68.24974635991134
 10
120.975683348669
 20
55.724986064695166
 10
114.8602544932244
 20
45.14705419434327
 10
110.88380188600027
 20
34.32867485493394
 10
108.44420525785603
 20
20.944612796632445
 10
109.03596610580998
 20
16.879534109696504
 10
109.90045268131723
 20
15.897248263728857
 10
111.06801597064712
 20
16.1534098984546
 10
113.22014365456926
 20
18.242698407288092
 10
120.78960605636034
 20
29.641043762199434
 10
129.0353728853602
 20
47.04018015599991
 10
132.491965508297
 20
56.89430923893715
 10
132.1734105685508
 20
57.39935495013127
 10
141.581278807347
 20
69.61590774594265
 10
139.12351804413922
 20
71.50860937865441
 10
140.60671073387425
 20
72.17244509919536
 10
144.48959333952752
 20
70.99526081990992
 10
147.3642850484514
 20
69.06268425462467
 10
150.01670205834313
 20
63.28724360815565
 10
149.87752289841347
 20
59.69025408790454
 10
145.73722797205716
 20
41.8279930555989
 10
143.07698188811335
 20
21.93770536359153
 10
143.13100798048063
 20
16.694011906616083
 10
144.00662719666607
 20
13.118238076564209
 10
144.9195304537096
 20
11.752130311012273
 10
146.2375758331656
 20
11.325143829897446
 10
148.3129646366062
 20
12.213013128702071
 10
153.49730186904972
 20
17.485002386444496
 10
162.53290398561032
 20
31.04947968613897
 10
167.18909254795375
 20
39.49748440949915
 10
168.68222249226102
 20
43.75951964056884
 10
173.18695495100837
 20
68.35894084400277
 10
174.5259304068923
 20
70.91825018086675
 10
178.10118064576574
 20
71.42563364082963
 10
181.0093575499373
 20
70.74004002468449
 10
184.06509012162516
 20
69.02485745768557
 10
186.40329958683668
 20
65.68105068745702
 10
187.59151897917013
 20
59.63605578283629
 10
185.1093219154379
 20
47.4317953618491
 10
185.7489739207442
 20
46.62582576160486
 10
197.3551280772903
 20
63.71628560233028
 10
204.95192037497935
 20
71.36668807330861
 10
210.75040507664073
 20
74.01341803625294
 10
214.41563738522765
 20
73.91353575731411
 10
217.55604435810383
 20
72.4117736803122
 10
220.02271052144297
 20
69.94456075646953
 10
221.3954601232986
 20
67.3958499705127
 10
223.26677652891448
 20
57.56460730664362
 10
216.44372955967765
 20
18.397024690914247
 10
216.71986655655377
 20
8.9252175940821
 10
217.7909038024733
 20
7.220762351208821
 10
219.1155437305365
 20
7.233625922708205
 10
225.41932683018007
 20
13.56826914394607
 10
238.08045520446626
 20
33.8802908947247
 10
242.65785541505517
 20
48.88480883708546
 10
245.91144288781038
 20
55.343594821029455
 10
250.53038443722113
 20
61.985321613372854
 10
257.8467710532657
 20
68.25795404159042
 10
265.2678269018724
 20
71.12555264752902
 10
270.6554613519822
 20
70.34150547046256
 10
271.653328048868
 20
69.71574890215408
 10
265.3531890896535
 20
56.996512053736275
 10
263.3801626628958
 20
54.87641460374347
 10
260.1347069701838
 20
49.25037933896905
 10
254.95234751168053
 20
36.83183090692435
 10
252.2598082656585
 20
24.80311264613227
 10
252.25264331635486
 20
18.16037453830318
 10
253.59742550508045
 20
16.060522946840763
 10
256.55899158734235
 20
17.537358919766888
 10
262.7886423433363
 20
26.400450181815042
 10
269.48394162852503
 20
39.695476776232155
 10
274.31379566317
 20
51.59243001586851
 10
274.2651113275042
 20
58.09133851810023
 10
281.5356444182016
 20
72.76968656621523
 10
277.387534763323
 20
74.82434342615456
 10
281.64348069462767
 20
93.50677642370812
 10
287.0029488268249
 20
109.52930279703034
 10
291.5175984701408
 20
120.35291083524739
 10
297.32770770619356
 20
131.9574945062911
 10
302.2975913291785
 20
139.87547074059327
 10
310.57398049217215
 20
149.04568266769425
 10
315.5862122854512
 20
151.6149164897644
 10
321.2745401123393
 20
151.2698151222836
 10
326.07271342410513
 20
147.12959719448924
 10
328.06981566881694
 20
141.87608640997922
 10
328.1117344010494
 20
133.3691286514886
 10
323.5813824786322
 20
116.92043843113619
 10
318.09389176495216
 20
104.9507576967089
 10
312.18618675684525
 20
107.65914040886473
 10
319.6470160262861
 20
127.04792018295352
 10
321.50355605030734
 20
133.90205086997258
 10
320.9972636282675
 20
140.20484719292446
 10
317.576439916214
 20
137.4609392350766
 10
309.3248543212741
 20
122.23764744177025
 10
301.3234562660015
 20
100.9332114186844
 10
300.029836439653
 20
100.03973684489671
 10
299.0543590586917
 20
98.57983177520015
 10
298.7341798404533
 20
97.19894802893052
 10
297.7411859644229
 20
95.72368140534428
 10
297.40486529390967
 20
94.09652668739434
 10
296.42386633315186
 20
92.63177932217772
 10
296.09014544047125
 20
90.77511820407099
 10
295.05062992760503
 20
89.2590531999598
 10
294.72733147975555
 20
87.24337630234687
 10
293.56997844733763
 20
85.62397056713141
 10
293.2540645747574
 20
83.49562682293931
 10
292.4198908986482
 20
82.56640302026531
 10
291.06485842074414
 20
83.54435845531475
 10
286.6756826687425
 20
77.4628178430981
 10
297.4802077574611
 20
69.66496487208721
 10
292.0324863821238
 20
62.11672787723789
 10
290.92146048253227
 20
59.25308728047926
 10
288.06288769915824
 20
38.759016048070784
 10
288.0377885713104
 20
20.068105118070026
 10
289.1341342561904
 20
13.554319628816453
 10
291.7306043100486
 20
10.435638023742214
 10
293.413559589543
 20
10.735280874739548
 10
296.4482884853245
 20
12.77866084471353
 10
299.8050962644824
 20
16.123104896231276
 10
312.8807230448854
 20
35.67143755960245
 10
318.71990326813756
 20
47.67534267191279
 10
317.25797112470076
 20
55.19352392768495
 10
317.27183644740256
 20
62.83371901292565
 10
319.5393594056601
 20
69.86888166403169
 10
322.4570033098482
 20
74.4486490716337
 10
325.01293122612554
 20
76.91438900625931
 10
330.99909064930966
 20
79.90876745039738
 10
337.6315962608156
 20
79.73065713311857
 10
341.5269186782275
 20
77.20030566134157
 10
343.6671027221545
 20
74.2229346099927
 10
344.5031456902871
 20
70.22143201267588
 10
343.3791097543524
 20
65.86204428342243
 10
342.17602097443034
 20
65.97334680788784
 10
341.08940860454186
 20
70.66061724815614
 10
339.69130710945046
 20
71.4907312769201
 10
337.4337282611047
 20
70.67153728898624
 10
335.5265053574606
 20
68.83957522353683
 10
333.6716744278115
 20
65.14455060355529
 10
332.7473403268135
 20
60.284015501766206
 10
333.97237028818245
 20
54.59239639010758
 10
343.1628049489233
 20
37.941107804521394
 10
345.3438998270375
 20
38.072301127400735
 10
367.8361195730768
 20
54.20691436274364
 10
370.1875727437046
 20
54.05037433756463
 10
370.76274364921176
 20
51.9016222420341
 10
368.86608652537853
 20
48.79952618199988
 10
365.3025666230285
 20
45.61374044413769
 10
346.9244567764754
 20
31.91946645319935
 10
346.69097035501534
 20
30.380734146449374
 10
349.9755296561458
 20
16.59046594565389
 10
350.03502841090886
 20
12.311731744222037
 10
348.98550225062513
 20
5.484090319983659
 10
346.3083881616938
 20
-1.8066077280703918
 10
343.21300830895115
 20
-7.000286891106884
 10
339.5911963051762
 20
-10.56958743974139
 10
332.5062162354436
 20
-15.527526863048124
 10
326.43659963003944
 20
-17.23624784538137
 10
322.1630325552655
 20
-17.024110862862045
 10
317.14649914560835
 20
-14.898970882599645
 10
314.15667358876266
 20
-11.743155723437088
 10
312.02645685078124
 20
-5.988810638111102
 10
312.12571462024897
 20
-0.3237573883336968
 10
314.8508611166498
 20
7.176772478443964
 10
320.85943270981653
 20
16.107436671595007
 10
324.9563427946104
 20
12.24209218801862
 10
321.34882496778675
 20
7.4238335899185435
 10
317.90891017943244
 20
-0.5773433325922943
 10
318.0087788139834
 20
-5.7202029747618175
 10
320.3556479559356
 20
-7.855564759180035
 10
322.75339037576924
 20
-7.789760996810246
 10
327.0290299205651
 20
-5.536661594879768
 10
330.1515052642544
 20
-2.220835197063229
 10
332.3917840049
 20
2.2055531830565567
 10
334.6369885499898
 20
10.169211094295703
 10
334.615224171212
 20
12.174374186331727
 10
335.24714551052847
 20
12.84415275816209
 10
334.60134080906147
 20
13.453455278505004
 10
333.2919505137267
 20
19.74479265030591
 10
331.385959533056
 20
19.420346650532398
 10
329.8747088367915
 20
17.91292850143974
 10
326.00632190076595
 20
21.562666424418286
 10
330.70237764804995
 20
26.54005414019597
 10
326.5920234141559
 20
35.54956069785217
 10
322.49227423543834
 20
41.129470871833036
 10
321.05936711422845
 20
40.10338330624379
 10
309.3191376221139
 20
18.568708585424805
 10
303.2084453661815
 20
9.839885833348665
 10
295.69954554199194
 20
2.1795678660468463
 10
292.50281194072784
 20
0.401632932422231
 10
287.9245366568883
 20
-0.5436591375085076
 10
284.6481114961102
 20
0.41357982317671216
 10
281.17753741064064
 20
2.2795641002729448
 10
278.51191377413477
 20
5.396074161149906
 10
274.7247488240714
 20
14.600626567115622
 10
272.75877846849875
 20
27.587308462275978
 10
272.08658263560056
 20
28.093092448423246
 10
266.39252054697585
 20
18.346247859268605
 10
259.32076904037336
 20
8.652584656103194
 10
257.1105107879911
 20
6.634342822391044
 10
252.47950916249764
 20
4.285150525552059
 10
247.4741259386642
 20
3.84851128389657
 10
241.96772470660542
 20
6.855676320443458
 10
238.83351886109884
 20
12.229675283647929
 10
237.50276071095064
 20
18.57335083574757
 10
236.8098084519548
 20
18.97760017885787
 10
228.89871772610488
 20
7.112053959572466
 10
223.41951921570447
 20
0.7721673676631451
 10
215.5873432683446
 20
-3.256222979180483
 10
211.44152046237903
 20
-3.0890828693277244
 10
207.6726447827175
 20
-1.3087761217836333
 10
204.09746531620428
 20
3.1248641419114795
 10
202.12824006543767
 20
8.008049772312017
 10
201.05279531853057
 20
13.342143963647842
 10
201.14637870050518
 20
30.79578251956253
 10
206.2248896514215
 20
55.26361733588876
 10
206.1449113866809
 20
60.916351273611646
 10
205.55425865697725
 20
61.57138832632377
 10
200.22587945683483
 20
56.75858988127443
 10
190.93239843636474
 20
41.86793108674166
 10
184.33599705017215
 20
28.57764911308339
 10
177.37310395622424
 20
8.579659591667333
 10
176.80801135172288
 20
5.186322831908402
 10
175.08261027653523
 20
3.8581958928179496
 10
169.69508162607207
 20
4.158818595318633
 10
167.24666744428356
 20
5.626659474682645
 10
165.4963713305708
 20
7.71681941405817
 10
163.56327874520423
 20
12.24054943761693
 10
164.35876142392013
 20
19.684526480000635
 10
163.7137997114228
 20
20.625989870081444
 10
153.65370247683703
 20
6.91932924770383
 10
151.01420025012047
 20
4.318452384740661
 10
147.65073088105268
 20
2.210017218110651
 10
144.39582693357784
 20
1.1538866838609296
 10
140.03616402862764
 20
1.0906500308979221
 10
137.34724495358216
 20
1.9632545909758765
 10
133.06464233823067
 20
5.766036356207132
 10
130.56461869148748
 20
11.323225644539576
 10
128.60767806039436
 20
21.17237647692721
 10
128.49703360053408
 20
27.380229728459046
 10
127.90836847017616
 20
27.970391674518844
 10
120.66860441342638
 20
15.939900033187925
 10
115.06021092649218
 20
8.498046012551656
 10
107.37335876569077
 20
3.9011448610275763
 10
103.83354996523234
 20
3.748314035132568
 10
100.55714100748534
 20
4.755092892376686
 10
96.6708095013293
 20
8.044944552816245
 10
93.80324894074448
 20
13.432376002270058
 10
93.44766363924327
 20
20.028468926145845
 10
92.5757817356093
 20
20.536082668669664
 10
86.46151729394657
 20
10.477626782395939
 10
77.89888396439639
 20
-0.8026880648577928
 10
72.27807993590308
 20
-6.239424410741135
 10
63.06307075934161
 20
-10.208651128685261
 10
57.78219419262689
 20
-9.222015902479793
 10
55.2810606883263
 20
-8.019028680686343
 10
52.08546122263328
 20
-5.327752963656346
 10
48.853016433301356
 20
-0.9668414777145418
 10
45.743918135280026
 20
9.10519570410653
 10
44.224713917326376
 20
26.716202220230883
 10
42.793980303502636
 20
25.81359889081516
 10
40.45020584012011
 20
21.366712541142196
 10
32.079285547036015
 20
9.330761947368542
 10
24.656930669561433
 20
1.9207960826968462
 10
20.452969837748746
 20
-0.3202354632264206
 10
11.806449866026364
 20
-0.5532042956320743
 10
6.619370751219889
 20
3.1622813227128757
 10
2.2003034908897274
 20
12.08927811647267
 10
-0.28463141439271344
 20
27.772623447584873
 10
-7.887276956349129
 20
15.684303550966636
 10
-12.198170092091885
 20
10.39406722489987
 10
-18.252027248575946
 20
4.779974510853641
 10
-22.999611472412276
 20
2.9872424627186014
 10
-25.870146569823266
 20
2.9601500735022634
 10
-29.56632633593364
 20
4.308157430708974
 10
-34.112296035031285
 20
7.950573494384799
 10
-37.30746486865416
 20
17.437019382632528
 10
-37.25427198377155
 20
26.5997613016129
 10
-35.42562292681204
 20
35.665630094981516
 10
-33.28870603708837
 20
42.14245909454705
 10
-33.869528391605634
 20
43.40642947717923
 10
-43.30913247180629
 20
40.688578557747036
 10
-45.43460101032674
 20
34.36862024625316
 10
-51.65465860784875
 20
36.460491122564854
 10
-50.64862452060614
 20
39.94125521361857
 10
-51.30348686032881
 20
41.76793089826505
 10
-59.01611622591931
 20
44.29206596342441
 10
-61.72421769674324
 20
46.17508694679792
 10
-63.43839404125065
 20
48.516934645373254
 10
-64.46014535191985
 20
48.44393952186636
 10
-70.74266020294745
 20
36.274399060778734
 10
-72.54421001156483
 20
30.747121154678805
 10
-73.90283410937766
 20
16.3878295059409
 10
-73.39924257514929
 20
12.152327791517887
 10
-70.95307920427605
 20
9.718841852289033
 10
-67.72164855903402
 20
11.066900977064163
 10
-61.12385824035851
 20
17.822145973428142
 10
-57.54472421176258
 20
23.19538384607236
 10
-54.39577039508316
 20
29.46957233425343
 10
-47.825348498143946
 20
27.259870254201406
 10
-49.55298678522125
 20
22.122837287686746
 10
-54.935508605887044
 20
12.371025347494564
 10
-61.253503229367546
 20
5.181174243829955
 10
-65.94090014226087
 20
2.2774823764248477
 10
-70.98962397234594
 20
0.37089983359499423
 10
-76.54356191941321
 20
0.21710844249690844
 10
-81.03787819241595
 20
1.668987193113867
 10
-86.60983706575932
 20
6.361584947864538
 10
-89.55614772876265
 20
12.310305904960531
 10
-90.6290206241452
 20
18.876621059399664
 10
-90.63097155124142
 20
28.209584449654162
 10
-87.3175550529469
 20
42.758426981302726
 10
-88.06874149635632
 20
43.27026257895691
 10
-96.87489166206159
 20
40.54113693227717
 10
-97.1529272379267
 20
39.72264478346603
 10
-110.64239476598225
 20
44.30491460453191
 10
-110.83975522266168
 20
43.72391706932345
 10
-113.54995945194533
 20
44.89231729756547
 10
-117.9984201181814
 20
48.225814291729215
 10
-124.00572514741424
 20
37.18616344213255
 10
-126.60712018391212
 20
28.525281247742473
 10
-127.59780374173936
 20
22.75903552371053
 10
-127.49847916542363
 20
12.761539121478851
 10
-126.5050628202634
 20
10.044559284685223
 10
-125.15664643710282
 20
9.25135133159066
 10
-120.98287258766388
 20
11.072870809372915
 10
-113.63930025446554
 20
19.406805990051932
 10
-107.79223932869736
 20
30.113449134836106
 10
-106.04908527334798
 20
34.82369693642816
 10
-99.5652396921595
 20
32.621183763143996
 10
-102.87668558974086
 20
22.872818073070757
 10
-108.75201106479288
 20
11.980328929213636
 10
-113.60190278171576
 20
5.964239558989261
 10
-120.10730048960926
 20
1.3880306599532073
 10
-126.03569677675343
 20
-0.5071129147107797
 10
-129.62267398528348
 20
-0.6625976652965099
 10
-137.07637405893786
 20
2.061588169230677
 10
-139.83465193159603
 20
4.529434956540837
 10
-142.57799231646808
 20
9.156597996450447
 10
-144.70747925001567
 20
15.50380810453943
 10
-144.73034041747636
 20
25.375477720802927
 10
-142.82281817895273
 20
35.80671658163657
 10
-140.1618309224979
 20
44.68924513468355
 10
-135.8556542225958
 20
53.4283995552898
 10
-131.68723512777086
 20
59.61312935906872
 10
-126.16332866652597
 20
65.15477004250361
 10
-116.6427978660944
 20
71.0087187395426
 10
-111.4420797653359
 20
72.1021989587296
 10
-106.6409072761404
 20
70.88646153812637
 10
-113.29567499091759
 20
59.02711356829245
 10
-111.5893896972562
 20
58.06964674015485
 10
-111.80119398464551
 20
54.045443846719515
 10
-110.03690608794668
 20
51.0044490292938
 10
-105.62849509688932
 20
48.19379433492875
 10
-103.50557471095986
 20
48.31139113380533
 10
-102.94617417467799
 20
49.36733570822806
 10
-102.92690202683634
 20
57.1152413695395
 10
-104.08122988944162
 20
60.12190227777973
 10
-100.31344696404784
 20
66.83640392564672
 10
-98.37496283923183
 20
64.0421360730679
 10
-96.49287214248791
 20
58.52519212617348
 10
-96.09919168234845
 20
48.83930878846875
 10
-94.36539332745859
 20
47.217251383193776
 10
-89.65500606510633
 20
48.01973578630119
 10
-84.4772742719317
 20
50.243139826794796
 10
-74.76136826292917
 20
63.291923395449146
 10
-70.32370998719499
 20
66.59906586513573
 10
-61.58157535170219
 20
71.29583122161034
 10
-54.41724063081255
 20
71.24488035809014
 10
-53.38934400105485
 20
70.74344316179413
 10
-59.36526137105227
 20
58.493403935137444
 10
-58.37118494981873
 20
58.008465197975895
 10
-57.450301600430485
 20
52.65261352229003
 10
-54.09026524550881
 20
49.46479549433967
 10
-49.61827723894297
 20
48.11460210279107
 10
-48.818886955453465
 20
49.25473774325361
 10
-48.83185231209221
 20
54.21821618087416
 10
-50.3207676932234
 20
59.92764590055334
 10
-46.89273277084821
 20
66.95477825018675
 10
-44.0485079038809
 20
61.86129626336488
 10
-42.1775722631535
 20
54.24019981019979
 10
-41.704146675209685
 20
47.822178233561424
 10
-34.38652759566069
 20
48.9360934275223
 10
-30.596078566335855
 20
50.423336924303385
 10
-21.511047139122677
 20
63.21999450846683
 10
-11.888008264160273
 20
69.24499323933026
 10
-8.003065319356542
 20
70.47434196739631
 10
-4.350624048274957
 20
70.49597987236521
 10
-1.338511622536124
 20
69.24562079294853
 10
-5.762003087206565
 20
58.58943904066382
 10
-10.00745625720268
 20
54.00044979486511
 10
-16.53208558510744
 20
40.833501865850906
 10
-20.129108771153234
 20
29.067123392302683
 10
-21.099121029643765
 20
23.968689747321516
 10
-21.114078591621233
 20
17.324615205090936
 10
-19.668901425510814
 20
15.048210005538849
 10
-17.687054740949897
 20
15.68929907006229
 10
-12.261377213322055
 20
22.12335155314139
 10
-2.4009328117638873
 20
40.873450394197434
 10
1.7800692182033155
 20
52.109844512501475
 10
1.7297079977317449
 20
57.07464495201005
 10
8.463813764817246
 20
73.29709176044264
 10
4.763295365377508
 20
74.8332152928015
 10
7.328798277660212
 20
86.17369618570507
 10
11.788915004541185
 20
100.51612158736248
 10
19.576772557366706
 20
119.73468106041527
  0
LWPOLYLINE
  5
53
330
17
100
AcDbEntity
  8
CUT
100
AcDbPolyline
 90
18
 70
1
 10
313.05145219653144
 20
93.95185220313341
 10
301.8693835094627
 20
75.74650548430385
 10
299.70546650420823
 20
77.30824989323335
 10
300.490742425062
 20
78.89291076602683
 10
300.6174479756422
 20
80.46386476753737
 10
301.88489423993923
 20
82.17981967584561
 10
302.2081926877887
 20
84.19549657345853
 10
303.3655457202066
 20
85.814902308674
 10
303.69926661288724
 20
87.67156342678072
 10
304.73878212575346
 20
89.18762843089192
 10
305.0751027962667
 20
90.81478314884185
 10
305.79575817775367
 20
91.75160595970138
 10
306.37628097526294
 20
93.66041426032811
 10
307.3692748512933
 20
95.13568088391435
 10
307.67331883117464
 20
96.27038846456702
 10
307.5430917606902
 20
98.06778367193319
 10
308.59127728458475
 20
99.9565450847548
 10
314.5515868096589
 20
97.22404587319018
  0
LWPOLYLINE
  5
54
330
17
100
AcDbEntity
  8
CUT
100
AcDbPolyline
 90
24
 70
1
 10
8.907509259954603
 20
348.44087727486357
 10
17.40755795587081
 20
344.2242751230542
 10
34.2760413710659
 20
332.68125719227277
 10
46.50014050256921
 20
322.3382588798146
 10
53.74986905570657
 20
315.04068005561436
 10
65.63619923510456
 20
298.58675712969085
 10
74.68647841352474
 20
281.3329598942716
 10
74.68194273478761
 20
280.11747006826573
 10
72.86561606818435
 20
279.61510257372123
 10
66.83619795258704
 20
286.5635403015464
 10
59.094472771353765
 20
293.3136251178173
 10
46.54794807323145
 20
302.2782638746609
 10
36.93272050445
 20
308.0480290119178
 10
22.567285132078197
 20
314.7419459989507
 10
1.4257227478498324
 20
321.466321621287
 10
-14.28412963128958
 20
327.99939927317627
 10
-27.34577069286002
 20
336.3444765698405
 10
-36.56300378891674
 20
344.50807904423414
 10
-43.18164710200511
 20
348.845962591249
 10
-42.59733401760517
 20
350.30717711564375
 10
-34.084668612694415
 20
352.81882386276123
 10
-21.299654721793903
 20
354.64689993710255
 10
-16.16982746286919
 20
354.61785681133387
 10
-7.825214627975651
 20
353.6818617390953
  0
CIRCLE
  5
55
330
17
100
AcDbEntity
  8
CUT
100
AcDbCircle
 10
-240.0
 20
295.0
 30
0.0
 40
6.0
  0
CIRCLE
  5
56
330
17
100
AcDbEntity
  8
CUT
100
AcDbCircle
 10
240.0
 20
295.0
 30
0.0
 40
6.0
  0
ENDSEC
  0
SECTION
  2
OBJECTS
  0
DICTIONARY
  5
A
330
0
100
AcDbDictionary
281
1
  3
ACAD_COLOR
350
B
  3
ACAD_GROUP
350
C
  3
ACAD_LAYOUT
350
D
  3
ACAD_MATERIAL
350
E
  3
ACAD_MLEADERSTYLE
350
F
  3
ACAD_MLINESTYLE
350
10
  3
ACAD_PLOTSETTINGS
350
11
  3
ACAD_PLOTSTYLENAME
350
12
  3
ACAD_SCALELIST
350
14
  3
ACAD_TABLESTYLE
350
15
  3
ACAD_VISUALSTYLE
350
16
  3
EZDXF_META
350
2D
  0
DICTIONARY
  5
B
330
A
100
AcDbDictionary
281
1
  0
DICTIONARY
  5
C
330
A
100
AcDbDictionary
281
1
  0
DICTIONARY
  5
D
330
A
100
AcDbDictionary
281
1
  3
Model
350
1A
  3
Layout1
350
1E
  0
DICTIONARY
  5
E
330
A
100
AcDbDictionary
281
1
  3
ByBlock
350
1F
  3
ByLayer
350
20
  3
Global
350
21
  0
DICTIONARY
  5
F
330
A
100
AcDbDictionary
281
1
  3
Standard
350
2C
  0
DICTIONARY
  5
10
330
A
100
AcDbDictionary
281
1
  3
Standard
350
22
  0
DICTIONARY
  5
11
330
A
100
AcDbDictionary
281
1
  0
ACDBDICTIONARYWDFLT
  5
12
330
A
100
AcDbDictionary
281
1
  3
Normal
350
13
100
AcDbDictionaryWithDefault
340
13
  0
ACDBPLACEHOLDER
  5
13
330
12
  0
DICTIONARY
  5
14
330
A
100
AcDbDictionary
281
1
  0
DICTIONARY
  5
15
330
A
100
AcDbDictionary
281
1
  0
DICTIONARY
  5
16
330
A
100
AcDbDictionary
281
1
  0
LAYOUT
  5
1A
330
D
100
AcDbPlotSettings
  1

  4
A3
  6

 40
7.5
 41
20.0
 42
7.5
 43
20.0
 44
420.0
 45
297.0
 46
0.0
 47
0.0
 48
0.0
 49
0.0
140
0.0
141
0.0
142
1.0
143
1.0
 70
1024
 72
1
 73
0
 74
5
  7

 75
16
 76
0
 77
2
 78
300
147
1.0
148
0.0
149
0.0
100
AcDbLayout
  1
Model
 70
1
 71
0
 10
0.0
 20
0.0
 11
420.0
 21
297.0
 12
0.0
 22
0.0
 32
0.0
 14
1e+20
 24
1e+20
 34
1e+20
 15
-1e+20
 25
-1e+20
 35
-1e+20
146
0.0
 13
0.0
 23
0.0
 33
0.0
 16
1.0
 26
0.0
 36
0.0
 17
0.0
 27
1.0
 37
0.0
 76
1
330
17
  0
LAYOUT
  5
1E
330
D
100
AcDbPlotSettings
  1

  4
A3
  6

 40
7.5
 41
20.0
 42
7.5
 43
20.0
 44
420.0
 45
297.0
 46
0.0
 47
0.0
 48
0.0
 49
0.0
140
0.0
141
0.0
142
1.0
143
1.0
 70
0
 72
1
 73
0
 74
5
  7

 75
16
 76
0
 77
2
 78
300
147
1.0
148
0.0
149
0.0
100
AcDbLayout
  1
Layout1
 70
1
 71
1
 10
0.0
 20
0.0
 11
420.0
 21
297.0
 12
0.0
 22
0.0
 32
0.0
 14
1e+20
 24
1e+20
 34
1e+20
 15
-1e+20
 25
-1e+20
 35
-1e+20
146
0.0
 13
0.0
 23
0.0
 33
0.0
 16
1.0
 26
0.0
 36
0.0
 17
0.0
 27
1.0
 37
0.0
 76
1
330
1B
  0
MATERIAL
  5
1F
102
{ACAD_REACTORS
330
E
102
}
330
E
100
AcDbMaterial
  1
ByBlock
  2

 70
0
 40
1.0
 71
1
 41
1.0
 91
-1023410177
 42
1.0
 72
1
  3

 73
1
 74
1
 75
1
 44
0.5
 73
0
 45
1.0
 46
1.0
 77
1
  4

 78
1
 79
1
170
1
 48
1.0
171
1
  6

172
1
173
1
174
1
140
1.0
141
1.0
175
1
  7

176
1
177
1
178
1
143
1.0
179
1
  8

270
1
271
1
272
1
145
1.0
146
1.0
273
1
  9

274
1
275
1
276
1
 42
1.0
 72
1
  3

 73
1
 74
1
 75
1
 94
63
  0
MATERIAL
  5
20
102
{ACAD_REACTORS
330
E
102
}
330
E
100
AcDbMaterial
  1
ByLayer
  2

 70
0
 40
1.0
 71
1
 41
1.0
 91
-1023410177
 42
1.0
 72
1
  3

 73
1
 74
1
 75
1
 44
0.5
 73
0
 45
1.0
 46
1.0
 77
1
  4

 78
1
 79
1
170
1
 48
1.0
171
1
  6

172
1
173
1
174
1
140
1.0
141
1.0
175
1
  7

176
1
177
1
178
1
143
1.0
179
1
  8

270
1
271
1
272
1
145
1.0
146
1.0
273
1
  9

274
1
275
1
276
1
 42
1.0
 72
1
  3

 73
1
 74
1
 75
1
 94
63
  0
MATERIAL
  5
21
102
{ACAD_REACTORS
330
E
102
}
330
E
100
AcDbMaterial
  1
Global
  2

 70
0
 40
1.0
 71
1
 41
1.0
 91
-1023410177
 42
1.0
 72
1
  3

 73
1
 74
1
 75
1
 44
0.5
 73
0
 45
1.0
 46
1.0
 77
1
  4

 78
1
 79
1
170
1
 48
1.0
171
1
  6

172
1
173
1
174
1
140
1.0
141
1.0
175
1
  7

176
1
177
1
178
1
143
1.0
179
1
  8

270
1
271
1
272
1
145
1.0
146
1.0
273
1
  9

274
1
275
1
276
1
 42
1.0
 72
1
  3

 73
1
 74
1
 75
1
 94
63
  0
MLINESTYLE
  5
22
102
{ACAD_REACTORS
330
10
102
}
330
10
100
AcDbMlineStyle
  2
Standard
 70
0
  3

 62
256
 51
90.0
 52
90.0
 71
2
 49
0.5
 62
256
  6
BYLAYER
 49
-0.5
 62
256
  6
BYLAYER
  0
MLEADERSTYLE
  5
2C
102
{ACAD_REACTORS
330
F
102
}
330
F
100
AcDbMLeaderStyle
179
2
170
2
171
1
172
0
 90
2
 40
0.0
 41
0.0
173
1
 91
-1056964608
 92
-2
290
1
 42
2.0
291
1
 43
8.0
  3
Standard
 44
4.0
300

342
29
174
1
175
1
176
0
178
1
 93
-1056964608
 45
4.0
292
0
297
0
 46
4.0
 94
-1056964608
 47
1.0
 49
1.0
140
1.0
294
1
141
0.0
177
0
142
1.0
295
0
296
0
143
3.75
271
0
272
9
273
9
  0
DICTIONARY
  5
2D
330
A
100
AcDbDictionary
280
1
281
1
  3
CREATED_BY_EZDXF
350
2E
  3
WRITTEN_BY_EZDXF
350
59
  0
DICTIONARYVAR
  5
2E
330
2D
100
DictionaryVariables
280
0
  1
1.4.4 @ 2026-09-09T01:47:37.311421+00:00
  0
DICTIONARYVAR
  5
59
330
2D
100
DictionaryVariables
280
0
  1
1.4.4 @ 2026-09-09T01:47:37.320956+00:00
  0
ENDSEC
  0
EOF
